<svg width="33" height="32" viewBox="0 0 33 32" fill="none" xmlns="http://www.w3.org/2000/svg">
<g clip-path="url(#clip0_354_9485)">
<path d="M16.666 0C13.5015 0 10.4081 0.938384 7.7769 2.69649C5.14571 4.45459 3.09495 6.95345 1.88395 9.87707C0.672948 12.8007 0.356095 16.0177 0.973458 19.1214C1.59082 22.2251 3.11467 25.0761 5.35231 27.3137C7.58995 29.5514 10.4409 31.0752 13.5446 31.6926C16.6483 32.3099 19.8653 31.9931 22.789 30.7821C25.7126 29.5711 28.2114 27.5203 29.9695 24.8891C31.7276 22.2579 32.666 19.1645 32.666 16C32.6614 11.7579 30.9743 7.69095 27.9747 4.69136C24.9751 1.69177 20.9081 0.00458811 16.666 0ZM16.666 2.66667C19.7413 2.66421 22.7219 3.73033 25.098 5.68267L6.34869 24.432C4.74944 22.4798 3.73757 20.1135 3.43084 17.6086C3.12412 15.1036 3.53517 12.5631 4.61614 10.2827C5.69711 8.00232 7.40354 6.07584 9.53679 4.72752C11.6701 3.37921 14.1424 2.66453 16.666 2.66667ZM16.666 29.3333C13.5907 29.3358 10.6101 28.2697 8.23402 26.3173L26.9834 7.568C28.5826 9.52022 29.5945 11.8865 29.9012 14.3914C30.2079 16.8964 29.7969 19.4369 28.7159 21.7173C27.6349 23.9977 25.9285 25.9242 23.7953 27.2725C21.662 28.6208 19.1897 29.3355 16.666 29.3333Z" fill="#F95D5D"/>
</g>
<defs>
<clipPath id="clip0_354_9485">
<rect width="32" height="32" fill="white" transform="translate(0.666016)"/>
</clipPath>
</defs>
</svg>
