<svg width="16" height="16" viewBox="0 0 16 16" fill="none" xmlns="http://www.w3.org/2000/svg">
<g clip-path="url(#clip0_2568_129)">
<path d="M9.26663 8.71959C9.08444 8.71959 8.90633 8.66556 8.75484 8.56434C8.60334 8.46312 8.48527 8.31924 8.41554 8.15091C8.34582 7.98258 8.32758 7.79736 8.36312 7.61866C8.39867 7.43996 8.4864 7.27582 8.61524 7.14698C8.74407 7.01815 8.90822 6.93041 9.08691 6.89487C9.26561 6.85932 9.45084 6.87757 9.61917 6.94729C9.7875 7.01701 9.93137 7.13509 10.0326 7.28658C10.1338 7.43807 10.1878 7.61618 10.1878 7.79838C10.1878 8.0427 10.0908 8.27701 9.91803 8.44978C9.74527 8.62254 9.51095 8.71959 9.26663 8.71959ZM15.0549 11.8787C15.1316 12.3198 15.1108 12.7723 14.9942 13.2046C14.8775 13.6368 14.6678 14.0383 14.3796 14.3809C14.0915 14.7235 13.7319 14.999 13.326 15.188C12.9202 15.377 12.478 15.475 12.0303 15.4752H9.5737C9.41082 15.4752 9.25461 15.4104 9.13944 15.2953C9.02427 15.1801 8.95956 15.0239 8.95956 14.861V13.4712C8.55864 13.5769 8.1459 13.6312 7.73128 13.6327C7.31642 13.6306 6.90357 13.5749 6.503 13.4669V14.861C6.503 15.0239 6.43829 15.1801 6.32312 15.2953C6.20794 15.4104 6.05173 15.4752 5.88885 15.4752H3.43229C2.9846 15.475 2.54234 15.377 2.13651 15.188C1.73068 14.999 1.37109 14.7235 1.08294 14.3809C0.794779 14.0383 0.585027 13.6368 0.468376 13.2046C0.351725 12.7723 0.330995 12.3198 0.40764 11.8787L0.591882 10.8101C0.653148 10.4547 0.81948 10.1258 1.06943 9.86582C1.31938 9.60583 1.64148 9.42668 1.9942 9.35147C2.34693 9.27626 2.71409 9.30844 3.04835 9.44386C3.38262 9.57928 3.66864 9.81173 3.86956 10.1112C4.64583 11.2523 6.14004 12.4044 7.73128 12.4044C9.65354 12.4044 11.5476 10.6977 12.1101 9.10282C12.1553 8.98293 12.2357 8.87958 12.3409 8.80643C12.4461 8.73329 12.571 8.6938 12.6991 8.69318L12.9644 8.69748C13.0833 8.69895 13.2013 8.67676 13.3116 8.63221C13.4218 8.58766 13.5221 8.52164 13.6067 8.43797C13.6912 8.35431 13.7582 8.25469 13.8039 8.14489C13.8496 8.03509 13.873 7.9173 13.8727 7.79838C13.8725 7.58298 13.7968 7.37447 13.6588 7.20908C13.5208 7.0437 13.3292 6.93191 13.1173 6.89313C12.9866 6.86943 12.8672 6.80401 12.7768 6.70669C12.6865 6.60936 12.6301 6.48537 12.6162 6.3533C12.4899 5.14669 11.9205 4.02984 11.0181 3.21898C10.1157 2.40812 8.94447 1.96095 7.73128 1.96403C4.30621 1.96403 3.36596 4.19214 2.61057 5.98298C2.473 6.30663 2.34341 6.61554 2.204 6.89375C3.43891 6.82845 4.64306 6.48473 5.72637 5.88831C6.80967 5.29189 7.74407 4.45821 8.45965 3.44964C8.50651 3.38399 8.56584 3.32822 8.63425 3.2855C8.70267 3.24278 8.77882 3.21395 8.85838 3.20066C8.93793 3.18737 9.01933 3.18989 9.09791 3.20805C9.17649 3.22622 9.25073 3.25969 9.31638 3.30655C9.38203 3.35341 9.43781 3.41273 9.48053 3.48115C9.52325 3.54956 9.55207 3.62572 9.56536 3.70528C9.57865 3.78483 9.57614 3.86622 9.55797 3.94481C9.5398 4.02339 9.50633 4.09763 9.45947 4.16328C8.66233 5.29339 7.62235 6.23076 6.41579 6.90665C6.59971 6.9518 6.76524 7.05254 6.88985 7.19516C7.01446 7.33777 7.09208 7.51532 7.11216 7.70364C7.13224 7.89195 7.09378 8.08188 7.00204 8.24756C6.9103 8.41323 6.76972 8.54661 6.59945 8.62952C6.42918 8.71244 6.2375 8.74086 6.0505 8.71092C5.8635 8.68098 5.69027 8.59413 5.5544 8.4622C5.41853 8.33027 5.32662 8.15967 5.29119 7.97364C5.25576 7.7876 5.27853 7.59516 5.35639 7.42252C3.94437 7.99429 2.4176 8.22571 0.899567 8.09808C0.773037 8.08112 0.654936 8.02515 0.561689 7.93796C0.468443 7.85077 0.404686 7.73668 0.379286 7.61157C0.353886 7.48646 0.368105 7.35655 0.419965 7.2399C0.471826 7.12324 0.558751 7.02565 0.66865 6.96069C1.03992 6.53945 1.31619 6.04325 1.4787 5.50579C2.28016 3.60625 3.4937 0.73575 7.73128 0.73575C9.17719 0.732325 10.5777 1.2406 11.6848 2.17061C12.792 3.10061 13.5344 4.39235 13.7806 5.81716C14.1714 5.98055 14.5052 6.25577 14.7401 6.60825C14.9751 6.96074 15.1006 7.37478 15.101 7.79838C15.0999 8.30872 14.9136 8.8013 14.5765 9.1845C14.5808 9.20047 14.5919 9.21336 14.5949 9.23056L15.0549 11.8787ZM5.27471 12.9817C4.30329 12.4612 3.47274 11.7126 2.85438 10.8003C2.80176 10.7208 2.73036 10.6554 2.6465 10.61C2.56263 10.5646 2.46888 10.5405 2.37351 10.5399H2.36307C2.22861 10.5427 2.09931 10.5922 1.99726 10.6798C1.89521 10.7674 1.82675 10.8877 1.80358 11.0202L1.61934 12.0882C1.57324 12.3527 1.58553 12.6242 1.65535 12.8835C1.72517 13.1428 1.85084 13.3837 2.02354 13.5893C2.19625 13.795 2.41182 13.9604 2.65517 14.074C2.89851 14.1875 3.16374 14.2466 3.43229 14.2469H5.27471V12.9817ZM13.8451 12.0882L13.4594 9.86927C13.3426 9.89711 13.2236 9.91478 13.1038 9.92208C12.4842 11.2295 11.4623 12.3043 10.1878 12.9891V14.2469H12.0303C12.2989 14.2468 12.5643 14.188 12.8078 14.0746C13.0513 13.9612 13.2671 13.7958 13.44 13.5902C13.6129 13.3846 13.7387 13.1437 13.8087 12.8843C13.8787 12.625 13.8911 12.3528 13.8451 12.0882Z" fill="white"/>
</g>
<defs>
<clipPath id="clip0_2568_129">
<rect width="14.7394" height="14.7394" fill="white" transform="translate(0.361328 0.735725)"/>
</clipPath>
</defs>
</svg>
