<svg width="19" height="20" viewBox="0 0 19 20" fill="none" xmlns="http://www.w3.org/2000/svg">
<g clip-path="url(#clip0_2568_125)">
<path d="M14.6544 4.00214H14.2669L12.6007 1.84158C12.386 1.56526 12.1112 1.34143 11.7971 1.18704C11.483 1.03266 11.138 0.951769 10.788 0.9505L7.84015 0.9505C7.4902 0.951769 7.14513 1.03266 6.83107 1.18704C6.51702 1.34143 6.24221 1.56526 6.02748 1.84158L4.36128 4.00214H3.97372C2.96242 4.00335 1.99288 4.40563 1.27777 5.12073C0.562668 5.83583 0.160391 6.80537 0.15918 7.81668L0.15918 15.4458C0.160391 16.4571 0.562668 17.4266 1.27777 18.1417C1.99288 18.8568 2.96242 19.2591 3.97372 19.2603H14.6544C15.6658 19.2591 16.6353 18.8568 17.3504 18.1417C18.0655 17.4266 18.4678 16.4571 18.469 15.4458V7.81668C18.4678 6.80537 18.0655 5.83583 17.3504 5.12073C16.6353 4.40563 15.6658 4.00335 14.6544 4.00214ZM7.23592 2.77385C7.30739 2.68158 7.39895 2.60682 7.50365 2.55527C7.60836 2.50371 7.72344 2.47671 7.84015 2.47632H10.788C10.9047 2.47682 11.0198 2.50387 11.1244 2.55542C11.2291 2.60697 11.3207 2.68167 11.3923 2.77385L12.3398 4.00214H6.28839L7.23592 2.77385ZM16.9432 15.4458C16.9432 16.0528 16.702 16.6349 16.2728 17.0641C15.8436 17.4934 15.2615 17.7345 14.6544 17.7345H3.97372C3.36672 17.7345 2.78457 17.4934 2.35535 17.0641C1.92613 16.6349 1.685 16.0528 1.685 15.4458V7.81668C1.685 7.20967 1.92613 6.62753 2.35535 6.19831C2.78457 5.76909 3.36672 5.52795 3.97372 5.52795H14.6544C15.2615 5.52795 15.8436 5.76909 16.2728 6.19831C16.702 6.62753 16.9432 7.20967 16.9432 7.81668V15.4458Z" fill="black"/>
<path d="M9.31378 7.05377C8.40845 7.05377 7.52345 7.32224 6.77069 7.82521C6.01793 8.32819 5.43122 9.04309 5.08477 9.87951C4.73831 10.7159 4.64766 11.6363 4.82428 12.5242C5.00091 13.4122 5.43687 14.2278 6.07704 14.868C6.7172 15.5081 7.53283 15.9441 8.42077 16.1207C9.30871 16.2973 10.2291 16.2067 11.0655 15.8602C11.9019 15.5138 12.6168 14.9271 13.1198 14.1743C13.6228 13.4216 13.8912 12.5366 13.8912 11.6312C13.89 10.4176 13.4074 9.25399 12.5492 8.39582C11.691 7.53764 10.5274 7.05498 9.31378 7.05377ZM9.31378 14.6829C8.71023 14.6829 8.12023 14.5039 7.61839 14.1686C7.11655 13.8332 6.72541 13.3566 6.49444 12.799C6.26347 12.2414 6.20304 11.6278 6.32078 11.0359C6.43853 10.4439 6.72917 9.90017 7.15595 9.47339C7.58273 9.04661 8.12648 8.75597 8.71844 8.63823C9.3104 8.52048 9.92398 8.58091 10.4816 8.81188C11.0392 9.04285 11.5158 9.43399 11.8511 9.93583C12.1864 10.4377 12.3654 11.0277 12.3654 11.6312C12.3654 12.4406 12.0439 13.2168 11.4716 13.7891C10.8993 14.3614 10.1231 14.6829 9.31378 14.6829Z" fill="black"/>
</g>
<defs>
<clipPath id="clip0_2568_125">
<rect width="18.3098" height="18.3098" fill="white" transform="translate(0.15918 0.9505)"/>
</clipPath>
</defs>
</svg>
