<svg width="21" height="21" viewBox="0 0 21 21" fill="none" xmlns="http://www.w3.org/2000/svg">
<path d="M16.604 5.19105C16.1073 2.30855 14.2823 0.97522 12.569 0.97522V2.64189C13.5473 2.64189 14.534 3.52939 14.9106 5.24105C13.7803 5.47138 12.7641 6.08483 12.0338 6.97775C11.3035 7.87068 10.9038 8.98834 10.9023 10.1419C10.9023 12.2252 8.91896 13.4752 7.00146 13.4752C4.10896 13.4752 3.14479 11.1419 2.84646 9.18355L2.73563 8.47522H1.19979L1.07479 9.15772C0.81724 10.5265 0.848476 11.9341 1.1665 13.2901C1.48452 14.6462 2.08232 15.9208 2.92159 17.0324C3.76085 18.144 4.82308 19.068 6.0402 19.7452C7.25732 20.4225 8.60249 20.838 9.98951 20.9651C11.3765 21.0922 12.7748 20.9282 14.0948 20.4836C15.4147 20.0389 16.6273 19.3234 17.6546 18.3829C18.682 17.4424 19.5016 16.2977 20.0608 15.0221C20.6201 13.7464 20.9067 12.3681 20.9023 10.9752V10.1419C20.9008 8.93775 20.4655 7.77446 19.676 6.8652C18.8866 5.95594 17.796 5.36158 16.604 5.19105ZM17.8865 7.46439C17.659 7.77752 17.3606 8.03237 17.0157 8.20809C16.6709 8.38381 16.2893 8.47542 15.9023 8.47542C15.5152 8.47542 15.1337 8.38381 14.7888 8.20809C14.444 8.03237 14.1456 7.77752 13.9181 7.46439C14.4922 7.03909 15.1878 6.80952 15.9023 6.80952C16.6168 6.80952 17.3123 7.03909 17.8865 7.46439ZM19.2356 10.9752C19.2363 12.9685 18.5225 14.896 17.2237 16.4081C15.9249 17.9201 14.1271 18.9166 12.1565 19.2166C10.1859 19.5166 8.17307 19.1003 6.48314 18.0432C4.7932 16.9862 3.53813 15.3584 2.94563 13.4552C3.46224 14.0094 4.09145 14.4466 4.79099 14.7375C5.49054 15.0284 6.24423 15.1663 7.00146 15.1419C10.1231 15.1419 12.569 12.9452 12.569 10.1419C12.5686 9.67656 12.666 9.21635 12.8548 8.79105C13.2404 9.21639 13.7107 9.55631 14.2356 9.78893C14.7605 10.0216 15.3282 10.1417 15.9023 10.1417C16.4764 10.1417 17.0441 10.0216 17.569 9.78893C18.0939 9.55631 18.5642 9.21639 18.9498 8.79105C19.1386 9.21635 19.236 9.67656 19.2356 10.1419V10.9752Z" fill="white"/>
</svg>
