<svg width="21" height="20" viewBox="0 0 21 20" fill="none" xmlns="http://www.w3.org/2000/svg">
<g clip-path="url(#clip0_354_8941)">
<path d="M14.25 0C10.745 0 8 1.6475 8 3.75V5.90583C7.5975 5.85833 7.17917 5.83333 6.75 5.83333C3.245 5.83333 0.5 7.48083 0.5 9.58333V16.25C0.5 18.3525 3.245 20 6.75 20C9.58917 20 11.93 18.9192 12.7167 17.3908C13.215 17.4633 13.7283 17.5 14.25 17.5C17.755 17.5 20.5 15.8525 20.5 13.75V3.75C20.5 1.6475 17.755 0 14.25 0ZM18.8333 10.4167C18.8333 11.4 16.8733 12.5 14.25 12.5C13.8233 12.5 13.405 12.4708 13 12.4142V10.7608C13.4083 10.8083 13.8267 10.8333 14.25 10.8333C16.0783 10.8333 17.7 10.385 18.8333 9.6575V10.4167ZM2.16667 12.1575C3.3 12.885 4.92167 13.3333 6.75 13.3333C8.57833 13.3333 10.2 12.885 11.3333 12.1575V12.9167C11.3333 13.9 9.37333 15 6.75 15C4.12667 15 2.16667 13.9 2.16667 12.9167V12.1575ZM18.8333 7.08333C18.8333 8.06667 16.8733 9.16667 14.25 9.16667C13.8042 9.16667 13.3667 9.135 12.945 9.07333C12.7842 8.33417 12.2783 7.67 11.5233 7.1375C12.3433 7.37083 13.2667 7.5 14.25 7.5C16.0783 7.5 17.7 7.05167 18.8333 6.32417V7.08333ZM14.25 1.66667C16.8733 1.66667 18.8333 2.76667 18.8333 3.75C18.8333 4.73333 16.8733 5.83333 14.25 5.83333C11.6267 5.83333 9.66667 4.73333 9.66667 3.75C9.66667 2.76667 11.6267 1.66667 14.25 1.66667ZM6.75 7.5C9.37333 7.5 11.3333 8.6 11.3333 9.58333C11.3333 10.5667 9.37333 11.6667 6.75 11.6667C4.12667 11.6667 2.16667 10.5667 2.16667 9.58333C2.16667 8.6 4.12667 7.5 6.75 7.5ZM6.75 18.3333C4.12667 18.3333 2.16667 17.2333 2.16667 16.25V15.4908C3.3 16.2183 4.92167 16.6667 6.75 16.6667C8.57833 16.6667 10.2 16.2183 11.3333 15.4908V16.25C11.3333 17.2333 9.37333 18.3333 6.75 18.3333ZM14.25 15.8333C13.8233 15.8333 13.405 15.8042 13 15.7475V14.0942C13.4083 14.1417 13.8267 14.1667 14.25 14.1667C16.0783 14.1667 17.7 13.7183 18.8333 12.9908V13.75C18.8333 14.7333 16.8733 15.8333 14.25 15.8333Z" fill="#F95D5D"/>
</g>
<defs>
<clipPath id="clip0_354_8941">
<rect width="20" height="20" fill="white" transform="translate(0.5)"/>
</clipPath>
</defs>
</svg>
