<svg width="20" height="20" viewBox="0 0 20 20" fill="none" xmlns="http://www.w3.org/2000/svg">
<g clip-path="url(#clip0_349_9411)">
<path d="M19.29 4.75L16.9 1.5225C16.5631 1.05205 16.1189 0.668582 15.6044 0.403832C15.0898 0.139082 14.5196 0.000654771 13.9409 1.72328e-06H6.05921C5.48505 -0.000557747 4.91896 0.135116 4.40744 0.395876C3.89591 0.656636 3.45355 1.03504 3.11671 1.5L0.666708 4.7675C0.213581 5.4038 -0.0216718 6.16955 -0.00395021 6.9505C0.0137714 7.73146 0.283518 8.48575 0.765042 9.10084L7.77421 18.925C8.03952 19.2611 8.37775 19.5326 8.76335 19.7188C9.14895 19.905 9.57183 20.0012 10 20C10.4382 19.9989 10.8703 19.8968 11.2627 19.7017C11.655 19.5066 11.9972 19.2237 12.2625 18.875L19.1792 9.20084C19.6881 8.57602 19.975 7.79992 19.9951 6.99436C20.0152 6.18879 19.7672 5.39937 19.29 4.75ZM2.68921 6.23917L5.13421 2.97584C5.23954 2.82878 5.37837 2.70892 5.53923 2.62617C5.70008 2.54343 5.87832 2.50018 6.05921 2.5H8.05171L6.81838 6.81834L6.88921 7.08334H13.1109L13.1817 6.81834L11.9484 2.5H13.9409C14.1252 2.50113 14.3066 2.54653 14.4698 2.63238C14.6329 2.71823 14.773 2.84203 14.8784 2.99334L17.2775 6.235C17.3641 6.35654 17.425 6.49444 17.4566 6.64029C17.4881 6.78615 17.4895 6.93689 17.4609 7.08334H13.1109L10.4275 17.1458L10.2667 17.3717C10.2351 17.4122 10.1947 17.4448 10.1484 17.4671C10.1021 17.4893 10.0514 17.5006 10 17.5C9.9167 17.5042 9.83494 17.4761 9.77171 17.4217L9.57088 17.1408L6.88921 7.08334H2.53421C2.50147 6.93947 2.49833 6.79045 2.52498 6.64533C2.55163 6.50021 2.6075 6.36202 2.68921 6.23917Z" fill="white"/>
</g>
<defs>
<clipPath id="clip0_349_9411">
<rect width="20" height="20" fill="white"/>
</clipPath>
</defs>
</svg>
