<svg width="21" height="20" viewBox="0 0 21 20" fill="none" xmlns="http://www.w3.org/2000/svg">
<path d="M12.3879 10.9054C12.149 10.9054 11.9156 10.8346 11.717 10.7019C11.5184 10.5692 11.3637 10.3807 11.2723 10.16C11.1809 9.93937 11.157 9.69658 11.2036 9.46235C11.2502 9.22812 11.3652 9.01296 11.534 8.84409C11.7029 8.67522 11.9181 8.56021 12.1523 8.51362C12.3865 8.46703 12.6293 8.49094 12.8499 8.58234C13.0706 8.67373 13.2592 8.8285 13.3919 9.02707C13.5245 9.22564 13.5954 9.4591 13.5954 9.69792C13.5954 10.0182 13.4681 10.3253 13.2417 10.5518C13.0152 10.7782 12.7081 10.9054 12.3879 10.9054ZM19.975 15.0463C20.0754 15.6245 20.0483 16.2176 19.8954 16.7842C19.7425 17.3507 19.4675 17.877 19.0898 18.3261C18.7121 18.7752 18.2408 19.1363 17.7088 19.3841C17.1769 19.6318 16.5972 19.7603 16.0104 19.7604H12.7904C12.5769 19.7604 12.3721 19.6756 12.2211 19.5246C12.0702 19.3737 11.9854 19.1689 11.9854 18.9554V17.1337C11.4598 17.2723 10.9188 17.3434 10.3754 17.3454C9.83157 17.3426 9.29042 17.2696 8.76536 17.1281V18.9554C8.76536 19.1689 8.68054 19.3737 8.52958 19.5246C8.37861 19.6756 8.17386 19.7604 7.96036 19.7604H4.74036C4.15354 19.7603 3.57384 19.6318 3.04189 19.3841C2.50994 19.1363 2.0386 18.7752 1.66089 18.3261C1.28318 17.877 1.00825 17.3507 0.855344 16.7842C0.70244 16.2176 0.675269 15.6245 0.775733 15.0463L1.01723 13.6456C1.09754 13.1798 1.31556 12.7487 1.64319 12.4079C1.97081 12.0671 2.39302 11.8323 2.85536 11.7337C3.3177 11.6351 3.79897 11.6773 4.23711 11.8548C4.67525 12.0323 5.05017 12.337 5.31352 12.7296C6.33104 14.2252 8.2896 15.7354 10.3754 15.7354C12.895 15.7354 15.3776 13.4983 16.115 11.4077C16.1742 11.2506 16.2797 11.1151 16.4175 11.0192C16.5554 10.9234 16.7191 10.8716 16.887 10.8708L17.2348 10.8764C17.3906 10.8784 17.5453 10.8493 17.6899 10.7909C17.8344 10.7325 17.9659 10.6459 18.0766 10.5363C18.1874 10.4266 18.2753 10.296 18.3352 10.1521C18.395 10.0082 18.4257 9.8538 18.4254 9.69792C18.4251 9.41558 18.3259 9.14227 18.145 8.92549C17.9641 8.70871 17.7129 8.56217 17.4352 8.51135C17.2639 8.48028 17.1073 8.39454 16.9889 8.26696C16.8705 8.13939 16.7966 7.97687 16.7783 7.80376C16.6129 6.22216 15.8665 4.75822 14.6836 3.69537C13.5007 2.63252 11.9656 2.04638 10.3754 2.05042C5.88587 2.05042 4.65342 4.97096 3.66327 7.31834C3.48295 7.74258 3.31309 8.14749 3.13036 8.51216C4.74904 8.42656 6.32741 7.97603 7.74737 7.19425C9.16733 6.41248 10.3921 5.31971 11.3301 3.99772C11.3915 3.91167 11.4693 3.83855 11.5589 3.78256C11.6486 3.72656 11.7485 3.68878 11.8527 3.67136C11.957 3.65394 12.0637 3.65723 12.1667 3.68105C12.2697 3.70486 12.367 3.74873 12.4531 3.81015C12.5391 3.87157 12.6122 3.94934 12.6682 4.03901C12.7242 4.12869 12.762 4.22852 12.7794 4.33279C12.7968 4.43707 12.7935 4.54376 12.7697 4.64676C12.7459 4.74977 12.702 4.84708 12.6406 4.93313C11.5958 6.41446 10.2326 7.64314 8.65105 8.52906C8.89213 8.58825 9.1091 8.7203 9.27244 8.90723C9.43577 9.09417 9.53752 9.3269 9.56383 9.57374C9.59015 9.82058 9.53974 10.0695 9.41949 10.2867C9.29923 10.5039 9.11497 10.6787 8.89179 10.7874C8.66861 10.896 8.41735 10.9333 8.17224 10.894C7.92712 10.8548 7.70006 10.741 7.52196 10.568C7.34387 10.3951 7.2234 10.1715 7.17696 9.92764C7.13051 9.68379 7.16036 9.43155 7.26242 9.20526C5.41158 9.95471 3.41034 10.2581 1.42054 10.0908C1.25468 10.0685 1.09988 9.99517 0.977656 9.88088C0.855431 9.76659 0.771861 9.61705 0.738567 9.45306C0.705273 9.28907 0.723911 9.11878 0.791889 8.96588C0.859866 8.81297 0.973805 8.68505 1.11786 8.5999C1.60451 8.04776 1.96664 7.39735 2.17965 6.69286C3.23018 4.20299 4.82086 0.440422 10.3754 0.440422C12.2706 0.435932 14.1064 1.10217 15.5576 2.32119C17.0088 3.54022 17.9819 5.2334 18.3046 7.10099C18.8169 7.31516 19.2545 7.67591 19.5624 8.13794C19.8703 8.59997 20.0349 9.14268 20.0354 9.69792C20.034 10.3669 19.7897 11.0125 19.3479 11.5148C19.3535 11.5357 19.368 11.5526 19.372 11.5752L19.975 15.0463ZM7.15536 16.4921C5.88205 15.8098 4.79338 14.8286 3.98285 13.6328C3.91388 13.5285 3.82029 13.4428 3.71036 13.3833C3.60044 13.3238 3.47755 13.2922 3.35254 13.2914H3.33885C3.16261 13.2951 2.99312 13.36 2.85936 13.4748C2.7256 13.5896 2.63587 13.7473 2.6055 13.921L2.364 15.3208C2.30357 15.6676 2.31968 16.0234 2.4112 16.3633C2.50272 16.7032 2.66744 17.019 2.89381 17.2885C3.12019 17.5581 3.40276 17.7749 3.72173 17.9238C4.0407 18.0727 4.38836 18.15 4.74036 18.1504H7.15536V16.4921ZM18.3891 15.3208L17.8836 12.4124C17.7305 12.4489 17.5746 12.472 17.4175 12.4816C16.6053 14.1954 15.2659 15.6042 13.5954 16.5018V18.1504H16.0104C16.3625 18.1503 16.7103 18.0733 17.0295 17.9246C17.3487 17.7759 17.6316 17.5592 17.8582 17.2897C18.0848 17.0202 18.2498 16.7044 18.3415 16.3645C18.4332 16.0245 18.4495 15.6678 18.3891 15.3208Z" fill="black"/>
</svg>
