<svg width="20" height="20" viewBox="0 0 20 20" fill="none" xmlns="http://www.w3.org/2000/svg">
<g clip-path="url(#clip0_181_8340)">
<path d="M11.6715 10.8051C11.4327 10.8051 11.1993 10.7343 11.0007 10.6016C10.8021 10.4689 10.6474 10.2803 10.556 10.0597C10.4646 9.83906 10.4407 9.59627 10.4873 9.36204C10.5338 9.12781 10.6488 8.91265 10.8177 8.74378C10.9866 8.57491 11.2017 8.4599 11.436 8.41331C11.6702 8.36672 11.913 8.39063 12.1336 8.48203C12.3543 8.57342 12.5429 8.72819 12.6755 8.92676C12.8082 9.12533 12.879 9.35879 12.879 9.59761C12.879 9.91786 12.7518 10.225 12.5254 10.4514C12.2989 10.6779 11.9918 10.8051 11.6715 10.8051ZM19.2587 14.946C19.3591 15.5242 19.332 16.1173 19.1791 16.6839C19.0262 17.2504 18.7512 17.7767 18.3735 18.2258C17.9958 18.6749 17.5245 19.036 16.9925 19.2838C16.4606 19.5315 15.8809 19.66 15.294 19.6601H12.074C11.8605 19.6601 11.6558 19.5753 11.5048 19.4243C11.3539 19.2734 11.269 19.0686 11.269 18.8551V17.0334C10.7435 17.172 10.2025 17.2431 9.65905 17.2451C9.11526 17.2423 8.57411 17.1693 8.04905 17.0278V18.8551C8.04905 19.0686 7.96424 19.2734 7.81327 19.4243C7.6623 19.5753 7.45755 19.6601 7.24405 19.6601H4.02405C3.43723 19.66 2.85753 19.5315 2.32558 19.2838C1.79363 19.036 1.32229 18.6749 0.944583 18.2258C0.566876 17.7767 0.291939 17.2504 0.139035 16.6839C-0.0138682 16.1173 -0.0410398 15.5242 0.0594241 14.946L0.300924 13.5453C0.381229 13.0795 0.599252 12.6483 0.926878 12.3076C1.2545 11.9668 1.67671 11.7319 2.13905 11.6334C2.60139 11.5348 3.08266 11.577 3.5208 11.7545C3.95894 11.932 4.33386 12.2367 4.59721 12.6292C5.61473 14.1249 7.57329 15.6351 9.65905 15.6351C12.1787 15.6351 14.6613 13.398 15.3987 11.3074C15.4579 11.1503 15.5634 11.0148 15.7012 10.9189C15.8391 10.8231 16.0028 10.7713 16.1707 10.7705L16.5185 10.7761C16.6743 10.7781 16.829 10.749 16.9735 10.6906C17.1181 10.6322 17.2495 10.5456 17.3603 10.436C17.4711 10.3263 17.559 10.1957 17.6189 10.0518C17.6787 9.90788 17.7094 9.75349 17.709 9.59761C17.7088 9.31527 17.6096 9.04196 17.4287 8.82518C17.2478 8.6084 16.9966 8.46186 16.7189 8.41104C16.5476 8.37997 16.391 8.29422 16.2726 8.16665C16.1542 8.03908 16.0803 7.87655 16.062 7.70345C15.8966 6.12185 15.1501 4.65791 13.9673 3.59506C12.7844 2.53221 11.2493 1.94606 9.65905 1.95011C5.16956 1.95011 3.93711 4.87065 2.94696 7.21803C2.76664 7.64226 2.59678 8.04718 2.41405 8.41185C4.03273 8.32625 5.6111 7.87571 7.03106 7.09394C8.45103 6.31217 9.67581 5.2194 10.6138 3.89741C10.6752 3.81135 10.753 3.73824 10.8426 3.68225C10.9323 3.62625 11.0321 3.58846 11.1364 3.57105C11.2407 3.55363 11.3474 3.55692 11.4504 3.58074C11.5534 3.60455 11.6507 3.64842 11.7368 3.70984C11.8228 3.77126 11.8959 3.84903 11.9519 3.9387C12.0079 4.02838 12.0457 4.1282 12.0631 4.23248C12.0805 4.33676 12.0772 4.44345 12.0534 4.54645C12.0296 4.64946 11.9857 4.74676 11.9243 4.83282C10.8794 6.31415 9.51627 7.54282 7.93474 8.42875C8.17582 8.48794 8.39279 8.61999 8.55613 8.80692C8.71946 8.99386 8.82121 9.22659 8.84752 9.47343C8.87384 9.72026 8.82344 9.96922 8.70318 10.1864C8.58293 10.4035 8.39866 10.5784 8.17548 10.687C7.9523 10.7957 7.70104 10.833 7.45593 10.7937C7.21081 10.7545 6.98375 10.6407 6.80565 10.4677C6.62756 10.2948 6.50709 10.0712 6.46065 9.82733C6.41421 9.58348 6.44405 9.33123 6.54611 9.10495C4.69527 9.8544 2.69403 10.1577 0.704229 9.99045C0.538376 9.96822 0.383573 9.89486 0.261348 9.78057C0.139123 9.66628 0.0555522 9.51674 0.0222583 9.35275C-0.0110356 9.18876 0.00760236 9.01847 0.0755801 8.86556C0.143558 8.71266 0.257496 8.58474 0.401549 8.49959C0.888197 7.94745 1.25033 7.29704 1.46334 6.59255C2.51387 4.10268 4.10455 0.34011 9.65905 0.34011C11.5543 0.335621 13.39 1.00186 14.8413 2.22088C16.2925 3.43991 17.2656 5.13309 17.5883 7.00068C18.1006 7.21484 18.5382 7.57559 18.8461 8.03763C19.154 8.49966 19.3185 9.04237 19.319 9.59761C19.3177 10.2665 19.0734 10.9122 18.6316 11.4145C18.6372 11.4354 18.6517 11.4523 18.6557 11.4749L19.2587 14.946ZM6.43905 16.3918C5.16574 15.7095 4.07708 14.7283 3.26654 13.5325C3.19757 13.4282 3.10398 13.3425 2.99406 13.283C2.88413 13.2235 2.76124 13.1919 2.63623 13.1911H2.62254C2.4463 13.1948 2.27681 13.2596 2.14305 13.3745C2.00929 13.4893 1.91956 13.647 1.88919 13.8206L1.64769 15.2205C1.58726 15.5673 1.60337 15.9231 1.69489 16.263C1.78641 16.6029 1.95113 16.9187 2.17751 17.1882C2.40388 17.4578 2.68645 17.6746 3.00542 17.8235C3.32439 17.9724 3.67205 18.0497 4.02405 18.0501H6.43905V16.3918ZM17.6728 15.2205L17.1673 12.3121C17.0142 12.3486 16.8583 12.3717 16.7012 12.3813C15.889 14.0951 14.5496 15.5038 12.879 16.4015V18.0501H15.294C15.6462 18.05 15.994 17.973 16.3132 17.8243C16.6324 17.6756 16.9152 17.4589 17.1419 17.1894C17.3685 16.9199 17.5335 16.6041 17.6252 16.2641C17.7169 15.9242 17.7332 15.5675 17.6728 15.2205Z" fill="#F95D5D"/>
</g>
<defs>
<clipPath id="clip0_181_8340">
<rect width="19.32" height="19.32" fill="white" transform="translate(0 0.340088)"/>
</clipPath>
</defs>
</svg>
