<svg width="21" height="24" viewBox="0 0 21 24" fill="none" xmlns="http://www.w3.org/2000/svg">
<path d="M15.5 0H5.5C4.17441 0.00158786 2.90356 0.528882 1.96622 1.46622C1.02888 2.40356 0.501588 3.67441 0.5 5V19C0.501588 20.3256 1.02888 21.5964 1.96622 22.5338C2.90356 23.4711 4.17441 23.9984 5.5 24H15.5C16.8256 23.9984 18.0964 23.4711 19.0338 22.5338C19.9711 21.5964 20.4984 20.3256 20.5 19V5C20.4984 3.67441 19.9711 2.40356 19.0338 1.46622C18.0964 0.528882 16.8256 0.00158786 15.5 0ZM5.5 2H15.5C16.2956 2 17.0587 2.31607 17.6213 2.87868C18.1839 3.44129 18.5 4.20435 18.5 5V17H2.5V5C2.5 4.20435 2.81607 3.44129 3.37868 2.87868C3.94129 2.31607 4.70435 2 5.5 2ZM15.5 22H5.5C4.70435 22 3.94129 21.6839 3.37868 21.1213C2.81607 20.5587 2.5 19.7956 2.5 19H9.5V20C9.5 20.2652 9.60536 20.5196 9.79289 20.7071C9.98043 20.8946 10.2348 21 10.5 21C10.7652 21 11.0196 20.8946 11.2071 20.7071C11.3946 20.5196 11.5 20.2652 11.5 20V19H18.5C18.5 19.7956 18.1839 20.5587 17.6213 21.1213C17.0587 21.6839 16.2956 22 15.5 22Z" fill="black"/>
</svg>
