<svg width="66" height="66" viewBox="0 0 66 66" fill="none" xmlns="http://www.w3.org/2000/svg">
<path d="M33 66C26.4732 66 20.093 64.0646 14.6662 60.4385C9.23937 56.8124 5.00968 51.6585 2.51199 45.6286C0.0142984 39.5986 -0.639212 32.9634 0.634101 26.562C1.90741 20.1607 5.05036 14.2806 9.66549 9.66549C14.2806 5.05036 20.1607 1.90741 26.562 0.634101C32.9634 -0.639212 39.5986 0.0142984 45.6286 2.51199C51.6585 5.00968 56.8124 9.23937 60.4385 14.6662C64.0646 20.093 66 26.4732 66 33C65.9906 41.7493 62.5107 50.1374 56.3241 56.3241C50.1374 62.5107 41.7493 65.9906 33 66ZM33 5.50002C27.561 5.50002 22.2442 7.11286 17.7218 10.1346C13.1995 13.1563 9.67474 17.4513 7.59333 22.4762C5.51192 27.5012 4.96733 33.0305 6.02842 38.365C7.08951 43.6995 9.70863 48.5995 13.5546 52.4455C17.4005 56.2914 22.3006 58.9105 27.635 59.9716C32.9695 61.0327 38.4988 60.4881 43.5238 58.4067C48.5488 56.3253 52.8437 52.8005 55.8654 48.2782C58.8872 43.7558 60.5 38.439 60.5 33C60.492 25.709 57.5921 18.7189 52.4366 13.5634C47.2811 8.40791 40.291 5.50802 33 5.50002Z" fill="#F95D5D"/>
<path d="M35.75 13.75H30.25V41.25H35.75V13.75Z" fill="#F95D5D"/>
<path d="M35.75 46.75H30.25V52.25H35.75V46.75Z" fill="#F95D5D"/>
</svg>
