<svg width="25" height="25" viewBox="0 0 25 25" fill="none" xmlns="http://www.w3.org/2000/svg">
<g clip-path="url(#clip0_315_7809)">
<path d="M24.3209 11.4443C23.4429 9.52431 19.9999 3.26331 12.4999 3.26331C4.99987 3.26331 1.55687 9.52431 0.678871 11.4443C0.56101 11.7016 0.5 11.9813 0.5 12.2643C0.5 12.5473 0.56101 12.827 0.678871 13.0843C1.55687 15.0023 4.99987 21.2633 12.4999 21.2633C19.9999 21.2633 23.4429 15.0023 24.3209 13.0823C24.4385 12.8253 24.4994 12.546 24.4994 12.2633C24.4994 11.9807 24.4385 11.7013 24.3209 11.4443ZM12.4999 19.2633C6.19287 19.2633 3.24987 13.8973 2.49987 12.2743C3.24987 10.6293 6.19287 5.26331 12.4999 5.26331C18.7919 5.26331 21.7359 10.6063 22.4999 12.2633C21.7359 13.9203 18.7919 19.2633 12.4999 19.2633Z" fill="#F95D5D"/>
<path d="M12.5 7.26331C11.5111 7.26331 10.5444 7.55655 9.72215 8.10596C8.89991 8.65536 8.25904 9.43626 7.8806 10.3499C7.50217 11.2635 7.40315 12.2689 7.59608 13.2388C7.789 14.2087 8.26521 15.0996 8.96447 15.7988C9.66373 16.4981 10.5546 16.9743 11.5246 17.1672C12.4945 17.3602 13.4998 17.2611 14.4134 16.8827C15.327 16.5043 16.1079 15.8634 16.6574 15.0412C17.2068 14.2189 17.5 13.2522 17.5 12.2633C17.4984 10.9377 16.9711 9.66686 16.0338 8.72953C15.0964 7.79219 13.8256 7.26489 12.5 7.26331ZM12.5 15.2633C11.9067 15.2633 11.3266 15.0874 10.8333 14.7577C10.3399 14.4281 9.95543 13.9595 9.72836 13.4114C9.5013 12.8632 9.44189 12.26 9.55765 11.678C9.6734 11.0961 9.95912 10.5615 10.3787 10.142C10.7982 9.72243 11.3328 9.43671 11.9147 9.32095C12.4967 9.20519 13.0999 9.2646 13.6481 9.49167C14.1962 9.71873 14.6648 10.1032 14.9944 10.5966C15.3241 11.0899 15.5 11.67 15.5 12.2633C15.5 13.059 15.1839 13.822 14.6213 14.3846C14.0587 14.9472 13.2957 15.2633 12.5 15.2633Z" fill="#F95D5D"/>
</g>
<defs>
<clipPath id="clip0_315_7809">
<rect width="24" height="24" fill="white" transform="translate(0.5 0.263306)"/>
</clipPath>
</defs>
</svg>
