<svg width="63" height="62" viewBox="0 0 63 62" fill="none" xmlns="http://www.w3.org/2000/svg">
<rect x="0.5" width="62" height="62" rx="31" fill="#F95D5D"/>
<mask id="mask0_253_3249" style="mask-type:alpha" maskUnits="userSpaceOnUse" x="15" y="15" width="33" height="32">
<rect x="15.5" y="15" width="32" height="32" fill="#0E0E0E"/>
</mask>
<g mask="url(#mask0_253_3249)">
<path d="M27.5013 36.3333C28.2346 36.3333 28.8624 36.0722 29.3846 35.55C29.9069 35.0277 30.168 34.4 30.168 33.6666C30.168 32.9333 29.9069 32.3055 29.3846 31.7833C28.8624 31.2611 28.2346 31 27.5013 31C26.768 31 26.1402 31.2611 25.618 31.7833C25.0957 32.3055 24.8346 32.9333 24.8346 33.6666C24.8346 34.4 25.0957 35.0277 25.618 35.55C26.1402 36.0722 26.768 36.3333 27.5013 36.3333ZM35.5013 36.3333C36.2346 36.3333 36.8624 36.0722 37.3846 35.55C37.9069 35.0277 38.168 34.4 38.168 33.6666C38.168 32.9333 37.9069 32.3055 37.3846 31.7833C36.8624 31.2611 36.2346 31 35.5013 31C34.768 31 34.1402 31.2611 33.618 31.7833C33.0957 32.3055 32.8346 32.9333 32.8346 33.6666C32.8346 34.4 33.0957 35.0277 33.618 35.55C34.1402 36.0722 34.768 36.3333 35.5013 36.3333ZM31.5013 29.6666C32.2346 29.6666 32.8624 29.4055 33.3846 28.8833C33.9069 28.3611 34.168 27.7333 34.168 27C34.168 26.2666 33.9069 25.6388 33.3846 25.1166C32.8624 24.5944 32.2346 24.3333 31.5013 24.3333C30.768 24.3333 30.1402 24.5944 29.618 25.1166C29.0957 25.6388 28.8346 26.2666 28.8346 27C28.8346 27.7333 29.0957 28.3611 29.618 28.8833C30.1402 29.4055 30.768 29.6666 31.5013 29.6666ZM31.5013 44.3333C29.6569 44.3333 27.9235 43.9833 26.3013 43.2833C24.6791 42.5833 23.268 41.6333 22.068 40.4333C20.868 39.2333 19.918 37.8222 19.218 36.2C18.518 34.5777 18.168 32.8444 18.168 31C18.168 29.1555 18.518 27.4222 19.218 25.8C19.918 24.1777 20.868 22.7666 22.068 21.5666C23.268 20.3666 24.6791 19.4166 26.3013 18.7166C27.9235 18.0166 29.6569 17.6666 31.5013 17.6666C33.3457 17.6666 35.0791 18.0166 36.7013 18.7166C38.3235 19.4166 39.7346 20.3666 40.9346 21.5666C42.1346 22.7666 43.0846 24.1777 43.7846 25.8C44.4846 27.4222 44.8346 29.1555 44.8346 31C44.8346 32.8444 44.4846 34.5777 43.7846 36.2C43.0846 37.8222 42.1346 39.2333 40.9346 40.4333C39.7346 41.6333 38.3235 42.5833 36.7013 43.2833C35.0791 43.9833 33.3457 44.3333 31.5013 44.3333ZM31.5013 41.6666C34.4791 41.6666 37.0013 40.6333 39.068 38.5666C41.1346 36.5 42.168 33.9777 42.168 31C42.168 28.0222 41.1346 25.5 39.068 23.4333C37.0013 21.3666 34.4791 20.3333 31.5013 20.3333C28.5235 20.3333 26.0013 21.3666 23.9346 23.4333C21.868 25.5 20.8346 28.0222 20.8346 31C20.8346 33.9777 21.868 36.5 23.9346 38.5666C26.0013 40.6333 28.5235 41.6666 31.5013 41.6666Z" fill="white"/>
</g>
</svg>
