<svg width="21" height="21" viewBox="0 0 21 21" fill="none" xmlns="http://www.w3.org/2000/svg">
<path d="M18.95 20.875L16 17.925V20.15H14V14.5H19.65V16.5H17.4L20.35 19.45L18.95 20.875ZM10 20.5C8.61667 20.5 7.31667 20.2375 6.1 19.7125C4.88333 19.1875 3.825 18.475 2.925 17.575C2.025 16.675 1.3125 15.6167 0.7875 14.4C0.2625 13.1833 0 11.8833 0 10.5C0 9.11667 0.2625 7.81667 0.7875 6.6C1.3125 5.38333 2.025 4.325 2.925 3.425C3.825 2.525 4.88333 1.8125 6.1 1.2875C7.31667 0.7625 8.61667 0.5 10 0.5C11.3833 0.5 12.6833 0.7625 13.9 1.2875C15.1167 1.8125 16.175 2.525 17.075 3.425C17.975 4.325 18.6875 5.38333 19.2125 6.6C19.7375 7.81667 20 9.11667 20 10.5C20 10.8333 19.9833 11.1667 19.95 11.5C19.9167 11.8333 19.8667 12.1667 19.8 12.5H17.75C17.8333 12.1667 17.8958 11.8333 17.9375 11.5C17.9792 11.1667 18 10.8333 18 10.5C18 10.1667 17.9792 9.83333 17.9375 9.5C17.8958 9.16667 17.8333 8.83333 17.75 8.5H14.35C14.4 8.83333 14.4375 9.16667 14.4625 9.5C14.4875 9.83333 14.5 10.1667 14.5 10.5C14.5 10.8333 14.4875 11.1667 14.4625 11.5C14.4375 11.8333 14.4 12.1667 14.35 12.5H12.35C12.4 12.1667 12.4375 11.8333 12.4625 11.5C12.4875 11.1667 12.5 10.8333 12.5 10.5C12.5 10.1667 12.4875 9.83333 12.4625 9.5C12.4375 9.16667 12.4 8.83333 12.35 8.5H7.65C7.6 8.83333 7.5625 9.16667 7.5375 9.5C7.5125 9.83333 7.5 10.1667 7.5 10.5C7.5 10.8333 7.5125 11.1667 7.5375 11.5C7.5625 11.8333 7.6 12.1667 7.65 12.5H11V14.5H8.1C8.3 15.2167 8.55833 15.9042 8.875 16.5625C9.19167 17.2208 9.56667 17.85 10 18.45C10.3333 18.45 10.6667 18.4292 11 18.3875C11.3333 18.3458 11.6667 18.3083 12 18.275V20.325C11.6667 20.3583 11.3333 20.3958 11 20.4375C10.6667 20.4792 10.3333 20.5 10 20.5ZM2.25 12.5H5.65C5.6 12.1667 5.5625 11.8333 5.5375 11.5C5.5125 11.1667 5.5 10.8333 5.5 10.5C5.5 10.1667 5.5125 9.83333 5.5375 9.5C5.5625 9.16667 5.6 8.83333 5.65 8.5H2.25C2.16667 8.83333 2.10417 9.16667 2.0625 9.5C2.02083 9.83333 2 10.1667 2 10.5C2 10.8333 2.02083 11.1667 2.0625 11.5C2.10417 11.8333 2.16667 12.1667 2.25 12.5ZM3.1 6.5H6.05C6.2 5.88333 6.3875 5.27917 6.6125 4.6875C6.8375 4.09583 7.1 3.51667 7.4 2.95C6.48333 3.25 5.65833 3.70417 4.925 4.3125C4.19167 4.92083 3.58333 5.65 3.1 6.5ZM7.4 18.05C7.1 17.4833 6.8375 16.9042 6.6125 16.3125C6.3875 15.7208 6.2 15.1167 6.05 14.5H3.1C3.58333 15.35 4.19167 16.0792 4.925 16.6875C5.65833 17.2958 6.48333 17.75 7.4 18.05ZM8.1 6.5H11.9C11.7 5.78333 11.4417 5.09583 11.125 4.4375C10.8083 3.77917 10.4333 3.15 10 2.55C9.56667 3.15 9.19167 3.77917 8.875 4.4375C8.55833 5.09583 8.3 5.78333 8.1 6.5ZM13.95 6.5H16.9C16.4167 5.65 15.8083 4.92083 15.075 4.3125C14.3417 3.70417 13.5167 3.25 12.6 2.95C12.9 3.51667 13.1625 4.09583 13.3875 4.6875C13.6125 5.27917 13.8 5.88333 13.95 6.5Z" fill="#F95D5D"/>
</svg>
