<svg width="15" height="14" viewBox="0 0 15 14" fill="none" xmlns="http://www.w3.org/2000/svg">
<path d="M7.5 13.545L6.485 12.635C5.30667 11.5733 4.3325 10.6575 3.5625 9.88745C2.7925 9.11745 2.18 8.4262 1.725 7.8137C1.27 7.2012 0.952083 6.63828 0.77125 6.12495C0.590417 5.61162 0.5 5.08662 0.5 4.54995C0.5 3.45328 0.8675 2.53745 1.6025 1.80245C2.3375 1.06745 3.25333 0.699951 4.35 0.699951C4.95667 0.699951 5.53417 0.828285 6.0825 1.08495C6.63083 1.34162 7.10333 1.70328 7.5 2.16995C7.89667 1.70328 8.36917 1.34162 8.9175 1.08495C9.46583 0.828285 10.0433 0.699951 10.65 0.699951C11.7467 0.699951 12.6625 1.06745 13.3975 1.80245C14.1325 2.53745 14.5 3.45328 14.5 4.54995C14.5 5.08662 14.4096 5.61162 14.2288 6.12495C14.0479 6.63828 13.73 7.2012 13.275 7.8137C12.82 8.4262 12.2075 9.11745 11.4375 9.88745C10.6675 10.6575 9.69333 11.5733 8.515 12.635L7.5 13.545ZM7.5 11.655C8.62 10.6516 9.54167 9.7912 10.265 9.0737C10.9883 8.3562 11.56 7.73203 11.98 7.2012C12.4 6.67037 12.6917 6.19787 12.855 5.7837C13.0183 5.36953 13.1 4.95828 13.1 4.54995C13.1 3.84995 12.8667 3.26662 12.4 2.79995C11.9333 2.33328 11.35 2.09995 10.65 2.09995C10.1017 2.09995 9.59417 2.25453 9.1275 2.5637C8.66083 2.87287 8.34 3.26662 8.165 3.74495H6.835C6.66 3.26662 6.33917 2.87287 5.8725 2.5637C5.40583 2.25453 4.89833 2.09995 4.35 2.09995C3.65 2.09995 3.06667 2.33328 2.6 2.79995C2.13333 3.26662 1.9 3.84995 1.9 4.54995C1.9 4.95828 1.98167 5.36953 2.145 5.7837C2.30833 6.19787 2.6 6.67037 3.02 7.2012C3.44 7.73203 4.01167 8.3562 4.735 9.0737C5.45833 9.7912 6.38 10.6516 7.5 11.655Z" fill="white"/>
</svg>
