<svg width="155" height="33" viewBox="0 0 155 33" fill="none" xmlns="http://www.w3.org/2000/svg">
<path d="M22.8194 0.5H26.6167V30.4032H23.1425V25.3637C22.2263 27.1533 20.8278 28.52 18.9424 29.4683C17.0835 30.4165 14.9016 30.8884 12.4011 30.8884C8.6834 30.8884 5.68271 29.9001 3.39458 27.9235C1.133 25.9469 0 23.2223 0 19.7588C0 16.2952 1.133 13.5707 3.39458 11.594C5.68271 9.61742 8.6834 8.6291 12.4011 8.6291C17.3845 8.6291 20.8543 10.2807 22.8194 13.584V0.5ZM13.4101 27.9235C16.3444 27.9235 18.6724 27.18 20.3985 25.6887C22.1201 24.1973 22.9831 22.2206 22.9831 19.7588C22.9831 17.2969 22.1201 15.3158 20.3985 13.8289C18.6768 12.3375 16.3444 11.594 13.4101 11.594C10.4758 11.594 8.10362 12.3375 6.38199 13.8289C4.66036 15.3203 3.79733 17.2969 3.79733 19.7588C3.79733 22.2206 4.66036 24.2017 6.38199 25.6887C8.10362 27.18 10.4493 27.9235 13.4101 27.9235ZM56.7519 20.3687V20.8584H33.9325C34.2025 23.2401 35.2381 25.0565 37.0439 26.303C38.8496 27.5495 41.2041 28.1728 44.1118 28.1728C46.1566 28.1728 47.9092 27.8612 49.3608 27.2379C50.8435 26.6146 51.9189 25.7732 52.5917 24.7181L56.2651 24.8829C55.5127 26.7794 54.0831 28.2529 51.9853 29.3125C49.9096 30.3676 47.2851 30.8973 44.1074 30.8973C39.7746 30.8973 36.3534 29.9624 33.8484 28.0927C31.3434 26.1962 30.0909 23.4227 30.0909 19.7632C30.0909 16.1038 31.3302 13.3703 33.8086 11.4738C36.3136 9.57735 39.6108 8.6291 43.7047 8.6291C47.7985 8.6291 51.1223 9.60406 53.3573 11.554C55.6189 13.4772 56.7519 16.4154 56.7519 20.3687ZM43.7091 11.3492C41.0182 11.3492 38.7965 11.9457 37.0439 13.1388C35.3222 14.3319 34.2954 16.0771 33.9724 18.3787H52.9546C52.8484 16.2106 51.9588 14.5056 50.2902 13.259C48.6483 11.9858 46.4531 11.3492 43.7047 11.3492H43.7091Z" fill="white"/>
<path d="M95.7741 15.0442C95.4776 13.8511 94.5481 12.943 92.9858 12.3242C91.4235 11.6742 89.4718 11.3492 87.1305 11.3492C85.1124 11.3492 83.5235 11.6208 82.3639 12.1639C81.2309 12.6803 80.6689 13.4104 80.6689 14.3587C80.6689 15.7922 82.2046 16.8517 85.2717 17.5284L92.26 18.9485C94.8712 19.4917 96.8097 20.2218 98.0755 21.1433C99.3678 22.0648 100.014 23.2846 100.014 24.7983C100.014 26.8016 98.9916 28.3197 96.9425 29.3481C94.8978 30.3765 91.9325 30.8929 88.0555 30.8929C80.4874 30.8929 76.4511 28.7115 75.9377 24.3531L79.4916 24.2329C79.9784 26.8595 82.926 28.1728 88.3388 28.1728C90.8172 28.1728 92.7424 27.9012 94.1144 27.3581C95.513 26.7883 96.2122 25.9914 96.2122 24.963C96.2122 24.2329 95.7962 23.6096 94.9597 23.0932C94.1233 22.5768 92.7778 22.1183 90.919 21.7131L83.6873 20.2084C79.111 19.2602 76.8229 17.3503 76.8229 14.4789C76.8229 12.4755 77.7523 10.9975 79.6111 10.0492C81.4965 9.101 84.0679 8.6291 87.3253 8.6291C90.7464 8.6291 93.5169 9.15888 95.6457 10.214C97.8011 11.2423 99.0403 12.8139 99.3634 14.9285L95.7697 15.0487L95.7741 15.0442ZM103.046 5.69978V1.02977H107.126V5.69978H103.046ZM103.165 30.4032V9.11436H107.002V30.4032H103.165ZM124.449 8.62465C125.365 8.62465 126.454 8.71814 127.719 8.90957V12.3642C126.263 12.1995 125.042 12.1194 124.046 12.1194C118.474 12.1194 115.686 15.4226 115.686 22.0337V30.4032H111.849L111.888 9.11436H115.402V14.7638C116.155 12.7871 117.301 11.2691 118.837 10.214C120.399 9.15888 122.271 8.6291 124.449 8.6291V8.62465ZM155 20.3687V20.8584H132.181C132.451 23.2401 133.486 25.0565 135.292 26.303C137.098 27.5495 139.452 28.1728 142.36 28.1728C144.405 28.1728 146.157 27.8612 147.609 27.2379C149.092 26.6146 150.167 25.7732 150.84 24.7181L154.513 24.8829C153.761 26.7794 152.331 28.2529 150.233 29.3125C148.162 30.3676 145.533 30.8973 142.36 30.8973C138.023 30.8973 134.606 29.9624 132.101 28.0927C129.596 26.1962 128.343 23.4227 128.343 19.7632C128.343 16.1038 129.583 13.3703 132.061 11.4738C134.566 9.57735 137.863 8.6291 141.957 8.6291C146.051 8.6291 149.375 9.60406 151.61 11.554C153.871 13.4772 155.004 16.4154 155.004 20.3687H155ZM141.953 11.3492C139.262 11.3492 137.04 11.9457 135.288 13.1388C133.566 14.3319 132.544 16.0771 132.22 18.3787H151.203C151.096 16.2106 150.207 14.5056 148.538 13.259C146.896 11.9858 144.701 11.3492 141.953 11.3492Z" fill="white"/>
<path fill-rule="evenodd" clip-rule="evenodd" d="M57.2874 7.41375H52.2996L64.7449 19.9324L52.2996 32.5H57.2874L69.7327 19.9324L57.2874 7.41375ZM67.2189 25.1411L74.4905 32.5045H79.4783L69.6885 22.6569L67.2189 25.1411ZM74.4905 7.41375H79.4783L69.6885 17.2613L67.2189 14.7771L74.4905 7.41375Z" fill="white"/>
</svg>
