<svg width="17" height="16" viewBox="0 0 17 16" fill="none" xmlns="http://www.w3.org/2000/svg">
<g clip-path="url(#clip0_71_6839)">
<path d="M8.49599 1.0641C7.26935 1.06228 6.06347 1.38064 4.99756 1.98769C3.93166 2.59475 3.04264 3.46948 2.4184 4.52541C1.79416 5.58134 1.45632 6.78191 1.43826 8.00842C1.42021 9.23494 1.72257 10.4449 2.31546 11.5188L1.46461 14.3549C1.43591 14.4507 1.43 14.5519 1.44735 14.6504C1.4647 14.7489 1.50484 14.842 1.56456 14.9222C1.62428 15.0025 1.70193 15.0676 1.7913 15.1125C1.88068 15.1574 1.97931 15.1808 2.07933 15.1808C2.1419 15.1807 2.20413 15.1716 2.26413 15.1538L5.10029 14.303C6.0437 14.8233 7.09371 15.1208 8.16985 15.1726C9.246 15.2244 10.3197 15.0292 11.3087 14.6018C12.2978 14.1745 13.1759 13.5265 13.8757 12.7073C14.5755 11.8882 15.0786 10.9197 15.3463 9.87608C15.6139 8.83247 15.6392 7.74143 15.42 6.68656C15.2008 5.6317 14.7431 4.64101 14.0818 3.7904C13.4206 2.9398 12.5734 2.25185 11.6052 1.77929C10.6369 1.30672 9.57339 1.06208 8.49599 1.0641ZM8.49599 13.8974C7.44392 13.896 6.41236 13.6062 5.51353 13.0594C5.41296 12.999 5.29784 12.967 5.1805 12.967C5.11811 12.9667 5.05604 12.9758 4.99634 12.994L3.03669 13.5824L3.62446 11.6221C3.64998 11.5367 3.65745 11.447 3.6464 11.3587C3.63535 11.2703 3.60603 11.1852 3.56029 11.1087C2.90147 10.017 2.62284 8.73781 2.76794 7.47098C2.91304 6.20414 3.47371 5.02106 4.36233 4.10658C5.25095 3.1921 6.41746 2.59774 7.67961 2.41637C8.94176 2.23499 10.2284 2.47682 11.3386 3.10407C12.4488 3.73132 13.3199 4.70866 13.8159 5.88337C14.3118 7.05807 14.4047 8.36399 14.0799 9.59705C13.7552 10.8301 13.0311 11.9209 12.0209 12.6989C11.0106 13.4769 9.77111 13.8984 8.49599 13.8974Z" fill="#F95D5D"/>
</g>
<defs>
<clipPath id="clip0_71_6839">
<rect width="15.4" height="15.4" fill="white" transform="translate(0.796875 0.422485)"/>
</clipPath>
</defs>
</svg>
