<svg width="25" height="24" viewBox="0 0 25 24" fill="none" xmlns="http://www.w3.org/2000/svg">
<g clip-path="url(#clip0_354_11953)">
<path d="M24.5 12C24.5 10.374 23.786 8.84 22.575 7.876C22.715 6.254 22.135 4.665 20.985 3.514C19.835 2.365 18.251 1.783 16.708 1.959C15.66 0.714 14.126 0 12.5 0C10.874 0 9.34 0.714 8.376 1.925C6.752 1.785 5.164 2.364 4.014 3.515C2.864 4.665 2.285 6.255 2.459 7.792C1.214 8.84 0.5 10.374 0.5 12C0.5 13.626 1.214 15.16 2.425 16.124C2.285 17.746 2.865 19.336 4.015 20.486C5.165 21.637 6.759 22.218 8.292 22.041C9.34 23.286 10.874 24 12.5 24C14.126 24 15.66 23.286 16.624 22.075C18.242 22.214 19.834 21.636 20.985 20.485C22.134 19.335 22.714 17.745 22.54 16.208C23.786 15.16 24.5 13.626 24.5 12ZM21.253 14.678C20.774 15.081 20.529 15.671 20.583 16.295C20.671 17.328 20.303 18.34 19.571 19.071C18.839 19.803 17.829 20.17 16.795 20.083C16.169 20.032 15.582 20.274 15.179 20.753C14.511 21.546 13.535 22.001 12.5 22.001C11.465 22.001 10.489 21.546 9.821 20.753C9.454 20.318 8.934 20.077 8.374 20.077C8.318 20.077 8.261 20.079 8.205 20.084C7.178 20.173 6.161 19.804 5.429 19.072C4.698 18.34 4.329 17.328 4.418 16.296C4.471 15.672 4.228 15.084 3.748 14.679C2.955 14.012 2.5 13.035 2.5 12.001C2.5 10.967 2.955 9.99 3.748 9.322C4.227 8.918 4.471 8.329 4.417 7.705C4.329 6.673 4.697 5.661 5.429 4.929C6.161 4.198 7.173 3.832 8.205 3.918C8.826 3.967 9.417 3.727 9.822 3.248C10.489 2.455 11.466 2 12.5 2C13.534 2 14.511 2.455 15.179 3.248C15.582 3.726 16.17 3.974 16.796 3.917C17.821 3.833 18.839 4.197 19.571 4.929C20.302 5.66 20.671 6.673 20.583 7.705C20.529 8.329 20.773 8.918 21.253 9.322C22.045 9.989 22.5 10.966 22.5 12C22.5 13.034 22.045 14.011 21.253 14.678ZM16.5 14C16.5 15.654 15.154 17 13.5 17V18C13.5 18.552 13.052 19 12.5 19C11.948 19 11.5 18.552 11.5 18V17H11.232C10.164 17 9.169 16.426 8.634 15.501C8.358 15.023 8.521 14.412 8.999 14.135C9.476 13.858 10.088 14.022 10.365 14.5C10.543 14.808 10.876 15 11.232 15H13.5C14.052 15 14.5 14.551 14.5 14C14.5 13.622 14.229 13.302 13.856 13.24L10.814 12.733C9.473 12.51 8.499 11.36 8.499 10C8.499 8.346 9.845 7 11.499 7V6C11.499 5.448 11.947 5 12.499 5C13.051 5 13.499 5.448 13.499 6V7H13.767C14.834 7 15.83 7.575 16.365 8.5C16.642 8.978 16.478 9.589 16.001 9.866C15.521 10.142 14.909 9.979 14.635 9.501C14.456 9.192 14.124 9.001 13.768 9.001H11.5C10.949 9.001 10.5 9.45 10.5 10.001C10.5 10.379 10.771 10.699 11.144 10.761L14.185 11.268C15.527 11.491 16.5 12.641 16.5 14.001V14Z" fill="black"/>
</g>
<defs>
<clipPath id="clip0_354_11953">
<rect width="24" height="24" fill="white" transform="translate(0.5)"/>
</clipPath>
</defs>
</svg>
