<svg width="19" height="22" viewBox="0 0 19 22" fill="none" xmlns="http://www.w3.org/2000/svg">
<path d="M16.7 12.0924V8.19317C16.7 6.20967 15.9414 4.3074 14.5912 2.90485C13.2409 1.5023 11.4096 0.714355 9.50004 0.714355C7.59049 0.714355 5.75914 1.5023 4.40889 2.90485C3.05863 4.3074 2.30007 6.20967 2.30007 8.19317V12.0906C1.92349 12.2252 1.58235 12.4493 1.30377 12.745C1.0471 13.0033 0.843539 13.3131 0.705399 13.6555C0.56726 13.9979 0.49741 14.3659 0.500073 14.7371C0.500073 15.4809 0.784536 16.1943 1.29088 16.7203C1.79723 17.2462 2.48398 17.5417 3.20006 17.5417H5.09005C5.29662 18.5983 5.84851 19.5483 6.65222 20.2307C7.45592 20.913 8.46202 21.2858 9.50004 21.2858C10.5381 21.2858 11.5441 20.913 12.3479 20.2307C13.1516 19.5483 13.7035 18.5983 13.91 17.5417H15.8C16.515 17.538 17.1997 17.2413 17.7053 16.7162C18.2108 16.191 18.4965 15.4798 18.5 14.7371C18.4993 14.1573 18.326 13.5918 18.0037 13.1183C17.6814 12.6448 17.2261 12.2865 16.7 12.0924ZM9.50004 19.4114C8.94179 19.4107 8.39743 19.2306 7.94159 18.8959C7.48576 18.5611 7.14077 18.0881 6.95395 17.5417H12.0461C11.8593 18.0881 11.5143 18.5611 11.0585 18.8959C10.6026 19.2306 10.0583 19.4107 9.50004 19.4114ZM16.4237 15.4037C16.3424 15.4896 16.2453 15.5577 16.1382 15.6038C16.031 15.6499 15.916 15.6731 15.8 15.672H3.20006C2.96137 15.672 2.73245 15.5735 2.56367 15.3982C2.39489 15.2229 2.30007 14.9851 2.30007 14.7371C2.29983 14.6123 2.32423 14.4888 2.37175 14.3741C2.41927 14.2595 2.48891 14.1562 2.57636 14.0706C2.65764 13.9846 2.75475 13.9166 2.86191 13.8705C2.96907 13.8244 3.08408 13.8012 3.20006 13.8023C3.43876 13.8023 3.66767 13.7038 3.83646 13.5285C4.00524 13.3532 4.10006 13.1154 4.10006 12.8674V8.19317C4.10006 7.45657 4.23973 6.72719 4.51111 6.04666C4.78248 5.36613 5.18024 4.74778 5.68168 4.22693C6.18311 3.70608 6.7784 3.29291 7.43355 3.01103C8.08871 2.72914 8.7909 2.58406 9.50004 2.58406C10.2092 2.58406 10.9114 2.72914 11.5665 3.01103C12.2217 3.29291 12.817 3.70608 13.3184 4.22693C13.8198 4.74778 14.2176 5.36613 14.489 6.04666C14.7603 6.72719 14.9 7.45657 14.9 8.19317V12.8674C14.9 13.1154 14.9948 13.3532 15.1636 13.5285C15.3324 13.7038 15.5613 13.8023 15.8 13.8023C16.0387 13.8023 16.2676 13.9008 16.4364 14.0761C16.6052 14.2514 16.7 14.4892 16.7 14.7371C16.7002 14.862 16.6758 14.9855 16.6283 15.1001C16.5808 15.2148 16.5112 15.3181 16.4237 15.4037Z" fill="white"/>
</svg>
