<svg width="16" height="18" viewBox="0 0 16 18" fill="none" xmlns="http://www.w3.org/2000/svg">
<path d="M0.417969 17.6V14.5666H15.5848V17.6H0.417969ZM3.45133 11.5333H4.51301L10.4281 5.63718L9.34744 4.55654L3.45133 10.4716V11.5333ZM1.93465 13.05V9.82702L10.4281 1.35255C10.5671 1.21352 10.7283 1.10609 10.9115 1.03026C11.0948 0.954421 11.2875 0.916504 11.4898 0.916504C11.692 0.916504 11.8879 0.954421 12.0775 1.03026C12.2671 1.10609 12.4377 1.21984 12.5893 1.37151L13.6321 2.43319C13.7837 2.57222 13.8943 2.73652 13.9638 2.92611C14.0334 3.11569 14.0681 3.3116 14.0681 3.51382C14.0681 3.70341 14.0334 3.88983 13.9638 4.0731C13.8943 4.25637 13.7837 4.42383 13.6321 4.5755L5.1576 13.05H1.93465Z" fill="white"/>
</svg>
