<svg width="15" height="16" viewBox="0 0 15 16" fill="none" xmlns="http://www.w3.org/2000/svg">
<path d="M13.2885 11.136C12.322 10.3093 11.3411 9.80851 10.3864 10.634L9.81631 11.1328C9.39922 11.495 8.62373 13.1871 5.62541 9.73796C2.62771 6.2932 4.41159 5.75685 4.82931 5.39782L5.4025 4.89831C6.3522 4.07099 5.9938 3.02951 5.30884 1.95743L4.89549 1.30807C4.20742 0.238486 3.45815 -0.463953 2.50595 0.362115L1.99146 0.811676C1.57062 1.11825 0.394265 2.11478 0.108919 4.00793C-0.234496 6.27946 0.848822 8.88067 3.33077 11.7348C5.8096 14.5901 8.23661 16.0243 10.5356 15.9993C12.4462 15.9787 13.6001 14.9535 13.961 14.5807L14.4774 14.1305C15.4271 13.3051 14.837 12.4647 13.8699 11.6361L13.2885 11.136Z" fill="#F95D5D"/>
</svg>
