<svg width="16" height="16" viewBox="0 0 16 16" fill="none" xmlns="http://www.w3.org/2000/svg">
<g clip-path="url(#clip0_2568_139)">
<path d="M12.3353 3.69262C11.9564 1.49353 10.5641 0.476318 9.25701 0.476318V1.74783C10.0034 1.74783 10.7561 2.42491 11.0435 3.73076C10.1812 3.90648 9.40592 4.37448 8.84875 5.05571C8.29159 5.73693 7.98667 6.5896 7.9855 7.46965C7.9855 9.05904 6.47239 10.0127 5.00952 10.0127C2.8028 10.0127 2.06723 8.23256 1.83963 6.73853L1.75507 6.19814H0.583373L0.488009 6.71882C0.291519 7.76311 0.315349 8.83692 0.557972 9.87147C0.800596 10.906 1.25666 11.8785 1.89695 12.7265C2.53723 13.5745 3.34761 14.2795 4.27616 14.7961C5.20471 15.3128 6.23095 15.6298 7.28913 15.7268C8.3473 15.8238 9.41407 15.6986 10.4211 15.3594C11.4281 15.0202 12.3531 14.4743 13.1369 13.7568C13.9207 13.0393 14.546 12.166 14.9726 11.1928C15.3993 10.2196 15.6179 9.16801 15.6146 8.10541V7.46965C15.6135 6.551 15.2813 5.66352 14.6791 4.96984C14.0768 4.27615 13.2447 3.82271 12.3353 3.69262ZM13.3138 5.42696C13.1402 5.66585 12.9126 5.86028 12.6495 5.99434C12.3864 6.1284 12.0953 6.19828 11.8 6.19828C11.5048 6.19828 11.2137 6.1284 10.9506 5.99434C10.6875 5.86028 10.4599 5.66585 10.2863 5.42696C10.7243 5.1025 11.255 4.92736 11.8 4.92736C12.3451 4.92736 12.8758 5.1025 13.3138 5.42696ZM14.3431 8.10541C14.3436 9.62611 13.799 11.0966 12.8082 12.2502C11.8173 13.4037 10.4457 14.1639 8.94235 14.3928C7.43897 14.6217 5.90335 14.3041 4.61408 13.4977C3.32481 12.6912 2.36731 11.4494 1.91528 9.99742C2.30942 10.4202 2.78944 10.7538 3.32313 10.9757C3.85682 11.1976 4.43182 11.3028 5.00952 11.2842C7.39106 11.2842 9.25701 9.60834 9.25701 7.46965C9.25673 7.11465 9.33102 6.76355 9.47508 6.43909C9.76924 6.76358 10.1281 7.02291 10.5285 7.20038C10.9289 7.37785 11.3621 7.46953 11.8 7.46953C12.238 7.46953 12.6712 7.37785 13.0716 7.20038C13.472 7.02291 13.8308 6.76358 14.125 6.43909C14.2691 6.76355 14.3434 7.11465 14.3431 7.46965V8.10541Z" fill="white"/>
</g>
<defs>
<clipPath id="clip0_2568_139">
<rect width="15.2582" height="15.2582" fill="white" transform="translate(0.356445 0.476318)"/>
</clipPath>
</defs>
</svg>
