<svg width="70" height="71" viewBox="0 0 70 71" fill="none" xmlns="http://www.w3.org/2000/svg">
<path d="M26.0921 51.0217L50.1858 35.4575L26.0921 19.8933V51.0217ZM34.697 70.0447C29.9356 70.0447 25.4611 69.1367 21.2733 67.3209C17.0856 65.5051 13.4429 63.0408 10.3451 59.9279C7.24732 56.8151 4.79492 53.1546 2.98789 48.9465C1.18086 44.7384 0.277344 40.2421 0.277344 35.4575C0.277344 30.673 1.18086 26.1766 2.98789 21.9685C4.79492 17.7604 7.24732 14.0999 10.3451 10.9871C13.4429 7.87426 17.0856 5.40992 21.2733 3.5941C25.4611 1.77827 29.9356 0.870361 34.697 0.870361C39.4584 0.870361 43.9329 1.77827 48.1207 3.5941C52.3084 5.40992 55.9511 7.87426 59.0489 10.9871C62.1467 14.0999 64.5991 17.7604 66.4061 21.9685C68.2131 26.1766 69.1167 30.673 69.1167 35.4575C69.1167 40.2421 68.2131 44.7384 66.4061 48.9465C64.5991 53.1546 62.1467 56.8151 59.0489 59.9279C55.9511 63.0408 52.3084 65.5051 48.1207 67.3209C43.9329 69.1367 39.4584 70.0447 34.697 70.0447ZM34.697 63.1272C42.3841 63.1272 48.8951 60.4467 54.2302 55.0857C59.5652 49.7247 62.2327 43.182 62.2327 35.4575C62.2327 27.733 59.5652 21.1903 54.2302 15.8293C48.8951 10.4683 42.3841 7.78779 34.697 7.78779C27.0099 7.78779 20.4989 10.4683 15.1638 15.8293C9.8288 21.1903 7.16127 27.733 7.16127 35.4575C7.16127 43.182 9.8288 49.7247 15.1638 55.0857C20.4989 60.4467 27.0099 63.1272 34.697 63.1272Z" fill="white"/>
</svg>
