<svg width="24" height="25" viewBox="0 0 24 25" fill="none" xmlns="http://www.w3.org/2000/svg">
<path d="M20 14.9504H10V4.95044C10 2.74444 8.206 0.950439 6 0.950439H4C1.794 0.950439 0 2.74444 0 4.95044V19.9504C0 22.7074 2.243 24.9504 5 24.9504H20C22.206 24.9504 24 23.1564 24 20.9504V18.9504C24 16.7444 22.206 14.9504 20 14.9504ZM22 20.9504C22 22.0534 21.103 22.9504 20 22.9504H5C3.346 22.9504 2 21.6044 2 19.9504V4.95044C2 3.84744 2.897 2.95044 4 2.95044H6C7.103 2.95044 8 3.84744 8 4.95044V6.95044H6C5.448 6.95044 5 7.39744 5 7.95044C5 8.50344 5.448 8.95044 6 8.95044H8V10.9504H6C5.448 10.9504 5 11.3974 5 11.9504C5 12.5034 5.448 12.9504 6 12.9504H8V14.9504H6C5.448 14.9504 5 15.3974 5 15.9504C5 16.5034 5.448 16.9504 6 16.9504H8V18.9504C8 19.5034 8.448 19.9504 9 19.9504C9.552 19.9504 10 19.5034 10 18.9504V16.9504H12V18.9504C12 19.5034 12.448 19.9504 13 19.9504C13.552 19.9504 14 19.5034 14 18.9504V16.9504H16V18.9504C16 19.5034 16.447 19.9504 17 19.9504C17.553 19.9504 18 19.5034 18 18.9504V16.9504H20C21.103 16.9504 22 17.8474 22 18.9504V20.9504Z" fill="#F95D5D"/>
</svg>
