<svg width="20" height="20" viewBox="0 0 20 20" fill="none" xmlns="http://www.w3.org/2000/svg">
<path d="M19.236 7.51961C19.0713 6.99548 18.7424 6.53825 18.2977 6.21554C17.8531 5.89283 17.3164 5.72178 16.7671 5.72768H13.25L12.1818 2.3982C12.0138 1.87412 11.6837 1.41692 11.2391 1.09255C10.7945 0.768173 10.2584 0.593384 9.70801 0.593384C9.15766 0.593384 8.62153 0.768173 8.17693 1.09255C7.73233 1.41692 7.40223 1.87412 7.23425 2.3982L6.16601 5.72768H2.64897C2.10136 5.72846 1.56801 5.90228 1.12509 6.22429C0.682165 6.54631 0.352335 7.00006 0.182705 7.52073C0.0130764 8.0414 0.0123256 8.60236 0.18056 9.12349C0.348795 9.64461 0.67741 10.0992 1.11947 10.4224L3.98205 12.5154L2.89369 15.886C2.7178 16.4087 2.71558 16.9743 2.88733 17.4985C3.05909 18.0226 3.39564 18.4772 3.84681 18.7944C4.29024 19.1219 4.82761 19.2973 5.37885 19.2946C5.93008 19.2918 6.46567 19.111 6.90581 18.7792L9.70801 16.7167L12.511 18.7767C12.9537 19.1023 13.4881 19.2792 14.0376 19.2818C14.5871 19.2845 15.1232 19.1129 15.569 18.7916C16.0148 18.4704 16.3472 18.016 16.5185 17.4939C16.6898 16.9718 16.6912 16.4089 16.5223 15.886L15.434 12.5154L18.2998 10.4224C18.7469 10.1033 19.0794 9.64868 19.248 9.12587C19.4166 8.60306 19.4124 8.03985 19.236 7.51961ZM17.3499 9.12237L14.014 11.5607C13.8769 11.6607 13.775 11.8013 13.7227 11.9627C13.6703 12.124 13.6703 12.2977 13.7225 12.4591L14.9904 16.3794C15.0546 16.5783 15.054 16.7923 14.9889 16.9909C14.9237 17.1894 14.7972 17.3621 14.6277 17.4842C14.4582 17.6063 14.2543 17.6715 14.0454 17.6705C13.8364 17.6694 13.6332 17.6021 13.4649 17.4783L10.1846 15.0633C10.0464 14.9618 9.87945 14.9071 9.70801 14.9071C9.53658 14.9071 9.36962 14.9618 9.23145 15.0633L5.95108 17.4783C5.7829 17.6038 5.57912 17.6725 5.36927 17.6744C5.15943 17.6763 4.95444 17.6113 4.78401 17.4889C4.61358 17.3664 4.48658 17.1929 4.42141 16.9934C4.35625 16.7939 4.3563 16.5789 4.42158 16.3794L5.69348 12.4591C5.74574 12.2977 5.7457 12.124 5.69337 11.9627C5.64103 11.8013 5.53909 11.6607 5.40207 11.5607L2.06615 9.12237C1.89815 8.99936 1.77332 8.82641 1.70948 8.62822C1.64565 8.43002 1.64609 8.21673 1.71073 8.01879C1.77536 7.82086 1.9009 7.64842 2.0694 7.5261C2.2379 7.40378 2.44075 7.33783 2.64897 7.33768H6.75447C6.9249 7.33768 7.09093 7.28358 7.22865 7.18318C7.36637 7.08279 7.46867 6.94127 7.52083 6.77901L8.76858 2.89006C8.83262 2.69105 8.95816 2.5175 9.12713 2.39438C9.29609 2.27126 9.49976 2.20493 9.70882 2.20493C9.91788 2.20493 10.1215 2.27126 10.2905 2.39438C10.4595 2.5175 10.585 2.69105 10.6491 2.89006L11.8968 6.77901C11.949 6.94127 12.0513 7.08279 12.189 7.18318C12.3267 7.28358 12.4927 7.33768 12.6632 7.33768H16.7687C16.9769 7.33783 17.1797 7.40378 17.3482 7.5261C17.5167 7.64842 17.6423 7.82086 17.7069 8.01879C17.7715 8.21673 17.772 8.43002 17.7081 8.62822C17.6443 8.82641 17.5195 8.99936 17.3515 9.12237H17.3499Z" fill="black"/>
</svg>
