<svg width="66" height="66" viewBox="0 0 66 66" fill="none" xmlns="http://www.w3.org/2000/svg">
<path d="M32.9988 66C28.5521 66 24.3748 64.053 21.5148 60.72C17.1506 61.061 12.8083 59.4798 9.66234 56.3338C6.51634 53.185 4.94059 48.8565 5.27609 44.4812C1.94309 41.624 -0.00390625 37.4468 -0.00390625 33C-0.00390625 28.5532 1.94309 24.376 5.27609 21.5187C4.94059 17.1435 6.51634 12.8123 9.66234 9.66625C12.8083 6.523 17.1506 4.95825 21.5148 5.28C24.3748 1.947 28.5521 0 32.9988 0C37.4456 0 41.6228 1.947 44.4828 5.28C48.8471 4.95275 53.1921 6.523 56.3353 9.66625C59.4813 12.815 61.0571 17.1435 60.7216 21.5187C64.0546 24.376 66.0016 28.5532 66.0016 33C66.0016 37.4468 64.0546 41.624 60.7216 44.4812C61.0571 48.8565 59.4813 53.1878 56.3353 56.3338C53.1921 59.4798 48.8498 61.061 44.4828 60.72C41.6228 64.053 37.4456 66 32.9988 66ZM23.9953 54.7388L25.0128 56.2485C26.8086 58.9105 29.7951 60.5 32.9988 60.5C36.2026 60.5 39.1891 58.9105 40.9848 56.2485L42.0023 54.7388L43.7871 55.0853C46.9441 55.6985 50.1753 54.7112 52.4413 52.4452C54.7073 50.1765 55.6946 46.9425 55.0813 43.7938L54.7321 42.0062L56.2446 40.9888C58.9066 39.193 60.4961 36.2065 60.4961 33.0028C60.4961 29.799 58.9066 26.8125 56.2446 25.0168L54.7321 23.9993L55.0813 22.2118C55.6946 19.063 54.7073 15.8263 52.4413 13.5603C50.1753 11.2943 46.9413 10.3097 43.7871 10.9202L42.0023 11.2668L40.9848 9.757C39.1891 7.095 36.2026 5.5055 32.9988 5.5055C29.7951 5.5055 26.8086 7.095 25.0128 9.757L23.9953 11.2668L22.2106 10.9202C19.0563 10.3152 15.8223 11.2943 13.5563 13.5603C11.2903 15.829 10.3031 19.063 10.9163 22.2118L11.2656 23.9993L9.75309 25.0168C7.09109 26.8125 5.50159 29.799 5.50159 33.0028C5.50159 36.2065 7.09109 39.193 9.75309 40.9888L11.2656 42.0062L10.9163 43.7938C10.3031 46.9425 11.2903 50.1792 13.5563 52.4452C15.8223 54.7085 19.0508 55.6958 22.2106 55.0853L23.9953 54.7388ZM32.7513 42.405L48.6821 26.7108L44.8211 22.792L28.8463 38.4697L21.1656 31.0255L17.3348 34.9772L24.9853 42.3913C26.0606 43.4665 27.4686 44 28.8793 44C30.2901 44 31.6898 43.4692 32.7513 42.405Z" fill="#F95D5D"/>
</svg>
