<svg width="63" height="62" viewBox="0 0 63 62" fill="none" xmlns="http://www.w3.org/2000/svg">
<rect x="0.332031" width="62" height="62" rx="31" fill="#3951FF"/>
<mask id="mask0_354_11163" style="mask-type:alpha" maskUnits="userSpaceOnUse" x="15" y="15" width="33" height="32">
<rect x="15.332" y="15" width="32" height="32" fill="#0E0E0E"/>
</mask>
<g mask="url(#mask0_354_11163)">
<path d="M27.3333 36.3333C28.0667 36.3333 28.6944 36.0722 29.2167 35.55C29.7389 35.0277 30 34.4 30 33.6666C30 32.9333 29.7389 32.3055 29.2167 31.7833C28.6944 31.2611 28.0667 31 27.3333 31C26.6 31 25.9722 31.2611 25.45 31.7833C24.9278 32.3055 24.6667 32.9333 24.6667 33.6666C24.6667 34.4 24.9278 35.0277 25.45 35.55C25.9722 36.0722 26.6 36.3333 27.3333 36.3333ZM35.3333 36.3333C36.0667 36.3333 36.6944 36.0722 37.2167 35.55C37.7389 35.0277 38 34.4 38 33.6666C38 32.9333 37.7389 32.3055 37.2167 31.7833C36.6944 31.2611 36.0667 31 35.3333 31C34.6 31 33.9722 31.2611 33.45 31.7833C32.9278 32.3055 32.6667 32.9333 32.6667 33.6666C32.6667 34.4 32.9278 35.0277 33.45 35.55C33.9722 36.0722 34.6 36.3333 35.3333 36.3333ZM31.3333 29.6666C32.0667 29.6666 32.6944 29.4055 33.2167 28.8833C33.7389 28.3611 34 27.7333 34 27C34 26.2666 33.7389 25.6388 33.2167 25.1166C32.6944 24.5944 32.0667 24.3333 31.3333 24.3333C30.6 24.3333 29.9722 24.5944 29.45 25.1166C28.9278 25.6388 28.6667 26.2666 28.6667 27C28.6667 27.7333 28.9278 28.3611 29.45 28.8833C29.9722 29.4055 30.6 29.6666 31.3333 29.6666ZM31.3333 44.3333C29.4889 44.3333 27.7556 43.9833 26.1333 43.2833C24.5111 42.5833 23.1 41.6333 21.9 40.4333C20.7 39.2333 19.75 37.8222 19.05 36.2C18.35 34.5777 18 32.8444 18 31C18 29.1555 18.35 27.4222 19.05 25.8C19.75 24.1777 20.7 22.7666 21.9 21.5666C23.1 20.3666 24.5111 19.4166 26.1333 18.7166C27.7556 18.0166 29.4889 17.6666 31.3333 17.6666C33.1778 17.6666 34.9111 18.0166 36.5333 18.7166C38.1556 19.4166 39.5667 20.3666 40.7667 21.5666C41.9667 22.7666 42.9167 24.1777 43.6167 25.8C44.3167 27.4222 44.6667 29.1555 44.6667 31C44.6667 32.8444 44.3167 34.5777 43.6167 36.2C42.9167 37.8222 41.9667 39.2333 40.7667 40.4333C39.5667 41.6333 38.1556 42.5833 36.5333 43.2833C34.9111 43.9833 33.1778 44.3333 31.3333 44.3333ZM31.3333 41.6666C34.3111 41.6666 36.8333 40.6333 38.9 38.5666C40.9667 36.5 42 33.9777 42 31C42 28.0222 40.9667 25.5 38.9 23.4333C36.8333 21.3666 34.3111 20.3333 31.3333 20.3333C28.3556 20.3333 25.8333 21.3666 23.7667 23.4333C21.7 25.5 20.6667 28.0222 20.6667 31C20.6667 33.9777 21.7 36.5 23.7667 38.5666C25.8333 40.6333 28.3556 41.6666 31.3333 41.6666Z" fill="white"/>
</g>
</svg>
