<svg width="17" height="18" viewBox="0 0 17 18" fill="none" xmlns="http://www.w3.org/2000/svg">
<path d="M14.8001 12.6226H13.4V8.42259C13.398 7.24548 12.9725 6.10841 12.2014 5.21905C11.4303 4.32969 10.365 3.74741 9.20003 3.57856V2.82256C9.20003 2.63691 9.12628 2.45886 8.99501 2.32758C8.86373 2.19631 8.68568 2.12256 8.50003 2.12256C8.31438 2.12256 8.13633 2.19631 8.00505 2.32758C7.87378 2.45886 7.80003 2.63691 7.80003 2.82256V3.57856C6.63509 3.74741 5.56978 4.32969 4.79866 5.21905C4.02754 6.10841 3.60209 7.24548 3.60001 8.42259V12.6226H2.2C2.01435 12.6226 1.8363 12.6964 1.70503 12.8276C1.57375 12.9589 1.5 13.137 1.5 13.3226C1.5 13.5083 1.57375 13.6863 1.70503 13.8176C1.8363 13.9489 2.01435 14.0226 2.2 14.0226H5.79942C5.95205 14.6231 6.30045 15.1555 6.78953 15.5358C7.27861 15.9161 7.88048 16.1226 8.50003 16.1226C9.11957 16.1226 9.72145 15.9161 10.2105 15.5358C10.6996 15.1555 11.048 14.6231 11.2006 14.0226H14.8001C14.9857 14.0226 15.1638 13.9489 15.295 13.8176C15.4263 13.6863 15.5001 13.5083 15.5001 13.3226C15.5001 13.137 15.4263 12.9589 15.295 12.8276C15.1638 12.6964 14.9857 12.6226 14.8001 12.6226ZM8.50003 14.7226C8.25539 14.7218 8.01525 14.6568 7.80369 14.5339C7.59214 14.411 7.4166 14.2347 7.29469 14.0226H9.70536C9.58346 14.2347 9.40792 14.411 9.19637 14.5339C8.98481 14.6568 8.74467 14.7218 8.50003 14.7226ZM5.00001 12.6226V8.42259C5.00001 7.49432 5.36877 6.60408 6.02515 5.9477C6.68153 5.29132 7.57177 4.92257 8.50003 4.92257C9.42829 4.92257 10.3185 5.29132 10.9749 5.9477C11.6313 6.60408 12 7.49432 12 8.42259V12.6226H5.00001Z" fill="#F95D5D"/>
</svg>
