<svg width="24" height="24" viewBox="0 0 24 24" fill="none" xmlns="http://www.w3.org/2000/svg">
<g clip-path="url(#clip0_354_19159)">
<path d="M22.7516 10.0009C21.9015 9.44794 20.3493 8.38782 19.5037 7.50402C18.6379 6.59846 16.9423 2.87268 16.0773 0.736694L13.9458 1.59949C14.1919 2.20645 16.3886 7.57529 17.8419 9.09382C18.7977 10.0932 20.3575 11.187 21.4979 11.929C21.6299 12.0153 21.7065 12.1624 21.7012 12.3222C21.666 13.4903 21.3674 15.6233 19.7716 16.7825C18.2763 17.8688 15.901 17.9484 12.7101 17.018L12.0664 19.226C12.8639 19.4586 13.6254 19.6349 14.3502 19.7557V23.1206H16.6497V19.9545C18.4346 19.9455 19.9314 19.5081 21.1228 18.6423C23.5131 16.9055 23.9512 13.9802 24 12.3912C24.0293 11.4361 23.5506 10.5201 22.7516 10.0001V10.0009Z" fill="#F95D5D"/>
<path d="M0 13.6367C0.0307606 13.6727 3.08131 17.3272 3.30564 23.1649L5.60368 23.0764C5.34709 16.4021 1.8929 12.3102 1.74585 12.1399L0 13.6367Z" fill="#F95D5D"/>
</g>
<defs>
<clipPath id="clip0_354_19159">
<rect width="24" height="22.429" fill="white" transform="translate(0 0.735962)"/>
</clipPath>
</defs>
</svg>
