<svg width="10" height="8" viewBox="0 0 10 8" fill="none" xmlns="http://www.w3.org/2000/svg">
<path d="M5.00056 6.35711C5.53627 6.35711 5.99163 6.16961 6.36663 5.79461C6.74163 5.41961 6.92913 4.96425 6.92913 4.42854C6.92913 3.89282 6.74163 3.43747 6.36663 3.06247C5.99163 2.68747 5.53627 2.49997 5.00056 2.49997C4.46484 2.49997 4.00949 2.68747 3.63449 3.06247C3.25949 3.43747 3.07199 3.89282 3.07199 4.42854C3.07199 4.96425 3.25949 5.41961 3.63449 5.79461C4.00949 6.16961 4.46484 6.35711 5.00056 6.35711ZM5.00056 5.49997C4.70056 5.49997 4.44699 5.39639 4.23984 5.18925C4.0327 4.98211 3.92913 4.72854 3.92913 4.42854C3.92913 4.12854 4.0327 3.87497 4.23984 3.66782C4.44699 3.46068 4.70056 3.35711 5.00056 3.35711C5.30056 3.35711 5.55413 3.46068 5.76127 3.66782C5.96842 3.87497 6.07199 4.12854 6.07199 4.42854C6.07199 4.72854 5.96842 4.98211 5.76127 5.18925C5.55413 5.39639 5.30056 5.49997 5.00056 5.49997ZM1.57199 7.85711C1.33627 7.85711 1.13449 7.77318 0.966629 7.60532C0.798772 7.43747 0.714844 7.23568 0.714844 6.99997V1.85711C0.714844 1.62139 0.798772 1.41961 0.966629 1.25175C1.13449 1.08389 1.33627 0.999965 1.57199 0.999965H2.92199L3.71484 0.142822H6.28627L7.07913 0.999965H8.42913C8.66484 0.999965 8.86663 1.08389 9.03449 1.25175C9.20234 1.41961 9.28627 1.62139 9.28627 1.85711V6.99997C9.28627 7.23568 9.20234 7.43747 9.03449 7.60532C8.86663 7.77318 8.66484 7.85711 8.42913 7.85711H1.57199ZM1.57199 6.99997H8.42913V1.85711H6.69341L5.91127 0.999965H4.08984L3.3077 1.85711H1.57199V6.99997Z" fill="white"/>
</svg>
