<svg width="63" height="62" viewBox="0 0 63 62" fill="none" xmlns="http://www.w3.org/2000/svg">
<rect x="0.5" width="62" height="62" rx="31" fill="#F95D5D"/>
<g clip-path="url(#clip0_354_11656)">
<path d="M37.2307 26.0507L39.1027 27.9507L31.3787 35.56C30.8627 36.076 30.184 36.3333 29.5027 36.3333C28.8213 36.3333 28.136 36.0733 27.6147 35.5533L23.9053 31.9587L25.7627 30.0427L29.4867 33.652L37.2307 26.0507ZM47.5 31C47.5 39.8227 40.3227 47 31.5 47C22.6773 47 15.5 39.8227 15.5 31C15.5 22.1773 22.6773 15 31.5 15C40.3227 15 47.5 22.1773 47.5 31ZM44.8333 31C44.8333 23.648 38.852 17.6667 31.5 17.6667C24.148 17.6667 18.1667 23.648 18.1667 31C18.1667 38.352 24.148 44.3333 31.5 44.3333C38.852 44.3333 44.8333 38.352 44.8333 31Z" fill="black"/>
</g>
<defs>
<clipPath id="clip0_354_11656">
<rect width="32" height="32" fill="white" transform="translate(15.5 15)"/>
</clipPath>
</defs>
</svg>
