<svg width="21" height="21" viewBox="0 0 21 21" fill="none" xmlns="http://www.w3.org/2000/svg">
<path d="M16.3264 4.31627C15.8297 1.43377 14.0047 0.100433 12.2914 0.100433V1.7671C13.2697 1.7671 14.2564 2.6546 14.633 4.36627C13.5027 4.59659 12.4866 5.21004 11.7562 6.10297C11.0259 6.99589 10.6262 8.11355 10.6247 9.2671C10.6247 11.3504 8.64137 12.6004 6.72387 12.6004C3.83137 12.6004 2.86721 10.2671 2.56887 8.30877L2.45804 7.60043H0.922206L0.797206 8.28293C0.539652 9.65176 0.570888 11.0593 0.888912 12.4153C1.20694 13.7714 1.80473 15.046 2.644 16.1576C3.48327 17.2692 4.54549 18.1932 5.76261 18.8705C6.97973 19.5477 8.3249 19.9632 9.71193 20.0903C11.099 20.2175 12.4972 20.0534 13.8172 19.6088C15.1372 19.1641 16.3497 18.4486 17.377 17.5081C18.4044 16.5677 19.224 15.4229 19.7832 14.1473C20.3425 12.8717 20.6291 11.4933 20.6247 10.1004V9.2671C20.6232 8.06296 20.1879 6.89968 19.3984 5.99041C18.609 5.08115 17.5184 4.4868 16.3264 4.31627ZM17.6089 6.5896C17.3814 6.90273 17.083 7.15758 16.7382 7.3333C16.3933 7.50902 16.0118 7.60063 15.6247 7.60063C15.2377 7.60063 14.8561 7.50902 14.5113 7.3333C14.1664 7.15758 13.868 6.90273 13.6405 6.5896C14.2147 6.16431 14.9102 5.93474 15.6247 5.93474C16.3392 5.93474 17.0348 6.16431 17.6089 6.5896ZM18.958 10.1004C18.9587 12.0937 18.2449 14.0212 16.9461 15.5333C15.6473 17.0454 13.8495 18.0418 11.8789 18.3418C9.90834 18.6418 7.89549 18.2255 6.20555 17.1685C4.51561 16.1114 3.26054 14.4836 2.66804 12.5804C3.18466 13.1346 3.81386 13.5718 4.51341 13.8627C5.21295 14.1536 5.96664 14.2915 6.72387 14.2671C9.84554 14.2671 12.2914 12.0704 12.2914 9.2671C12.291 8.80177 12.3884 8.34156 12.5772 7.91627C12.9628 8.34161 13.4331 8.68152 13.958 8.91415C14.4829 9.14677 15.0506 9.26695 15.6247 9.26695C16.1988 9.26695 16.7666 9.14677 17.2914 8.91415C17.8163 8.68152 18.2866 8.34161 18.6722 7.91627C18.861 8.34156 18.9584 8.80177 18.958 9.2671V10.1004Z" fill="black"/>
</svg>
