<svg width="24" height="25" viewBox="0 0 24 25" fill="none" xmlns="http://www.w3.org/2000/svg">
<path d="M12 24.9504C5.383 24.9504 0 19.5674 0 12.9504C0 6.33344 5.383 0.950439 12 0.950439C18.617 0.950439 24 6.33344 24 12.9504C24 19.5674 18.617 24.9504 12 24.9504ZM12 2.95044C6.486 2.95044 2 7.43644 2 12.9504C2 18.4644 6.486 22.9504 12 22.9504C17.514 22.9504 22 18.4644 22 12.9504C22 7.43644 17.514 2.95044 12 2.95044ZM14.5 17.2804C14.979 17.0044 15.143 16.3924 14.866 15.9144L13 12.6824V6.95044C13 6.39844 12.553 5.95044 12 5.95044C11.447 5.95044 11 6.39844 11 6.95044V12.9504C11 13.1264 11.046 13.2984 11.134 13.4504L13.134 16.9144C13.32 17.2354 13.655 17.4144 14.001 17.4144C14.171 17.4144 14.343 17.3714 14.5 17.2804Z" fill="#F95D5D"/>
</svg>
