<svg width="57" height="56" viewBox="0 0 57 56" fill="none" xmlns="http://www.w3.org/2000/svg">
<rect x="0.5" width="56" height="56" rx="28" fill="#F95D5D"/>
<path d="M24.5 34C23.95 34 23.4792 33.8042 23.0875 33.4125C22.6958 33.0208 22.5 32.55 22.5 32V20C22.5 19.45 22.6958 18.9792 23.0875 18.5875C23.4792 18.1958 23.95 18 24.5 18H36.5C37.05 18 37.5208 18.1958 37.9125 18.5875C38.3042 18.9792 38.5 19.45 38.5 20V32C38.5 32.55 38.3042 33.0208 37.9125 33.4125C37.5208 33.8042 37.05 34 36.5 34H24.5ZM24.5 32H36.5V20H24.5V32ZM20.5 38C19.95 38 19.4792 37.8042 19.0875 37.4125C18.6958 37.0208 18.5 36.55 18.5 36V22H20.5V36H34.5V38H20.5Z" fill="#1C1B1F"/>
</svg>
