<svg width="25" height="24" viewBox="0 0 25 24" fill="none" xmlns="http://www.w3.org/2000/svg">
<path d="M15.493 5.994H15.489L9.496 5.999C7.293 6.001 5.5 7.795 5.5 9.999V12.998C5.5 14.067 5.916 15.072 6.672 15.827C7.428 16.582 8.432 16.998 9.5 16.998H9.503L15.496 16.995C17.7 16.994 19.493 15.199 19.493 12.995V9.995C19.493 8.926 19.076 7.921 18.32 7.165C17.564 6.411 16.56 5.994 15.493 5.994ZM9.498 7.999L15.491 7.994H15.493C15.674 7.994 15.852 8.018 16.022 8.065L13.496 10.591C12.969 11.118 12.048 11.118 11.52 10.591L8.994 8.064C9.155 8.022 9.324 7.999 9.498 7.999ZM17.493 12.995C17.493 14.097 16.597 14.995 15.494 14.995L9.501 14.998C8.967 14.998 8.465 14.79 8.087 14.413C7.709 14.036 7.501 13.533 7.501 12.998V9.999C7.501 9.816 7.526 9.639 7.573 9.47L10.108 12.006C10.75 12.647 11.603 13.001 12.51 13.001C13.417 13.001 14.271 12.647 14.911 12.006L17.429 9.488C17.472 9.652 17.494 9.822 17.494 9.995L17.493 12.995ZM12.5 0C5.883 0 0.5 5.383 0.5 12C0.5 18.617 5.883 24 12.5 24C19.117 24 24.5 18.617 24.5 12C24.5 5.383 19.117 0 12.5 0ZM12.5 22C6.986 22 2.5 17.514 2.5 12C2.5 6.486 6.986 2 12.5 2C18.014 2 22.5 6.486 22.5 12C22.5 17.514 18.014 22 12.5 22Z" fill="#F95D5D"/>
</svg>
