<svg width="25" height="25" viewBox="0 0 25 25" fill="none" xmlns="http://www.w3.org/2000/svg">
<path d="M22.5005 0.263306H18.5005V2.26331H21.0865L18.6865 4.66331C17.592 3.83679 16.2772 3.35305 14.9081 3.27313C13.5389 3.19322 12.1767 3.52073 10.9935 4.21431C10.1017 3.69901 9.1071 3.38717 8.08075 3.30112C7.05441 3.21507 6.02172 3.35692 5.05659 3.71653C4.09146 4.07613 3.21774 4.64461 2.49794 5.38128C1.77814 6.11795 1.23005 7.00461 0.892893 7.97781C0.555736 8.95101 0.437841 9.9867 0.547645 11.0108C0.657448 12.0349 0.992236 13.022 1.52805 13.9016C2.06387 14.7812 2.78748 15.5315 3.64709 16.0988C4.50671 16.6662 5.48109 17.0365 6.50052 17.1833V19.2633H3.50052V21.2633H6.50052V24.2633H8.50052V21.2633H11.5005V19.2633H8.50052V17.1903C9.37958 17.0593 10.2253 16.7606 10.9915 16.3103C12.3847 17.1252 14.0171 17.4325 15.6113 17.1801C17.2054 16.9276 18.663 16.131 19.7363 14.9255C20.8095 13.72 21.4323 12.1801 21.4987 10.5675C21.5651 8.95483 21.071 7.36893 20.1005 6.07931L22.5005 3.67931V6.26331H24.5005V2.26331C24.5005 1.73287 24.2898 1.22416 23.9147 0.849092C23.5397 0.474019 23.031 0.263306 22.5005 0.263306ZM2.50052 10.2633C2.49578 9.45115 2.69011 8.65021 3.0665 7.93053C3.44289 7.21085 3.98988 6.59435 4.65963 6.13496C5.32939 5.67556 6.1015 5.38726 6.90844 5.29528C7.71537 5.2033 8.53256 5.31043 9.28852 5.60731C8.13746 6.88493 7.50046 8.54364 7.50046 10.2633C7.50046 11.983 8.13746 13.6417 9.28852 14.9193C8.53256 15.2162 7.71537 15.3233 6.90844 15.2313C6.1015 15.1393 5.32939 14.8511 4.65963 14.3917C3.98988 13.9323 3.44289 13.3158 3.0665 12.5961C2.69011 11.8764 2.49578 11.0755 2.50052 10.2633ZM14.5005 15.2633C13.5116 15.2633 12.5449 14.9701 11.7227 14.4207C10.9004 13.8712 10.2596 13.0904 9.88112 12.1767C9.50269 11.2631 9.40367 10.2578 9.5966 9.28785C9.78952 8.31795 10.2657 7.42703 10.965 6.72777C11.6643 6.02851 12.5552 5.55231 13.5251 5.35938C14.495 5.16645 15.5003 5.26547 16.4139 5.64391C17.3276 6.02235 18.1085 6.66321 18.6579 7.48545C19.2073 8.3077 19.5005 9.2744 19.5005 10.2633C19.4989 11.5889 18.9716 12.8597 18.0343 13.7971C17.097 14.7344 15.8261 15.2617 14.5005 15.2633Z" fill="#F95D5D"/>
</svg>
