<svg width="24" height="25" viewBox="0 0 24 25" fill="none" xmlns="http://www.w3.org/2000/svg">
<path d="M12 0.950439C9.62663 0.950439 7.30655 1.65423 5.33316 2.9728C3.35977 4.29138 1.8217 6.16553 0.913451 8.35824C0.00519943 10.551 -0.232441 12.9638 0.230582 15.2915C0.693605 17.6193 1.83649 19.7575 3.51472 21.4357C5.19295 23.114 7.33115 24.2568 9.65892 24.7199C11.9867 25.1829 14.3995 24.9452 16.5922 24.037C18.7849 23.1287 20.6591 21.5907 21.9776 19.6173C23.2962 17.6439 24 15.3238 24 12.9504C23.9966 9.7689 22.7312 6.71865 20.4815 4.46896C18.2318 2.21927 15.1815 0.953881 12 0.950439ZM20.647 7.95044H17.426C16.705 6.27943 15.7556 4.71653 14.605 3.30644C17.1515 3.99937 19.3223 5.66791 20.647 7.95044ZM16.5 12.9504C16.4918 13.9686 16.3314 14.9798 16.024 15.9504H7.97601C7.66866 14.9798 7.50821 13.9686 7.50001 12.9504C7.50821 11.9323 7.66866 10.9211 7.97601 9.95044H16.024C16.3314 10.9211 16.4918 11.9323 16.5 12.9504ZM8.77801 17.9504H15.222C14.3732 19.6262 13.2882 21.1713 12 22.5384C10.7114 21.1717 9.62625 19.6265 8.77801 17.9504ZM8.77801 7.95044C9.62677 6.27471 10.7119 4.7296 12 3.36244C13.2886 4.72921 14.3738 6.2744 15.222 7.95044H8.77801ZM9.40001 3.30644C8.24767 4.71622 7.29659 6.27914 6.57401 7.95044H3.35301C4.67886 5.66687 6.85166 3.99819 9.40001 3.30644ZM2.46101 9.95044H5.90001C5.64076 10.9296 5.50636 11.9376 5.50001 12.9504C5.50636 13.9633 5.64076 14.9713 5.90001 15.9504H2.46101C1.84635 13.9977 1.84635 11.9032 2.46101 9.95044ZM3.35301 17.9504H6.57401C7.29659 19.6217 8.24767 21.1847 9.40001 22.5944C6.85166 21.9027 4.67886 20.234 3.35301 17.9504ZM14.605 22.5944C15.7556 21.1844 16.705 19.6215 17.426 17.9504H20.647C19.3223 20.233 17.1515 21.9015 14.605 22.5944ZM21.539 15.9504H18.1C18.3592 14.9713 18.4936 13.9633 18.5 12.9504C18.4936 11.9376 18.3592 10.9296 18.1 9.95044H21.537C22.1517 11.9032 22.1517 13.9977 21.537 15.9504H21.539Z" fill="#F95D5D"/>
</svg>
