<svg width="24" height="25" viewBox="0 0 24 25" fill="none" xmlns="http://www.w3.org/2000/svg">
<g clip-path="url(#clip0_318_11224)">
<path d="M24 16.3723C24 16.8901 23.5803 17.3098 23.0625 17.3098C22.5447 17.3098 22.125 16.8901 22.125 16.3723C22.125 13.2194 19.5583 10.3288 17.0761 7.53324C16.464 6.84375 15.8309 6.13078 15.2602 5.43638C14.9314 5.03639 14.9891 4.44563 15.3891 4.11685C15.789 3.78802 16.3799 3.84581 16.7086 4.2458C17.2567 4.9126 17.85 5.58085 18.4782 6.28833C19.7802 7.75463 21.1264 9.27085 22.1681 10.9C23.4008 12.828 24 14.618 24 16.3723ZM22.3749 21.2223C21.4252 22.4138 20.0903 23.3362 18.4074 23.9638C17.0622 24.4655 15.4904 24.7769 13.7201 24.8954C13.0726 24.9504 12.3404 24.9504 12.0469 24.9504C8.12147 24.9504 5.06588 24.1254 2.96498 22.4983C1.0253 20.996 0 18.8776 0 16.3723C0 12.6388 2.5935 9.82983 5.10159 7.11338C6.81417 5.25849 8.43183 3.50649 9.20606 1.54392C9.3473 1.1858 9.69314 0.950439 10.0781 0.950439H12.9844C13.5022 0.950439 13.9219 1.37016 13.9219 1.88794C13.9219 4.15795 12.745 6.45 11.6069 8.66663C10.4635 10.8934 9.28125 13.196 9.28125 15.4348C9.28125 16.9725 9.9915 18.7706 11.1349 20.1275C12.0878 21.2585 13.7678 22.6067 16.3594 22.6067C16.3789 22.6067 16.3979 22.6084 16.4171 22.6096C18.421 22.1238 19.9441 21.2636 20.9087 20.0535C21.2315 19.6487 21.8213 19.5822 22.2262 19.9048C22.631 20.2275 22.6976 20.8174 22.3749 21.2223ZM9.93891 7.81017C10.258 7.1888 10.5716 6.57764 10.8556 5.97806C10.2666 6.95592 9.55397 7.91949 8.85103 8.86931C7.24195 11.0435 5.57812 13.2917 5.57812 15.4348C5.57812 18.1266 7.52236 21.7051 11.2094 22.7664C10.6652 22.3575 10.1594 21.8797 9.70102 21.3357C8.26411 19.6304 7.40625 17.4244 7.40625 15.4348C7.40625 12.7428 8.69377 10.2352 9.93891 7.81017ZM6.86095 22.3903C6.61303 22.1574 6.37533 21.9101 6.14883 21.6482C4.61742 19.8771 3.70312 17.5544 3.70312 15.4348C3.70312 12.6734 5.55398 10.1724 7.34391 7.75392C7.80905 7.12542 8.26613 6.50747 8.67858 5.9018C7.98464 6.75474 7.22653 7.57589 6.4792 8.38533C4.11145 10.9497 1.875 13.372 1.875 16.3723C1.875 19.3125 3.64139 21.3869 6.86095 22.3903ZM15.4258 10.132C16.9665 12.1766 18.4219 14.1077 18.4219 16.1848C18.4219 17.0521 17.9049 18.3263 17.0391 19.5934C16.7469 20.0208 16.8566 20.6042 17.2842 20.8964C17.4459 21.0069 17.6301 21.0599 17.8123 21.0599C18.1115 21.0599 18.4056 20.9169 18.5872 20.6513C19.6897 19.0379 20.2969 17.4517 20.2969 16.1848C20.2969 13.4803 18.5818 11.2044 16.9231 9.00356C16.5056 8.4495 16.0738 7.87655 15.6753 7.30491C15.3792 6.88013 14.7947 6.77588 14.3701 7.07199C13.9453 7.3681 13.8411 7.95249 14.1372 8.37722C14.5556 8.97731 14.9979 9.56433 15.4258 10.132ZM13.838 20.0828C14.0048 20.2044 14.1982 20.263 14.3898 20.263C14.6791 20.263 14.9644 20.1296 15.1479 19.878C15.207 19.7971 16.5938 17.8693 16.5938 15.4817C16.5938 13.545 14.4964 10.6159 14.2572 10.2883C13.9519 9.87014 13.3655 9.7785 12.9473 10.0838C12.529 10.3891 12.4375 10.9756 12.7428 11.3938C13.5633 12.5178 14.7188 14.5291 14.7188 15.4817C14.7188 17.2447 13.6425 18.7601 13.6333 18.7728C13.3281 19.191 13.4198 19.7775 13.838 20.0828Z" fill="#F95D5D"/>
</g>
<defs>
<clipPath id="clip0_318_11224">
<rect width="24" height="24" fill="white" transform="translate(0 0.950439)"/>
</clipPath>
</defs>
</svg>
