<svg width="25" height="25" viewBox="0 0 25 25" fill="none" xmlns="http://www.w3.org/2000/svg">
<g clip-path="url(#clip0_303_9824)">
<path d="M12.667 6.95044C11.8759 6.95044 11.1025 7.18504 10.4447 7.62456C9.78692 8.06409 9.27423 8.6888 8.97148 9.41971C8.66873 10.1506 8.58951 10.9549 8.74385 11.7308C8.89819 12.5067 9.27916 13.2195 9.83857 13.7789C10.398 14.3383 11.1107 14.7192 11.8866 14.8736C12.6626 15.0279 13.4668 14.9487 14.1977 14.646C14.9286 14.3432 15.5533 13.8305 15.9929 13.1727C16.4324 12.5149 16.667 11.7416 16.667 10.9504C16.667 9.88957 16.2456 8.87216 15.4954 8.12201C14.7453 7.37187 13.7279 6.95044 12.667 6.95044ZM12.667 12.9504C12.2714 12.9504 11.8848 12.8331 11.5559 12.6134C11.227 12.3936 10.9706 12.0813 10.8192 11.7158C10.6679 11.3504 10.6283 10.9482 10.7054 10.5603C10.7826 10.1723 10.9731 9.81593 11.2528 9.53623C11.5325 9.25652 11.8889 9.06604 12.2768 8.98887C12.6648 8.9117 13.0669 8.9513 13.4324 9.10268C13.7978 9.25406 14.1102 9.5104 14.3299 9.8393C14.5497 10.1682 14.667 10.5549 14.667 10.9504C14.667 11.4809 14.4563 11.9896 14.0812 12.3647C13.7061 12.7397 13.1974 12.9504 12.667 12.9504Z" fill="#F95D5D"/>
<path d="M12.6673 24.9505C11.8252 24.9548 10.9944 24.7573 10.2444 24.3745C9.49433 23.9918 8.8469 23.4349 8.3563 22.7505C4.5453 17.4935 2.6123 13.5415 2.6123 11.0035C2.6123 8.33674 3.67167 5.77921 5.55735 3.89353C7.44302 2.00785 10.0006 0.948486 12.6673 0.948486C15.3341 0.948486 17.8916 2.00785 19.7773 3.89353C21.6629 5.77921 22.7223 8.33674 22.7223 11.0035C22.7223 13.5415 20.7893 17.4935 16.9783 22.7505C16.4877 23.4349 15.8403 23.9918 15.0902 24.3745C14.3402 24.7573 13.5094 24.9548 12.6673 24.9505ZM12.6673 3.13149C10.5797 3.13387 8.57832 3.96421 7.10218 5.44036C5.62603 6.9165 4.79569 8.9179 4.7933 11.0055C4.7933 13.0155 6.6863 16.7325 10.1223 21.4715C10.414 21.8733 10.7967 22.2003 11.239 22.4258C11.6814 22.6512 12.1708 22.7688 12.6673 22.7688C13.1638 22.7688 13.6532 22.6512 14.0956 22.4258C14.5379 22.2003 14.9206 21.8733 15.2123 21.4715C18.6483 16.7325 20.5413 13.0155 20.5413 11.0055C20.5389 8.9179 19.7086 6.9165 18.2324 5.44036C16.7563 3.96421 14.7549 3.13387 12.6673 3.13149Z" fill="#F95D5D"/>
</g>
<defs>
<clipPath id="clip0_303_9824">
<rect width="24" height="24" fill="white" transform="translate(0.666992 0.950439)"/>
</clipPath>
</defs>
</svg>
