<svg width="20" height="21" viewBox="0 0 20 21" fill="none" xmlns="http://www.w3.org/2000/svg">
<g clip-path="url(#clip0_351_18262)">
<path d="M20 10.5C20 9.145 19.405 7.86667 18.3958 7.06333C18.5125 5.71167 18.0292 4.3875 17.0708 3.42833C16.1125 2.47083 14.7925 1.98583 13.5067 2.1325C12.6333 1.095 11.355 0.5 10 0.5C8.645 0.5 7.36667 1.095 6.56333 2.10417C5.21 1.9875 3.88667 2.47 2.92833 3.42917C1.97 4.3875 1.4875 5.7125 1.6325 6.99333C0.595 7.86667 0 9.145 0 10.5C0 11.855 0.595 13.1333 1.60417 13.9367C1.4875 15.2883 1.97083 16.6133 2.92917 17.5717C3.8875 18.5308 5.21583 19.015 6.49333 18.8675C7.36667 19.905 8.645 20.5 10 20.5C11.355 20.5 12.6333 19.905 13.4367 18.8958C14.785 19.0117 16.1117 18.53 17.0708 17.5708C18.0283 16.6125 18.5117 15.2875 18.3667 14.0067C19.405 13.1333 20 11.855 20 10.5ZM17.2942 12.7317C16.895 13.0675 16.6908 13.5592 16.7358 14.0792C16.8092 14.94 16.5025 15.7833 15.8925 16.3925C15.2825 17.0025 14.4408 17.3083 13.5792 17.2358C13.0575 17.1933 12.5683 17.395 12.2325 17.7942C11.6758 18.455 10.8625 18.8342 10 18.8342C9.1375 18.8342 8.32417 18.455 7.7675 17.7942C7.46167 17.4317 7.02833 17.2308 6.56167 17.2308C6.515 17.2308 6.4675 17.2325 6.42083 17.2367C5.565 17.3108 4.7175 17.0033 4.1075 16.3933C3.49833 15.7833 3.19083 14.94 3.265 14.08C3.30917 13.56 3.10667 13.07 2.70667 12.7325C2.04583 12.1767 1.66667 11.3625 1.66667 10.5008C1.66667 9.63917 2.04583 8.825 2.70667 8.26833C3.10583 7.93167 3.30917 7.44083 3.26417 6.92083C3.19083 6.06083 3.4975 5.2175 4.1075 4.6075C4.7175 3.99833 5.56083 3.69333 6.42083 3.765C6.93833 3.80583 7.43083 3.60583 7.76833 3.20667C8.32417 2.54583 9.13833 2.16667 10 2.16667C10.8617 2.16667 11.6758 2.54583 12.2325 3.20667C12.5683 3.605 13.0583 3.81167 13.58 3.76417C14.4342 3.69417 15.2825 3.9975 15.8925 4.6075C16.5017 5.21667 16.8092 6.06083 16.7358 6.92083C16.6908 7.44083 16.8942 7.93167 17.2942 8.26833C17.9542 8.82417 18.3333 9.63833 18.3333 10.5C18.3333 11.3617 17.9542 12.1758 17.2942 12.7317ZM13.3333 12.1667C13.3333 13.545 12.2117 14.6667 10.8333 14.6667V15.5C10.8333 15.96 10.46 16.3333 10 16.3333C9.54 16.3333 9.16667 15.96 9.16667 15.5V14.6667H8.94333C8.05333 14.6667 7.22417 14.1883 6.77833 13.4175C6.54833 13.0192 6.68417 12.51 7.0825 12.2792C7.48 12.0483 7.99 12.185 8.22083 12.5833C8.36917 12.84 8.64667 13 8.94333 13H10.8333C11.2933 13 11.6667 12.6258 11.6667 12.1667C11.6667 11.8517 11.4408 11.585 11.13 11.5333L8.595 11.1108C7.4775 10.925 6.66583 9.96667 6.66583 8.83333C6.66583 7.455 7.7875 6.33333 9.16583 6.33333V5.5C9.16583 5.04 9.53917 4.66667 9.99917 4.66667C10.4592 4.66667 10.8325 5.04 10.8325 5.5V6.33333H11.0558C11.945 6.33333 12.775 6.8125 13.2208 7.58333C13.4517 7.98167 13.315 8.49083 12.9175 8.72167C12.5175 8.95167 12.0075 8.81583 11.7792 8.4175C11.63 8.16 11.3533 8.00083 11.0567 8.00083H9.16667C8.7075 8.00083 8.33333 8.375 8.33333 8.83417C8.33333 9.14917 8.55917 9.41583 8.87 9.4675L11.4042 9.89C12.5225 10.0758 13.3333 11.0342 13.3333 12.1675V12.1667Z" fill="#F95D5D"/>
</g>
<defs>
<clipPath id="clip0_351_18262">
<rect width="20" height="20" fill="white" transform="translate(0 0.5)"/>
</clipPath>
</defs>
</svg>
