<svg width="25" height="24" viewBox="0 0 25 24" fill="none" xmlns="http://www.w3.org/2000/svg">
<g clip-path="url(#clip0_354_11949)">
<path d="M24.5 16V21C24.5 21.7957 24.1839 22.5587 23.6213 23.1213C23.0587 23.6839 22.2956 24 21.5 24H16.5C15.0971 23.9986 13.7192 23.6282 12.5047 22.9262C11.2901 22.2241 10.2815 21.215 9.58 20C10.3339 19.9946 11.0852 19.9115 11.822 19.752C12.3832 20.4537 13.095 21.02 13.9048 21.4092C14.7146 21.7983 15.6016 22.0003 16.5 22H21.5C21.7652 22 22.0196 21.8947 22.2071 21.7071C22.3946 21.5196 22.5 21.2652 22.5 21V16C22.4998 15.1012 22.2972 14.2141 21.9074 13.4043C21.5175 12.5944 20.9504 11.8828 20.248 11.322C20.4088 10.5853 20.4933 9.83402 20.5 9.08001C21.715 9.78146 22.7241 10.7901 23.4262 12.0047C24.1282 13.2193 24.4986 14.5971 24.5 16ZM18.477 9.65101C18.5705 8.36265 18.3856 7.06925 17.9348 5.85871C17.4841 4.64816 16.778 3.54884 15.8646 2.63543C14.9512 1.72202 13.8518 1.01594 12.6413 0.565168C11.4308 0.114393 10.1374 -0.0705147 8.849 0.023011C6.56592 0.283743 4.45693 1.37019 2.91918 3.07775C1.38143 4.78532 0.521027 6.99618 0.5 9.29401L0.5 14.334C0.5 16.866 2.007 18 3.5 18H9.2C11.4988 17.9802 13.711 17.1204 15.4198 15.5826C17.1286 14.0447 18.2159 11.935 18.477 9.65101ZM14.45 4.05101C15.1599 4.76251 15.7088 5.61821 16.0593 6.5602C16.4099 7.50219 16.554 8.50849 16.482 9.51101C16.2686 11.2947 15.4105 12.9388 14.0693 14.134C12.7282 15.3291 10.9964 15.9927 9.2 16H3.5C2.572 16 2.5 14.725 2.5 14.334V9.29401C2.50834 7.49839 3.17265 5.76772 4.36792 4.42769C5.56319 3.08766 7.20699 2.23068 8.99 2.01801C9.156 2.00601 9.322 2.00001 9.488 2.00001C10.4093 1.99915 11.3217 2.17985 12.1731 2.53177C13.0245 2.88369 13.7982 3.39994 14.45 4.05101Z" fill="black"/>
</g>
<defs>
<clipPath id="clip0_354_11949">
<rect width="24" height="24" fill="white" transform="translate(0.5)"/>
</clipPath>
</defs>
</svg>
