<svg width="14" height="14" viewBox="0 0 14 14" fill="none" xmlns="http://www.w3.org/2000/svg">
<path d="M13.1921 11.9744L10.2034 8.75545C10.7112 7.88481 11.0059 6.85575 11.0059 5.75139C11.0059 2.62698 8.65396 0.0944824 5.75284 0.0944824C2.85172 0.0944824 0.5 2.62698 0.5 5.75139C0.5 8.87591 2.85161 11.4082 5.75284 11.4082C6.86883 11.4082 7.90252 11.0324 8.75312 10.394L11.7063 13.5746C11.9115 13.7953 12.1806 13.9053 12.4492 13.9053C12.7182 13.9053 12.9869 13.7953 13.1925 13.5746C13.6025 13.1325 13.6025 12.4164 13.1921 11.9744ZM5.75284 9.57542C3.79194 9.57542 2.20217 7.86347 2.20217 5.75162C2.20217 3.63977 3.79194 1.92771 5.75284 1.92771C7.71384 1.92771 9.30351 3.63977 9.30351 5.75162C9.30351 7.86347 7.71384 9.57542 5.75284 9.57542Z" fill="#F95D5D"/>
</svg>
