<svg width="18" height="18" viewBox="0 0 18 18" fill="none" xmlns="http://www.w3.org/2000/svg">
<g clip-path="url(#clip0_2025_7868)">
<path d="M9 4.92188C6.7513 4.92188 4.92188 6.75134 4.92188 9C4.92188 11.2487 6.7513 13.0781 9 13.0781C9.42001 13.0781 9.83443 13.0144 10.2317 12.8886C10.602 12.7715 10.8071 12.3763 10.6899 12.0061C10.5727 11.6359 10.1775 11.4307 9.80736 11.5479C9.54749 11.6302 9.27587 11.6719 9 11.6719C7.52674 11.6719 6.32812 10.4733 6.32812 9C6.32812 7.52671 7.52674 6.32812 9 6.32812C10.4733 6.32812 11.6719 7.52671 11.6719 9C11.6719 9.25604 11.6359 9.50903 11.5648 9.75185C11.4558 10.1246 11.6696 10.5151 12.0423 10.6241C12.4151 10.7331 12.8055 10.5193 12.9146 10.1466C13.0231 9.77548 13.0781 9.38967 13.0781 9C13.0781 6.75134 11.2487 4.92188 9 4.92188Z" fill="#F95D5D"/>
<path d="M15.8906 6.5391H15.5366C15.4434 6.5391 15.359 6.48042 15.3224 6.3919L15.3161 6.37671C15.2783 6.28552 15.2964 6.18402 15.3622 6.11814L15.6126 5.86775C16.4351 5.04531 16.4351 3.70709 15.6126 2.88464L15.1155 2.38746C14.717 1.98904 14.1873 1.76962 13.6239 1.76962C13.0604 1.76962 12.5307 1.98904 12.1323 2.38746L11.882 2.63781C11.8161 2.70373 11.7144 2.7218 11.6237 2.68407L11.6104 2.67859C11.5196 2.64108 11.461 2.55667 11.461 2.46354V2.10938C11.461 0.946266 10.5147 0 9.3516 0H8.64847C7.48536 0 6.5391 0.946266 6.5391 2.10938V2.46354C6.5391 2.55667 6.48046 2.64108 6.39042 2.67824L6.37668 2.68393C6.28559 2.72183 6.18398 2.70373 6.11814 2.63784L5.86775 2.38746C5.46936 1.98904 4.93963 1.76962 4.37618 1.76962C3.81273 1.76962 3.28303 1.98904 2.88461 2.38746L2.38743 2.88457C1.56498 3.70705 1.56498 5.04524 2.38746 5.86772L2.63781 6.11807C2.70369 6.18398 2.72176 6.28548 2.68284 6.37928L2.67859 6.38954C2.64111 6.48035 2.55663 6.53903 2.4635 6.53903H2.10938C0.946266 6.53903 0 7.48529 0 8.6484V9.35153C0 10.5146 0.946266 11.4609 2.10938 11.4609H2.46347C2.55663 11.4609 2.64104 11.5196 2.67764 11.6081L2.6839 11.6233C2.72176 11.7145 2.70366 11.816 2.63777 11.8819L2.38743 12.1322C1.989 12.5307 1.76959 13.0604 1.76959 13.6238C1.76959 14.1872 1.989 14.7169 2.38739 15.1154L2.88457 15.6125C3.283 16.011 3.81273 16.2304 4.37614 16.2304C4.93963 16.2304 5.46933 16.011 5.86772 15.6125L6.11807 15.3622C6.18391 15.2963 6.28555 15.2782 6.37636 15.3159L6.38961 15.3214C6.48042 15.3589 6.53906 15.4433 6.53906 15.5365V15.8906C6.53906 17.0537 7.48533 18 8.64844 18H9.35156C10.5147 18 11.4609 17.0537 11.4609 15.8906V15.5365C11.4609 15.4433 11.5196 15.3589 11.6096 15.3218L11.6234 15.3161C11.7145 15.2782 11.8161 15.2963 11.8819 15.3622L12.1323 15.6125C12.5307 16.011 13.0604 16.2304 13.6239 16.2304C14.1873 16.2304 14.717 16.011 15.1154 15.6125L15.6126 15.1154C16.011 14.717 16.2304 14.1872 16.2304 13.6238C16.2304 13.0604 16.011 12.5307 15.6126 12.1323L15.3622 11.8819C15.2963 11.816 15.2782 11.7145 15.3161 11.6233L15.3214 11.6105C15.3589 11.5196 15.4434 11.461 15.5365 11.461H15.8906C17.0537 11.461 18 10.5147 18 9.3516V8.64847C18 7.48536 17.0537 6.5391 15.8906 6.5391ZM16.5938 9.35156C16.5938 9.73927 16.2783 10.0547 15.8906 10.0547H15.5365C14.8719 10.0547 14.2773 10.4546 14.0216 11.0736L14.0171 11.0847C13.7605 11.7034 13.8981 12.4065 14.3678 12.8763L14.6182 13.1266C14.751 13.2594 14.8241 13.436 14.8241 13.6238C14.8241 13.8116 14.751 13.9882 14.6182 14.121L14.121 14.6182C13.9882 14.751 13.8116 14.8241 13.6238 14.8241C13.436 14.8241 13.2594 14.751 13.1266 14.6182L12.8762 14.3678C12.4063 13.8979 11.7027 13.7604 11.0836 14.0175L11.0737 14.0216C10.4547 14.2772 10.0547 14.8718 10.0547 15.5365V15.8906C10.0547 16.2783 9.73927 16.5938 9.35156 16.5938H8.64844C8.26073 16.5938 7.94531 16.2783 7.94531 15.8906V15.5365C7.94531 14.8718 7.54534 14.2772 6.92561 14.0213L6.91611 14.0174C6.70904 13.9314 6.49259 13.8896 6.27848 13.8896C5.85271 13.8896 5.43646 14.0551 5.12374 14.3678L4.87336 14.6182C4.74054 14.751 4.56402 14.8241 4.37618 14.8241C4.18837 14.8241 4.01179 14.751 3.879 14.6182L3.38182 14.121C3.249 13.9882 3.17587 13.8116 3.17587 13.6238C3.17587 13.436 3.249 13.2594 3.38182 13.1266L3.6322 12.8763C4.10193 12.4065 4.23953 11.7034 3.98292 11.0847L3.97835 11.0736C3.7227 10.4546 3.1281 10.0547 2.4635 10.0547H2.10938C1.72167 10.0547 1.40625 9.73927 1.40625 9.35156V8.64844C1.40625 8.26073 1.72167 7.94531 2.10938 7.94531H2.4635C3.12813 7.94531 3.72273 7.54537 3.9793 6.92413L3.98257 6.91615C4.23963 6.29726 4.1021 5.59371 3.63217 5.12374L3.38182 4.87339C3.10764 4.59921 3.10764 4.15315 3.38182 3.879L3.87896 3.38182C4.01182 3.24904 4.18837 3.17587 4.37618 3.17587C4.56402 3.17587 4.74057 3.249 4.87336 3.38182L5.12378 3.63224C5.59378 4.10214 6.29736 4.23967 6.91643 3.98246L6.92634 3.97835C7.54534 3.72277 7.94531 3.12817 7.94531 2.46354V2.10938C7.94531 1.72167 8.26073 1.40625 8.64844 1.40625H9.35156C9.73927 1.40625 10.0547 1.72167 10.0547 2.10938V2.46354C10.0547 3.12817 10.4547 3.72277 11.0744 3.97863L11.0839 3.98257C11.7027 4.23956 12.4063 4.10207 12.8763 3.63217L13.1266 3.38175C13.2595 3.24896 13.436 3.17584 13.6238 3.17584C13.8116 3.17584 13.9882 3.249 14.121 3.38179L14.6182 3.87896C14.8924 4.15311 14.8924 4.59918 14.6182 4.87332L14.3678 5.12374C13.8979 5.59371 13.7604 6.29722 14.0164 6.91355L14.0216 6.92638C14.2773 7.54537 14.8719 7.94531 15.5365 7.94531H15.8906C16.2783 7.94531 16.5938 8.26073 16.5938 8.64844V9.35156Z" fill="#F95D5D"/>
</g>
<defs>
<clipPath id="clip0_2025_7868">
<rect width="18" height="18" fill="white"/>
</clipPath>
</defs>
</svg>
