<svg width="24" height="25" viewBox="0 0 24 25" fill="none" xmlns="http://www.w3.org/2000/svg">
<path d="M24 16.9505V21.9505C24 22.7461 23.6839 23.5092 23.1213 24.0718C22.5587 24.6344 21.7956 24.9505 21 24.9505H16C14.5971 24.949 13.2192 24.5787 12.0047 23.8766C10.7901 23.1745 9.78145 22.1654 9.08 20.9505C9.83387 20.9451 10.5852 20.862 11.322 20.7025C11.8832 21.4041 12.595 21.9705 13.4048 22.3596C14.2146 22.7488 15.1016 22.9507 16 22.9505H21C21.2652 22.9505 21.5196 22.8451 21.7071 22.6576C21.8946 22.47 22 22.2157 22 21.9505V16.9505C21.9998 16.0517 21.7972 15.1645 21.4074 14.3547C21.0175 13.5449 20.4504 12.8332 19.748 12.2725C19.9088 11.5358 19.9933 10.7845 20 10.0305C21.215 10.7319 22.2241 11.7405 22.9262 12.9551C23.6282 14.1697 23.9986 15.5476 24 16.9505ZM17.977 10.6015C18.0705 9.31309 17.8856 8.01969 17.4348 6.80915C16.9841 5.5986 16.278 4.49928 15.3646 3.58587C14.4512 2.67246 13.3518 1.96638 12.1413 1.51561C10.9308 1.06483 9.63736 0.879925 8.349 0.97345C6.06592 1.23418 3.95693 2.32063 2.41918 4.02819C0.881427 5.73576 0.0210272 7.94662 0 10.2445L0 15.2845C0 17.8165 1.507 18.9505 3 18.9505H8.7C10.9988 18.9307 13.211 18.0708 14.9198 16.533C16.6286 14.9952 17.7159 12.8855 17.977 10.6015ZM13.95 5.00145C14.6599 5.71295 15.2088 6.56865 15.5593 7.51064C15.9099 8.45263 16.054 9.45893 15.982 10.4615C15.7686 12.2451 14.9105 13.8893 13.5693 15.0844C12.2282 16.2795 10.4964 16.9432 8.7 16.9505H3C2.072 16.9505 2 15.6755 2 15.2845V10.2445C2.00834 8.44883 2.67265 6.71816 3.86792 5.37813C5.06319 4.0381 6.70699 3.18112 8.49 2.96845C8.656 2.95645 8.822 2.95045 8.988 2.95045C9.90927 2.94959 10.8217 3.13029 11.6731 3.48221C12.5245 3.83413 13.2982 4.35038 13.95 5.00145Z" fill="#F95D5D"/>
</svg>
