<svg width="20" height="20" viewBox="0 0 20 20" fill="none" xmlns="http://www.w3.org/2000/svg">
<g clip-path="url(#clip0_109_9768)">
<path d="M19.4799 7.39437C19.3152 6.87023 18.9862 6.413 18.5416 6.0903C18.097 5.76759 17.5603 5.59654 17.011 5.60244H13.4939L12.4257 2.27296C12.2577 1.74887 11.9276 1.29168 11.483 0.967303C11.0384 0.642929 10.5023 0.46814 9.95191 0.46814C9.40156 0.46814 8.86542 0.642929 8.42082 0.967303C7.97622 1.29168 7.64613 1.74887 7.47814 2.27296L6.40991 5.60244H2.89286C2.34526 5.60322 1.8119 5.77703 1.36898 6.09905C0.926061 6.42107 0.596231 6.87482 0.426602 7.39549C0.256973 7.91616 0.256222 8.47712 0.424457 8.99824C0.592691 9.51937 0.921306 9.974 1.36336 10.2972L4.22594 12.3902L3.13758 15.7607C2.9617 16.2835 2.95947 16.8491 3.13123 17.3732C3.30299 17.8973 3.63954 18.3519 4.0907 18.6692C4.53414 18.9967 5.07151 19.1721 5.62274 19.1693C6.17397 19.1666 6.70956 18.9858 7.1497 18.6539L9.95191 16.5915L12.7549 18.6515C13.1976 18.9771 13.732 19.1539 14.2815 19.1566C14.831 19.1593 15.3671 18.9876 15.8129 18.6664C16.2587 18.3451 16.5911 17.8908 16.7624 17.3687C16.9337 16.8466 16.9351 16.2836 16.7662 15.7607L15.6779 12.3902L18.5437 10.2972C18.9908 9.97806 19.3233 9.52343 19.4919 9.00062C19.6605 8.47781 19.6563 7.91461 19.4799 7.39437ZM17.5938 8.99713L14.2579 11.4355C14.1208 11.5354 14.0189 11.6761 13.9666 11.8374C13.9142 11.9988 13.9142 12.1725 13.9664 12.3339L15.2343 16.2542C15.2985 16.453 15.2979 16.6671 15.2328 16.8656C15.1676 17.0641 15.0411 17.2368 14.8716 17.359C14.7021 17.4811 14.4982 17.5463 14.2893 17.5452C14.0803 17.5442 13.8771 17.4769 13.7088 17.353L10.4285 14.938C10.2903 14.8365 10.1233 14.7818 9.95191 14.7818C9.78047 14.7818 9.61351 14.8365 9.47535 14.938L6.19497 17.353C6.02679 17.4785 5.82301 17.5472 5.61317 17.5491C5.40333 17.551 5.19834 17.4861 5.02791 17.3636C4.85748 17.2412 4.73048 17.0676 4.66531 16.8682C4.60014 16.6687 4.6002 16.4536 4.66547 16.2542L5.93737 12.3339C5.98963 12.1725 5.98959 11.9988 5.93726 11.8374C5.88493 11.6761 5.78298 11.5354 5.64596 11.4355L2.31004 8.99713C2.14204 8.87412 2.01721 8.70117 1.95338 8.50297C1.88955 8.30478 1.88998 8.09148 1.95462 7.89355C2.01926 7.69562 2.1448 7.52317 2.3133 7.40085C2.4818 7.27853 2.68464 7.21259 2.89286 7.21244H6.99836C7.16879 7.21244 7.33483 7.15834 7.47255 7.05794C7.61027 6.95754 7.71257 6.81603 7.76472 6.65377L9.01247 2.76481C9.07652 2.56581 9.20206 2.39225 9.37102 2.26914C9.53998 2.14602 9.74365 2.07968 9.95271 2.07968C10.1618 2.07968 10.3654 2.14602 10.5344 2.26914C10.7034 2.39225 10.8289 2.56581 10.893 2.76481L12.1407 6.65377C12.1929 6.81603 12.2952 6.95754 12.4329 7.05794C12.5706 7.15834 12.7366 7.21244 12.9071 7.21244H17.0126C17.2208 7.21259 17.4236 7.27853 17.5921 7.40085C17.7606 7.52317 17.8862 7.69562 17.9508 7.89355C18.0154 8.09148 18.0159 8.30478 17.952 8.50297C17.8882 8.70117 17.7634 8.87412 17.5954 8.99713H17.5938Z" fill="white"/>
</g>
<defs>
<clipPath id="clip0_109_9768">
<rect width="19.32" height="19.32" fill="white" transform="translate(0.291016 0.315186)"/>
</clipPath>
</defs>
</svg>
