<svg width="20" height="20" viewBox="0 0 20 20" fill="none" xmlns="http://www.w3.org/2000/svg">
<g clip-path="url(#clip0_349_9330)">
<path d="M19.8634 7.32821C19.6929 6.78563 19.3524 6.31231 18.8921 5.97824C18.4318 5.64418 17.8762 5.4671 17.3075 5.47321H13.6667L12.5609 2.02655C12.387 1.48401 12.0453 1.01073 11.585 0.674935C11.1248 0.339144 10.5698 0.158203 10 0.158203C9.43032 0.158203 8.87531 0.339144 8.41506 0.674935C7.95481 1.01073 7.6131 1.48401 7.43921 2.02655L6.33337 5.47321H2.69254C2.12566 5.47402 1.57353 5.65395 1.11502 5.9873C0.656512 6.32065 0.315073 6.79037 0.139473 7.32937C-0.0361263 7.86837 -0.0369035 8.44907 0.137253 8.98854C0.311409 9.528 0.651589 9.99864 1.10921 10.3332L4.07254 12.4999L2.94587 15.989C2.7638 16.5302 2.76149 17.1157 2.9393 17.6583C3.1171 18.2009 3.46549 18.6714 3.93254 18.9999C4.39158 19.3389 4.94787 19.5205 5.5185 19.5176C6.08913 19.5148 6.64357 19.3276 7.09921 18.984L10 16.849L12.9017 18.9815C13.3599 19.3186 13.9132 19.5017 14.482 19.5044C15.0508 19.5072 15.6059 19.3295 16.0673 18.997C16.5288 18.6644 16.873 18.1941 17.0503 17.6536C17.2276 17.1131 17.229 16.5304 17.0542 15.989L15.9275 12.4999L18.8942 10.3332C19.3571 10.0028 19.7012 9.53221 19.8758 8.991C20.0503 8.44979 20.046 7.86676 19.8634 7.32821ZM17.9109 8.98738L14.4575 11.5115C14.3157 11.615 14.2102 11.7607 14.156 11.9277C14.1018 12.0947 14.1018 12.2745 14.1559 12.4415L15.4684 16.4999C15.5348 16.7057 15.5342 16.9273 15.4668 17.1328C15.3993 17.3383 15.2684 17.5171 15.0929 17.6435C14.9174 17.7699 14.7063 17.8375 14.49 17.8363C14.2738 17.8352 14.0634 17.7656 13.8892 17.6374L10.4934 15.1374C10.3503 15.0323 10.1775 14.9757 10 14.9757C9.82257 14.9757 9.64973 15.0323 9.50671 15.1374L6.11087 17.6374C5.93677 17.7673 5.72582 17.8384 5.50859 17.8404C5.29137 17.8424 5.07916 17.7751 4.90273 17.6483C4.7263 17.5216 4.59483 17.3419 4.52737 17.1355C4.45991 16.929 4.45997 16.7063 4.52754 16.4999L5.8442 12.4415C5.8983 12.2745 5.89826 12.0947 5.84409 11.9277C5.78992 11.7607 5.68438 11.615 5.54254 11.5115L2.08921 8.98738C1.91529 8.86004 1.78607 8.681 1.71999 8.47583C1.65391 8.27066 1.65436 8.04986 1.72128 7.84496C1.78819 7.64006 1.91814 7.46155 2.09257 7.33492C2.267 7.2083 2.47699 7.14003 2.69254 7.13988H6.94254C7.11897 7.13987 7.29084 7.08387 7.43341 6.97994C7.57598 6.87601 7.68188 6.72951 7.73587 6.56155L9.02754 2.53571C9.09384 2.3297 9.2238 2.15004 9.39871 2.02259C9.57362 1.89514 9.78445 1.82647 10.0009 1.82647C10.2173 1.82647 10.4281 1.89514 10.603 2.02259C10.7779 2.15004 10.9079 2.3297 10.9742 2.53571L12.2659 6.56155C12.3199 6.72951 12.4258 6.87601 12.5683 6.97994C12.7109 7.08387 12.8828 7.13987 13.0592 7.13988H17.3092C17.5248 7.14003 17.7347 7.2083 17.9092 7.33492C18.0836 7.46155 18.2136 7.64006 18.2805 7.84496C18.3474 8.04986 18.3478 8.27066 18.2818 8.47583C18.2157 8.681 18.0865 8.86004 17.9125 8.98738H17.9109Z" fill="#F95D5D"/>
</g>
<defs>
<clipPath id="clip0_349_9330">
<rect width="20" height="20" fill="white"/>
</clipPath>
</defs>
</svg>
