<svg width="20" height="20" viewBox="0 0 20 20" fill="none" xmlns="http://www.w3.org/2000/svg">
<path d="M17.5 10.3534V9.16675C17.5 7.17762 16.7098 5.26997 15.3033 3.86345C13.8968 2.45692 11.9891 1.66675 10 1.66675C8.01088 1.66675 6.10322 2.45692 4.6967 3.86345C3.29018 5.26997 2.5 7.17762 2.5 9.16675V10.3534C1.62597 10.7383 0.910667 11.4117 0.473851 12.261C0.0370351 13.1102 -0.094783 14.0838 0.100464 15.0186C0.295711 15.9535 0.806172 16.7929 1.54639 17.3963C2.28661 17.9997 3.21166 18.3306 4.16667 18.3334C4.60869 18.3334 5.03262 18.1578 5.34518 17.8453C5.65774 17.5327 5.83333 17.1088 5.83333 16.6667V11.6667C5.83333 11.2247 5.65774 10.8008 5.34518 10.4882C5.03262 10.1757 4.60869 10.0001 4.16667 10.0001V9.16675C4.16667 7.61965 4.78125 6.13592 5.87521 5.04196C6.96917 3.948 8.4529 3.33341 10 3.33341C11.5471 3.33341 13.0308 3.948 14.1248 5.04196C15.2188 6.13592 15.8333 7.61965 15.8333 9.16675V10.0001C15.3913 10.0001 14.9674 10.1757 14.6548 10.4882C14.3423 10.8008 14.1667 11.2247 14.1667 11.6667V16.6667C14.1667 17.1088 14.3423 17.5327 14.6548 17.8453C14.9674 18.1578 15.3913 18.3334 15.8333 18.3334C16.7883 18.3306 17.7134 17.9997 18.4536 17.3963C19.1938 16.7929 19.7043 15.9535 19.8995 15.0186C20.0948 14.0838 19.963 13.1102 19.5261 12.261C19.0893 11.4117 18.374 10.7383 17.5 10.3534ZM4.16667 16.6667C3.50362 16.6667 2.86774 16.4034 2.3989 15.9345C1.93006 15.4657 1.66667 14.8298 1.66667 14.1667C1.66667 13.5037 1.93006 12.8678 2.3989 12.399C2.86774 11.9301 3.50362 11.6667 4.16667 11.6667V16.6667ZM15.8333 16.6667V11.6667C16.4964 11.6667 17.1323 11.9301 17.6011 12.399C18.0699 12.8678 18.3333 13.5037 18.3333 14.1667C18.3333 14.8298 18.0699 15.4657 17.6011 15.9345C17.1323 16.4034 16.4964 16.6667 15.8333 16.6667Z" fill="white"/>
</svg>
