<svg width="20" height="20" viewBox="0 0 20 20" fill="none" xmlns="http://www.w3.org/2000/svg">
<g clip-path="url(#clip0_349_9427)">
<path d="M18.3333 3.33333H14.1666V1.66667C14.1666 1.22464 13.991 0.800716 13.6785 0.488155C13.3659 0.175595 12.942 0 12.5 0L7.49996 0C7.05793 0 6.63401 0.175595 6.32145 0.488155C6.00889 0.800716 5.83329 1.22464 5.83329 1.66667V3.33333H1.66663V5H3.33329V17.5C3.33329 18.163 3.59668 18.7989 4.06553 19.2678C4.53437 19.7366 5.17025 20 5.83329 20H14.1666C14.8297 20 15.4656 19.7366 15.9344 19.2678C16.4032 18.7989 16.6666 18.163 16.6666 17.5V5H18.3333V3.33333ZM7.49996 1.66667H12.5V3.33333H7.49996V1.66667ZM15 17.5C15 17.721 14.9122 17.933 14.7559 18.0893C14.5996 18.2455 14.3876 18.3333 14.1666 18.3333H5.83329C5.61228 18.3333 5.40032 18.2455 5.24404 18.0893C5.08776 17.933 4.99996 17.721 4.99996 17.5V5H15V17.5Z" fill="white"/>
<path d="M9.16667 8.33325H7.5V14.9999H9.16667V8.33325Z" fill="white"/>
<path d="M12.4999 8.33325H10.8333V14.9999H12.4999V8.33325Z" fill="white"/>
</g>
<defs>
<clipPath id="clip0_349_9427">
<rect width="20" height="20" fill="white"/>
</clipPath>
</defs>
</svg>
