<svg width="21" height="14" viewBox="0 0 21 14" fill="none" xmlns="http://www.w3.org/2000/svg">
<path d="M19.2355 2.70351C18.6913 2.43142 18.0497 2.48857 17.5635 2.85485C17.5321 2.87819 17.5023 2.90476 17.475 2.93213L16.0606 4.3594C15.8907 2.29457 14.1761 0.661225 12.0686 0.661225H4.82358C2.6042 0.66042 0.798584 2.46603 0.798584 4.68542V9.51542C0.798584 11.7348 2.6042 13.5404 4.82358 13.5404H12.0686C14.1849 13.5404 15.9068 11.8926 16.063 9.81569L17.4766 11.2277C17.5039 11.2542 17.5321 11.2784 17.5627 11.3017C17.8461 11.5142 18.181 11.6221 18.519 11.6221C18.763 11.6221 19.0069 11.5666 19.2355 11.4523C19.7805 11.1802 20.1186 10.632 20.1186 10.0242V4.13319C20.1186 3.5238 19.7805 2.9756 19.2355 2.70351ZM12.0686 11.9304H4.82358C3.49211 11.9304 2.40858 10.8469 2.40858 9.51542V4.68542C2.40858 3.35395 3.49211 2.27042 4.82358 2.27042H12.0686C13.4001 2.27042 14.4836 3.35395 14.4836 4.68542V9.51542C14.4836 10.8469 13.4001 11.9304 12.0686 11.9304ZM16.0936 7.56974V6.61259L18.5086 4.17505L18.5287 10.0016L16.0936 7.56893V7.56974Z" fill="black"/>
</svg>
