<svg width="16" height="16" viewBox="0 0 16 16" fill="none" xmlns="http://www.w3.org/2000/svg">
<g clip-path="url(#clip0_109_6597)">
<path d="M11.6714 9.53795L11.6654 9.58795C10.1994 8.85728 10.0461 8.75995 9.85676 9.04395C9.72543 9.24062 9.34276 9.68662 9.22743 9.81862C9.11076 9.94862 8.99476 9.95862 8.79676 9.86862C8.59676 9.76862 7.95476 9.55862 7.19476 8.87862C6.60276 8.34862 6.20543 7.69862 6.08809 7.49862C5.89276 7.16128 6.30143 7.11328 6.67343 6.40928C6.74009 6.26928 6.70609 6.15928 6.65676 6.05995C6.60676 5.95995 6.20876 4.97995 6.04209 4.58928C5.88209 4.19995 5.71743 4.24928 5.59409 4.24928C5.21009 4.21595 4.92943 4.22128 4.68209 4.47862C3.60609 5.66128 3.87743 6.88128 4.79809 8.17862C6.60743 10.5466 7.57143 10.9826 9.33409 11.588C9.81009 11.7393 10.2441 11.718 10.5874 11.6686C10.9701 11.608 11.7654 11.188 11.9314 10.718C12.1014 10.248 12.1014 9.85795 12.0514 9.76795C12.0021 9.67795 11.8714 9.62795 11.6714 9.53795Z" fill="#F95D5D"/>
<path d="M13.68 2.29913C8.554 -2.6562 0.0706667 0.9378 0.0673333 7.92847C0.0673333 9.3258 0.433333 10.6885 1.13067 11.8918L0 15.9998L4.22333 14.8985C9.49333 17.7451 15.9973 13.9651 16 7.93247C16 5.81513 15.1733 3.82247 13.67 2.32513L13.68 2.29913ZM14.668 7.91047C14.664 12.9991 9.078 16.1771 4.66 13.5798L4.42 13.4371L1.92 14.0871L2.59 11.6571L2.43067 11.4071C-0.318667 7.03047 2.84 1.31047 8.048 1.31047C9.81733 1.31047 11.478 2.00047 12.7287 3.25047C13.9787 4.4898 14.668 6.15047 14.668 7.91047Z" fill="#F95D5D"/>
</g>
<defs>
<clipPath id="clip0_109_6597">
<rect width="16" height="16" fill="white"/>
</clipPath>
</defs>
</svg>
