<svg width="15" height="15" viewBox="0 0 15 15" fill="none" xmlns="http://www.w3.org/2000/svg">
<path d="M13.8001 10.6226H12.4V6.42259C12.398 5.24548 11.9725 4.10841 11.2014 3.21905C10.4303 2.32969 9.36496 1.74741 8.20003 1.57856V0.822562C8.20003 0.636909 8.12628 0.458861 7.99501 0.327585C7.86373 0.196309 7.68568 0.122559 7.50003 0.122559C7.31438 0.122559 7.13633 0.196309 7.00505 0.327585C6.87378 0.458861 6.80003 0.636909 6.80003 0.822562V1.57856C5.63509 1.74741 4.56978 2.32969 3.79866 3.21905C3.02754 4.10841 2.60209 5.24548 2.60001 6.42259V10.6226H1.2C1.01435 10.6226 0.836302 10.6964 0.705026 10.8276C0.57375 10.9589 0.5 11.137 0.5 11.3226C0.5 11.5083 0.57375 11.6863 0.705026 11.8176C0.836302 11.9489 1.01435 12.0226 1.2 12.0226H4.79942C4.95205 12.6231 5.30045 13.1555 5.78953 13.5358C6.27861 13.9161 6.88048 14.1226 7.50003 14.1226C8.11957 14.1226 8.72145 13.9161 9.21053 13.5358C9.69961 13.1555 10.048 12.6231 10.2006 12.0226H13.8001C13.9857 12.0226 14.1638 11.9489 14.295 11.8176C14.4263 11.6863 14.5001 11.5083 14.5001 11.3226C14.5001 11.137 14.4263 10.9589 14.295 10.8276C14.1638 10.6964 13.9857 10.6226 13.8001 10.6226ZM7.50003 12.7226C7.25539 12.7218 7.01525 12.6568 6.80369 12.5339C6.59214 12.411 6.4166 12.2347 6.29469 12.0226H8.70536C8.58346 12.2347 8.40792 12.411 8.19637 12.5339C7.98481 12.6568 7.74467 12.7218 7.50003 12.7226ZM4.00001 10.6226V6.42259C4.00001 5.49432 4.36877 4.60408 5.02515 3.9477C5.68153 3.29132 6.57177 2.92257 7.50003 2.92257C8.42829 2.92257 9.31853 3.29132 9.97491 3.9477C10.6313 4.60408 11 5.49432 11 6.42259V10.6226H4.00001Z" fill="white"/>
</svg>
