<svg width="62" height="62" viewBox="0 0 62 62" fill="none" xmlns="http://www.w3.org/2000/svg">
<rect width="62" height="62" rx="31" fill="#F95D5D"/>
<mask id="mask0_354_11182" style="mask-type:alpha" maskUnits="userSpaceOnUse" x="15" y="15" width="32" height="32">
<rect x="15" y="15" width="32" height="32" fill="#0E0E0E"/>
</mask>
<g mask="url(#mask0_354_11182)">
<path d="M22.9987 41.6667C22.2654 41.6667 21.6376 41.4056 21.1154 40.8834C20.5931 40.3612 20.332 39.7334 20.332 39C20.332 38.2667 20.5931 37.6389 21.1154 37.1167C21.6376 36.5945 22.2654 36.3334 22.9987 36.3334C23.732 36.3334 24.3598 36.5945 24.882 37.1167C25.4043 37.6389 25.6654 38.2667 25.6654 39C25.6654 39.7334 25.4043 40.3612 24.882 40.8834C24.3598 41.4056 23.732 41.6667 22.9987 41.6667ZM30.9987 41.6667C30.2654 41.6667 29.6376 41.4056 29.1154 40.8834C28.5931 40.3612 28.332 39.7334 28.332 39C28.332 38.2667 28.5931 37.6389 29.1154 37.1167C29.6376 36.5945 30.2654 36.3334 30.9987 36.3334C31.732 36.3334 32.3598 36.5945 32.882 37.1167C33.4043 37.6389 33.6654 38.2667 33.6654 39C33.6654 39.7334 33.4043 40.3612 32.882 40.8834C32.3598 41.4056 31.732 41.6667 30.9987 41.6667ZM38.9987 41.6667C38.2654 41.6667 37.6376 41.4056 37.1154 40.8834C36.5931 40.3612 36.332 39.7334 36.332 39C36.332 38.2667 36.5931 37.6389 37.1154 37.1167C37.6376 36.5945 38.2654 36.3334 38.9987 36.3334C39.732 36.3334 40.3598 36.5945 40.882 37.1167C41.4043 37.6389 41.6654 38.2667 41.6654 39C41.6654 39.7334 41.4043 40.3612 40.882 40.8834C40.3598 41.4056 39.732 41.6667 38.9987 41.6667ZM22.9987 33.6667C22.2654 33.6667 21.6376 33.4056 21.1154 32.8834C20.5931 32.3612 20.332 31.7334 20.332 31C20.332 30.2667 20.5931 29.6389 21.1154 29.1167C21.6376 28.5945 22.2654 28.3334 22.9987 28.3334C23.732 28.3334 24.3598 28.5945 24.882 29.1167C25.4043 29.6389 25.6654 30.2667 25.6654 31C25.6654 31.7334 25.4043 32.3612 24.882 32.8834C24.3598 33.4056 23.732 33.6667 22.9987 33.6667ZM30.9987 33.6667C30.2654 33.6667 29.6376 33.4056 29.1154 32.8834C28.5931 32.3612 28.332 31.7334 28.332 31C28.332 30.2667 28.5931 29.6389 29.1154 29.1167C29.6376 28.5945 30.2654 28.3334 30.9987 28.3334C31.732 28.3334 32.3598 28.5945 32.882 29.1167C33.4043 29.6389 33.6654 30.2667 33.6654 31C33.6654 31.7334 33.4043 32.3612 32.882 32.8834C32.3598 33.4056 31.732 33.6667 30.9987 33.6667ZM38.9987 33.6667C38.2654 33.6667 37.6376 33.4056 37.1154 32.8834C36.5931 32.3612 36.332 31.7334 36.332 31C36.332 30.2667 36.5931 29.6389 37.1154 29.1167C37.6376 28.5945 38.2654 28.3334 38.9987 28.3334C39.732 28.3334 40.3598 28.5945 40.882 29.1167C41.4043 29.6389 41.6654 30.2667 41.6654 31C41.6654 31.7334 41.4043 32.3612 40.882 32.8834C40.3598 33.4056 39.732 33.6667 38.9987 33.6667ZM22.9987 25.6667C22.2654 25.6667 21.6376 25.4056 21.1154 24.8834C20.5931 24.3612 20.332 23.7334 20.332 23C20.332 22.2667 20.5931 21.6389 21.1154 21.1167C21.6376 20.5945 22.2654 20.3334 22.9987 20.3334C23.732 20.3334 24.3598 20.5945 24.882 21.1167C25.4043 21.6389 25.6654 22.2667 25.6654 23C25.6654 23.7334 25.4043 24.3612 24.882 24.8834C24.3598 25.4056 23.732 25.6667 22.9987 25.6667ZM30.9987 25.6667C30.2654 25.6667 29.6376 25.4056 29.1154 24.8834C28.5931 24.3612 28.332 23.7334 28.332 23C28.332 22.2667 28.5931 21.6389 29.1154 21.1167C29.6376 20.5945 30.2654 20.3334 30.9987 20.3334C31.732 20.3334 32.3598 20.5945 32.882 21.1167C33.4043 21.6389 33.6654 22.2667 33.6654 23C33.6654 23.7334 33.4043 24.3612 32.882 24.8834C32.3598 25.4056 31.732 25.6667 30.9987 25.6667ZM38.9987 25.6667C38.2654 25.6667 37.6376 25.4056 37.1154 24.8834C36.5931 24.3612 36.332 23.7334 36.332 23C36.332 22.2667 36.5931 21.6389 37.1154 21.1167C37.6376 20.5945 38.2654 20.3334 38.9987 20.3334C39.732 20.3334 40.3598 20.5945 40.882 21.1167C41.4043 21.6389 41.6654 22.2667 41.6654 23C41.6654 23.7334 41.4043 24.3612 40.882 24.8834C40.3598 25.4056 39.732 25.6667 38.9987 25.6667Z" fill="#0E0E0E"/>
</g>
</svg>
