<svg width="25" height="25" viewBox="0 0 25 25" fill="none" xmlns="http://www.w3.org/2000/svg">
<g clip-path="url(#clip0_318_11181)">
<path d="M19.292 4.10043H18.784L16.6 1.26843C16.3185 0.90624 15.9583 0.61285 15.5467 0.410487C15.135 0.208125 14.6827 0.102096 14.224 0.100433L10.36 0.100433C9.90129 0.102096 9.44898 0.208125 9.03732 0.410487C8.62567 0.61285 8.26546 0.90624 7.98399 1.26843L5.79999 4.10043H5.29199C3.9664 4.10202 2.69555 4.62932 1.75821 5.56665C0.820874 6.50399 0.29358 7.77484 0.291992 9.10043L0.291992 19.1004C0.29358 20.426 0.820874 21.6969 1.75821 22.6342C2.69555 23.5716 3.9664 24.0988 5.29199 24.1004H19.292C20.6176 24.0988 21.8884 23.5716 22.8258 22.6342C23.7631 21.6969 24.2904 20.426 24.292 19.1004V9.10043C24.2904 7.77484 23.7631 6.50399 22.8258 5.56665C21.8884 4.62932 20.6176 4.10202 19.292 4.10043ZM9.56799 2.49043C9.66166 2.36949 9.78168 2.2715 9.91893 2.20392C10.0562 2.13633 10.207 2.10094 10.36 2.10043H14.224C14.3769 2.10109 14.5277 2.13655 14.665 2.20412C14.8022 2.27169 14.9222 2.3696 15.016 2.49043L16.258 4.10043H8.32599L9.56799 2.49043ZM22.292 19.1004C22.292 19.8961 21.9759 20.6591 21.4133 21.2218C20.8507 21.7844 20.0876 22.1004 19.292 22.1004H5.29199C4.49634 22.1004 3.73328 21.7844 3.17067 21.2218C2.60806 20.6591 2.29199 19.8961 2.29199 19.1004V9.10043C2.29199 8.30478 2.60806 7.54172 3.17067 6.97911C3.73328 6.4165 4.49634 6.10043 5.29199 6.10043H19.292C20.0876 6.10043 20.8507 6.4165 21.4133 6.97911C21.9759 7.54172 22.292 8.30478 22.292 9.10043V19.1004Z" fill="black"/>
<path d="M12.292 8.10043C11.1053 8.10043 9.94527 8.45233 8.95857 9.11162C7.97188 9.7709 7.20284 10.708 6.74872 11.8043C6.29459 12.9007 6.17577 14.1071 6.40728 15.271C6.63879 16.4349 7.21024 17.504 8.04935 18.3431C8.88847 19.1822 9.95757 19.7536 11.1215 19.9851C12.2853 20.2167 13.4917 20.0978 14.5881 19.6437C15.6845 19.1896 16.6215 18.4206 17.2808 17.4339C17.9401 16.4472 18.292 15.2871 18.292 14.1004C18.2904 12.5096 17.6578 10.9844 16.5329 9.85955C15.408 8.73467 13.8828 8.10202 12.292 8.10043ZM12.292 18.1004C11.5009 18.1004 10.7275 17.8658 10.0697 17.4263C9.41192 16.9868 8.89923 16.3621 8.59648 15.6312C8.29373 14.9003 8.21451 14.096 8.36885 13.3201C8.52319 12.5441 8.90416 11.8314 9.46357 11.272C10.023 10.7126 10.7357 10.3316 11.5116 10.1773C12.2876 10.023 13.0918 10.1022 13.8227 10.4049C14.5536 10.7077 15.1783 11.2204 15.6179 11.8782C16.0574 12.5359 16.292 13.3093 16.292 14.1004C16.292 15.1613 15.8706 16.1787 15.1204 16.9289C14.3703 17.679 13.3529 18.1004 12.292 18.1004Z" fill="black"/>
</g>
<defs>
<clipPath id="clip0_318_11181">
<rect width="24" height="24" fill="white" transform="translate(0.291992 0.100433)"/>
</clipPath>
</defs>
</svg>
