<svg width="20" height="20" viewBox="0 0 20 20" fill="none" xmlns="http://www.w3.org/2000/svg">
<path d="M15.7016 4.21583C15.2049 1.33333 13.3799 0 11.6666 0V1.66667C12.6449 1.66667 13.6316 2.55417 14.0083 4.26583C12.878 4.49616 11.8618 5.10961 11.1315 6.00253C10.4012 6.89546 10.0015 8.01312 9.99995 9.16667C9.99995 11.25 8.01662 12.5 6.09912 12.5C3.20662 12.5 2.24245 10.1667 1.94412 8.20833L1.83328 7.5H0.29745L0.17245 8.1825C-0.0851036 9.55132 -0.0538676 10.9589 0.264156 12.3149C0.58218 13.6709 1.17998 14.9456 2.01924 16.0572C2.85851 17.1688 3.92074 18.0928 5.13786 18.77C6.35497 19.4472 7.70014 19.8627 9.08717 19.9899C10.4742 20.117 11.8725 19.953 13.1924 19.5084C14.5124 19.0637 15.7249 18.3482 16.7523 17.4077C17.7797 16.4672 18.5992 15.3225 19.1585 14.0469C19.7177 12.7712 20.0044 11.3928 20 10V9.16667C19.9985 7.96253 19.5631 6.79924 18.7737 5.88998C17.9843 4.98072 16.8936 4.38636 15.7016 4.21583ZM16.9841 6.48917C16.7566 6.8023 16.4583 7.05715 16.1134 7.23287C15.7685 7.40859 15.387 7.5002 15 7.5002C14.6129 7.5002 14.2314 7.40859 13.8865 7.23287C13.5416 7.05715 13.2433 6.8023 13.0158 6.48917C13.5899 6.06387 14.2855 5.8343 15 5.8343C15.7144 5.8343 16.41 6.06387 16.9841 6.48917ZM18.3333 10C18.334 11.9933 17.6202 13.9208 16.3214 15.4329C15.0225 16.9449 13.2248 17.9413 11.2542 18.2413C9.28358 18.5413 7.27073 18.1251 5.58079 17.068C3.89086 16.011 2.63579 14.3832 2.04328 12.48C2.5599 13.0342 3.18911 13.4714 3.88865 13.7623C4.58819 14.0532 5.34189 14.1911 6.09912 14.1667C9.22078 14.1667 11.6666 11.97 11.6666 9.16667C11.6662 8.70134 11.7636 8.24113 11.9524 7.81583C12.338 8.24117 12.8084 8.58109 13.3332 8.81371C13.8581 9.04634 14.4258 9.16651 15 9.16651C15.5741 9.16651 16.1418 9.04634 16.6667 8.81371C17.1915 8.58109 17.6619 8.24117 18.0474 7.81583C18.2363 8.24113 18.3337 8.70134 18.3333 9.16667V10Z" fill="#F95D5D"/>
</svg>
