<svg width="41" height="40" viewBox="0 0 41 40" fill="none" xmlns="http://www.w3.org/2000/svg">
<rect x="1.5" y="1" width="38" height="38" rx="19" stroke="white" stroke-opacity="0.1" stroke-width="2"/>
<path d="M30.5 12H25.5V10C25.5 9.46957 25.2893 8.96086 24.9142 8.58579C24.5391 8.21071 24.0304 8 23.5 8H17.5C16.9696 8 16.4609 8.21071 16.0858 8.58579C15.7107 8.96086 15.5 9.46957 15.5 10V12H10.5V14H12.5V29C12.5 29.7956 12.8161 30.5587 13.3787 31.1213C13.9413 31.6839 14.7044 32 15.5 32H25.5C26.2956 32 27.0587 31.6839 27.6213 31.1213C28.1839 30.5587 28.5 29.7956 28.5 29V14H30.5V12ZM17.5 10H23.5V12H17.5V10ZM26.5 29C26.5 29.2652 26.3946 29.5196 26.2071 29.7071C26.0196 29.8946 25.7652 30 25.5 30H15.5C15.2348 30 14.9804 29.8946 14.7929 29.7071C14.6054 29.5196 14.5 29.2652 14.5 29V14H26.5V29Z" fill="white"/>
<path d="M19.5 18H17.5V26H19.5V18Z" fill="white"/>
<path d="M23.5 18H21.5V26H23.5V18Z" fill="white"/>
</svg>
