<svg width="20" height="20" viewBox="0 0 20 20" fill="none" xmlns="http://www.w3.org/2000/svg">
<path d="M12.0622 10.7802C11.8234 10.7802 11.5899 10.7094 11.3913 10.5767C11.1928 10.444 11.038 10.2554 10.9466 10.0348C10.8552 9.81416 10.8313 9.57137 10.8779 9.33714C10.9245 9.1029 11.0395 8.88775 11.2083 8.71888C11.3772 8.55 11.5924 8.435 11.8266 8.38841C12.0608 8.34182 12.3036 8.36573 12.5243 8.45712C12.7449 8.54852 12.9335 8.70329 13.0662 8.90186C13.1989 9.10043 13.2697 9.33389 13.2697 9.57271C13.2697 9.89296 13.1425 10.2001 12.916 10.4265C12.6896 10.653 12.3824 10.7802 12.0622 10.7802ZM19.6493 14.9211C19.7498 15.4993 19.7226 16.0924 19.5697 16.659C19.4168 17.2255 19.1418 17.7518 18.7641 18.2009C18.3864 18.65 17.9151 19.0111 17.3831 19.2589C16.8512 19.5066 16.2715 19.6351 15.6847 19.6352H12.4647C12.2512 19.6352 12.0464 19.5504 11.8955 19.3994C11.7445 19.2485 11.6597 19.0437 11.6597 18.8302V17.0085C11.1342 17.1471 10.5931 17.2182 10.0497 17.2202C9.50588 17.2174 8.96474 17.1444 8.43967 17.0029V18.8302C8.43967 19.0437 8.35486 19.2485 8.20389 19.3994C8.05293 19.5504 7.84817 19.6352 7.63467 19.6352H4.41467C3.82785 19.6351 3.24816 19.5066 2.71621 19.2589C2.18426 19.0111 1.71291 18.65 1.33521 18.2009C0.957501 17.7518 0.682564 17.2255 0.52966 16.659C0.376757 16.0924 0.349585 15.4993 0.450049 14.9211L0.691549 13.5204C0.771854 13.0546 0.989877 12.6234 1.3175 12.2827C1.64513 11.9419 2.06733 11.707 2.52967 11.6085C2.99201 11.5099 3.47328 11.5521 3.91142 11.7296C4.34956 11.9071 4.72448 12.2118 4.98783 12.6043C6.00535 14.1 7.96392 15.6102 10.0497 15.6102C12.5693 15.6102 15.0519 13.3731 15.7893 11.2825C15.8485 11.1254 15.954 10.9899 16.0918 10.894C16.2297 10.7982 16.3934 10.7464 16.5613 10.7456L16.9091 10.7512C17.0649 10.7531 17.2196 10.7241 17.3642 10.6657C17.5087 10.6073 17.6402 10.5207 17.751 10.4111C17.8617 10.3014 17.9496 10.1708 18.0095 10.0269C18.0693 9.88298 18.1 9.72859 18.0997 9.57271C18.0994 9.29037 18.0002 9.01705 17.8193 8.80027C17.6384 8.5835 17.3873 8.43696 17.1095 8.38614C16.9382 8.35507 16.7817 8.26932 16.6632 8.14175C16.5448 8.01418 16.4709 7.85165 16.4526 7.67854C16.2872 6.09695 15.5408 4.63301 14.3579 3.57016C13.175 2.50731 11.6399 1.92116 10.0497 1.92521C5.56019 1.92521 4.32773 4.84575 3.33758 7.19313C3.15726 7.61736 2.98741 8.02228 2.80467 8.38694C4.42336 8.30135 6.00173 7.85081 7.42169 7.06904C8.84165 6.28727 10.0664 5.1945 11.0044 3.8725C11.0658 3.78645 11.1436 3.71334 11.2333 3.65734C11.3229 3.60135 11.4228 3.56356 11.527 3.54614C11.6313 3.52873 11.738 3.53202 11.841 3.55583C11.944 3.57965 12.0413 3.62352 12.1274 3.68494C12.2134 3.74636 12.2865 3.82413 12.3425 3.9138C12.3985 4.00348 12.4363 4.1033 12.4537 4.20758C12.4712 4.31186 12.4679 4.41855 12.444 4.52155C12.4202 4.62456 12.3764 4.72186 12.3149 4.80791C11.2701 6.28924 9.90689 7.51792 8.32536 8.40385C8.56644 8.46304 8.78342 8.59509 8.94675 8.78202C9.11008 8.96895 9.21184 9.20168 9.23815 9.44852C9.26446 9.69536 9.21406 9.94431 9.09381 10.1615C8.97355 10.3786 8.78929 10.5535 8.5661 10.6621C8.34292 10.7708 8.09167 10.8081 7.84655 10.7688C7.60144 10.7296 7.37437 10.6158 7.19628 10.4428C7.01818 10.2699 6.89771 10.0463 6.85127 9.80243C6.80483 9.55857 6.83467 9.30633 6.93674 9.08005C5.0859 9.8295 3.08465 10.1328 1.09485 9.96555C0.929001 9.94332 0.774198 9.86996 0.651973 9.75567C0.529748 9.64138 0.446177 9.49184 0.412883 9.32785C0.379589 9.16386 0.398227 8.99357 0.466205 8.84066C0.534183 8.68776 0.648121 8.55983 0.792174 8.47469C1.27882 7.92254 1.64095 7.27214 1.85397 6.56764C2.90449 4.07778 4.49517 0.315208 10.0497 0.315208C11.9449 0.310718 13.7807 0.976957 15.2319 2.19598C16.6831 3.415 17.6562 5.10818 17.9789 6.97578C18.4912 7.18994 18.9288 7.55069 19.2367 8.01272C19.5446 8.47475 19.7092 9.01747 19.7097 9.57271C19.7083 10.2416 19.464 10.8873 19.0222 11.3896C19.0278 11.4105 19.0423 11.4274 19.0464 11.45L19.6493 14.9211ZM6.82967 16.3669C5.55637 15.6846 4.4677 14.7034 3.65717 13.5075C3.58819 13.4033 3.49461 13.3176 3.38468 13.2581C3.27475 13.1986 3.15186 13.167 3.02685 13.1662H3.01317C2.83692 13.1699 2.66744 13.2347 2.53368 13.3496C2.39991 13.4644 2.31018 13.6221 2.27981 13.7957L2.03831 15.1956C1.97789 15.5424 1.994 15.8982 2.08552 16.2381C2.17704 16.578 2.34175 16.8938 2.56813 17.1633C2.79451 17.4329 3.07708 17.6497 3.39604 17.7986C3.71501 17.9475 4.06267 18.0248 4.41467 18.0252H6.82967V16.3669ZM18.0634 15.1956L17.5579 12.2872C17.4048 12.3237 17.2489 12.3468 17.0918 12.3564C16.2797 14.0702 14.9403 15.4789 13.2697 16.3766V18.0252H15.6847C16.0368 18.0251 16.3846 17.9481 16.7038 17.7994C17.023 17.6507 17.3059 17.434 17.5325 17.1645C17.7591 16.895 17.9241 16.5792 18.0158 16.2392C18.1075 15.8993 18.1238 15.5426 18.0634 15.1956Z" fill="white"/>
</svg>
