<svg width="66" height="67" viewBox="0 0 66 67" fill="none" xmlns="http://www.w3.org/2000/svg">
<g clip-path="url(#clip0_289_4525)">
<path d="M41.2308 16.9835H41.2197L24.739 16.9972C18.6807 17.0028 13.75 21.9362 13.75 27.9972V36.2445C13.75 39.1842 14.894 41.948 16.973 44.0243C19.052 46.1005 21.813 47.2445 24.75 47.2445H24.7583L41.239 47.2363C47.3 47.2335 52.2308 42.2972 52.2308 36.2362V27.9862C52.2308 25.0465 51.084 22.2827 49.005 20.2038C46.926 18.1302 44.165 16.9835 41.2308 16.9835ZM24.7445 22.4972L41.2253 22.4835H41.2308C41.7285 22.4835 42.218 22.5495 42.6855 22.6787L35.739 29.6252C34.2897 31.0745 31.757 31.0745 30.305 29.6252L23.3585 22.676C23.8013 22.5605 24.266 22.4972 24.7445 22.4972ZM46.7308 36.2362C46.7308 39.2668 44.2668 41.7362 41.2335 41.7362L24.7528 41.7445C23.2843 41.7445 21.9037 41.1725 20.8643 40.1357C19.8247 39.099 19.2528 37.7158 19.2528 36.2445V27.9972C19.2528 27.494 19.3215 27.0072 19.4508 26.5425L26.422 33.5165C28.1875 35.2792 30.5333 36.2528 33.0275 36.2528C35.5218 36.2528 37.8703 35.2792 39.6302 33.5165L46.5548 26.592C46.673 27.043 46.7335 27.5105 46.7335 27.9862L46.7308 36.2362ZM33 0.5C14.8032 0.5 0 15.3032 0 33.5C0 51.6968 14.8032 66.5 33 66.5C51.1968 66.5 66 51.6968 66 33.5C66 15.3032 51.1968 0.5 33 0.5ZM33 61C17.8365 61 5.5 48.6635 5.5 33.5C5.5 18.3365 17.8365 6 33 6C48.1635 6 60.5 18.3365 60.5 33.5C60.5 48.6635 48.1635 61 33 61Z" fill="#F95D5D"/>
</g>
<defs>
<clipPath id="clip0_289_4525">
<rect width="66" height="66" fill="white" transform="translate(0 0.5)"/>
</clipPath>
</defs>
</svg>
