<svg width="16" height="16" viewBox="0 0 16 16" fill="none" xmlns="http://www.w3.org/2000/svg">
<g clip-path="url(#clip0_354_11863)">
<path d="M9.99533 3.996H9.99267L5.99733 3.99933C4.52867 4.00067 3.33333 5.19667 3.33333 6.666V8.66533C3.33333 9.378 3.61067 10.048 4.11467 10.5513C4.61867 11.0547 5.288 11.332 6 11.332H6.002L9.99733 11.33C11.4667 11.3293 12.662 10.1327 12.662 8.66333V6.66333C12.662 5.95067 12.384 5.28067 11.88 4.77667C11.376 4.274 10.7067 3.996 9.99533 3.996ZM5.99867 5.33267L9.994 5.32933H9.99533C10.116 5.32933 10.2347 5.34533 10.348 5.37667L8.664 7.06067C8.31267 7.412 7.69867 7.412 7.34667 7.06067L5.66267 5.376C5.77 5.348 5.88267 5.33267 5.99867 5.33267ZM11.3287 8.66333C11.3287 9.398 10.7313 9.99667 9.996 9.99667L6.00067 9.99867C5.64467 9.99867 5.31 9.86 5.058 9.60867C4.806 9.35733 4.66733 9.022 4.66733 8.66533V6.666C4.66733 6.544 4.684 6.426 4.71533 6.31333L6.40533 8.004C6.83333 8.43133 7.402 8.66733 8.00667 8.66733C8.61133 8.66733 9.18067 8.43133 9.60733 8.004L11.286 6.32533C11.3147 6.43467 11.3293 6.548 11.3293 6.66333L11.3287 8.66333ZM8 0C3.58867 0 0 3.58867 0 8C0 12.4113 3.58867 16 8 16C12.4113 16 16 12.4113 16 8C16 3.58867 12.4113 0 8 0ZM8 14.6667C4.324 14.6667 1.33333 11.676 1.33333 8C1.33333 4.324 4.324 1.33333 8 1.33333C11.676 1.33333 14.6667 4.324 14.6667 8C14.6667 11.676 11.676 14.6667 8 14.6667Z" fill="black"/>
</g>
<defs>
<clipPath id="clip0_354_11863">
<rect width="16" height="16" fill="white"/>
</clipPath>
</defs>
</svg>
