<svg width="18" height="19" viewBox="0 0 18 19" fill="none" xmlns="http://www.w3.org/2000/svg">
<path d="M11.2448 4.9955H11.2418L6.747 4.99925C5.09475 5.00075 3.75 6.34625 3.75 7.99925V10.2485C3.75 11.0503 4.062 11.804 4.629 12.3702C5.196 12.9365 5.949 13.2485 6.75 13.2485H6.75225L11.247 13.2463C12.9 13.2455 14.2448 11.8993 14.2448 10.2463V7.99625C14.2448 7.1945 13.932 6.44075 13.365 5.87375C12.798 5.30825 12.045 4.9955 11.2448 4.9955ZM6.7485 6.49925L11.2432 6.4955H11.2448C11.3805 6.4955 11.514 6.5135 11.6415 6.54875L9.747 8.44325C9.35175 8.8385 8.661 8.8385 8.265 8.44325L6.3705 6.548C6.49125 6.5165 6.618 6.49925 6.7485 6.49925ZM12.7448 10.2463C12.7448 11.0728 12.0728 11.7463 11.2455 11.7463L6.75075 11.7485C6.35025 11.7485 5.97375 11.5925 5.69025 11.3097C5.40675 11.027 5.25075 10.6497 5.25075 10.2485V7.99925C5.25075 7.862 5.2695 7.72925 5.30475 7.6025L7.206 9.5045C7.6875 9.98525 8.32725 10.2508 9.0075 10.2508C9.68775 10.2508 10.3282 9.98525 10.8083 9.5045L12.6968 7.616C12.729 7.739 12.7455 7.8665 12.7455 7.99625L12.7448 10.2463ZM9 0.5C4.03725 0.5 0 4.53725 0 9.5C0 14.4628 4.03725 18.5 9 18.5C13.9628 18.5 18 14.4628 18 9.5C18 4.53725 13.9628 0.5 9 0.5ZM9 17C4.8645 17 1.5 13.6355 1.5 9.5C1.5 5.3645 4.8645 2 9 2C13.1355 2 16.5 5.3645 16.5 9.5C16.5 13.6355 13.1355 17 9 17Z" fill="white"/>
</svg>
