<svg width="20" height="20" viewBox="0 0 20 20" fill="none" xmlns="http://www.w3.org/2000/svg">
<g clip-path="url(#clip0_181_9289)">
<path d="M1.66667 17.5V2.5C1.66667 2.27899 1.75446 2.06702 1.91074 1.91074C2.06702 1.75446 2.27899 1.66667 2.5 1.66667H6.66667V0H2.5C1.83696 0 1.20107 0.263392 0.732233 0.732233C0.263392 1.20107 0 1.83696 0 2.5L0 17.5C0 18.163 0.263392 18.7989 0.732233 19.2678C1.20107 19.7366 1.83696 20 2.5 20H6.66667V18.3333H2.5C2.27899 18.3333 2.06702 18.2455 1.91074 18.0893C1.75446 17.933 1.66667 17.721 1.66667 17.5Z" fill="#F95D5D"/>
<path d="M19.2705 8.23255L15.4488 4.41089L14.2705 5.58922L17.8238 9.14255L4.16797 9.16672V10.8334L17.8705 10.8092L14.2688 14.4109L15.4471 15.5892L19.2688 11.7676C19.7377 11.299 20.0013 10.6633 20.0016 10.0004C20.0019 9.33749 19.7389 8.70159 19.2705 8.23255Z" fill="#F95D5D"/>
</g>
<defs>
<clipPath id="clip0_181_9289">
<rect width="20" height="20" fill="white"/>
</clipPath>
</defs>
</svg>
