<svg width="18" height="19" viewBox="0 0 18 19" fill="none" xmlns="http://www.w3.org/2000/svg">
<g clip-path="url(#clip0_2025_2253)">
<path d="M14.25 6.818V5.75C14.25 4.35761 13.6969 3.02226 12.7123 2.03769C11.7277 1.05312 10.3924 0.5 9 0.5C7.60761 0.5 6.27226 1.05312 5.28769 2.03769C4.30312 3.02226 3.75 4.35761 3.75 5.75V6.818C3.08202 7.10953 2.51347 7.58939 2.11387 8.19891C1.71428 8.80842 1.50096 9.52118 1.5 10.25V14.75C1.50119 15.7442 1.89666 16.6973 2.59967 17.4003C3.30267 18.1033 4.2558 18.4988 5.25 18.5H12.75C13.7442 18.4988 14.6973 18.1033 15.4003 17.4003C16.1033 16.6973 16.4988 15.7442 16.5 14.75V10.25C16.499 9.52118 16.2857 8.80842 15.8861 8.19891C15.4865 7.58939 14.918 7.10953 14.25 6.818ZM5.25 5.75C5.25 4.75544 5.64509 3.80161 6.34835 3.09835C7.05161 2.39509 8.00544 2 9 2C9.99456 2 10.9484 2.39509 11.6517 3.09835C12.3549 3.80161 12.75 4.75544 12.75 5.75V6.5H5.25V5.75ZM15 14.75C15 15.3467 14.7629 15.919 14.341 16.341C13.919 16.7629 13.3467 17 12.75 17H5.25C4.65326 17 4.08097 16.7629 3.65901 16.341C3.23705 15.919 3 15.3467 3 14.75V10.25C3 9.65326 3.23705 9.08097 3.65901 8.65901C4.08097 8.23705 4.65326 8 5.25 8H12.75C13.3467 8 13.919 8.23705 14.341 8.65901C14.7629 9.08097 15 9.65326 15 10.25V14.75Z" fill="white"/>
<path d="M9 11C8.80109 11 8.61032 11.079 8.46967 11.2197C8.32902 11.3603 8.25 11.5511 8.25 11.75V13.25C8.25 13.4489 8.32902 13.6397 8.46967 13.7803C8.61032 13.921 8.80109 14 9 14C9.19891 14 9.38968 13.921 9.53033 13.7803C9.67098 13.6397 9.75 13.4489 9.75 13.25V11.75C9.75 11.5511 9.67098 11.3603 9.53033 11.2197C9.38968 11.079 9.19891 11 9 11Z" fill="white"/>
</g>
<defs>
<clipPath id="clip0_2025_2253">
<rect width="18" height="18" fill="white" transform="translate(0 0.5)"/>
</clipPath>
</defs>
</svg>
