<svg width="25" height="25" viewBox="0 0 25 25"  xmlns="http://www.w3.org/2000/svg">
<mask id="mask0_2025_4558" style="mask-type:alpha" maskUnits="userSpaceOnUse" x="0" y="0" width="25" height="25">
<rect x="0.601562" y="0.800049" width="24" height="24" fill="#000"/>
</mask>
<g mask="url(#mask0_2025_4558)">
<path d="M2.60156 24.8V20.8H22.6016V24.8H2.60156ZM6.60156 16.8H8.00156L15.8016 9.02505L14.3766 7.60005L6.60156 15.4V16.8ZM4.60156 18.8V14.55L15.8016 3.37505C15.9849 3.19172 16.1974 3.05005 16.4391 2.95005C16.6807 2.85005 16.9349 2.80005 17.2016 2.80005C17.4682 2.80005 17.7266 2.85005 17.9766 2.95005C18.2266 3.05005 18.4516 3.20005 18.6516 3.40005L20.0266 4.80005C20.2266 4.98338 20.3724 5.20005 20.4641 5.45005C20.5557 5.70005 20.6016 5.95838 20.6016 6.22505C20.6016 6.47505 20.5557 6.72088 20.4641 6.96255C20.3724 7.20422 20.2266 7.42505 20.0266 7.62505L8.85156 18.8H4.60156Z" />
</g>
</svg>
