<svg width="63" height="62" viewBox="0 0 63 62" fill="none" xmlns="http://www.w3.org/2000/svg">
<rect x="0.164062" width="62" height="62" rx="31" fill="white"/>
<g clip-path="url(#clip0_354_11201)">
<path d="M40.4551 24.75L38.0651 21.5225C37.7281 21.052 37.284 20.6686 36.7694 20.4038C36.2548 20.1391 35.6846 20.0007 35.1059 20H27.2242C26.6501 19.9994 26.084 20.1351 25.5725 20.3959C25.061 20.6566 24.6186 21.035 24.2817 21.5L21.8317 24.7675C21.3786 25.4038 21.1434 26.1696 21.1611 26.9505C21.1788 27.7315 21.4486 28.4857 21.9301 29.1008L28.9392 38.925C29.2046 39.2611 29.5428 39.5326 29.9284 39.7188C30.314 39.905 30.7369 40.0012 31.1651 40C31.6033 39.9989 32.0353 39.8968 32.4277 39.7017C32.8201 39.5066 33.1622 39.2237 33.4276 38.875L40.3442 29.2008C40.8531 28.576 41.1401 27.7999 41.1601 26.9944C41.1802 26.1888 40.9322 25.3994 40.4551 24.75ZM23.8542 26.2392L26.2992 22.9758C26.4046 22.8288 26.5434 22.7089 26.7043 22.6262C26.8651 22.5434 27.0434 22.5002 27.2242 22.5H29.2167L27.9834 26.8183L28.0542 27.0833H34.2759L34.3467 26.8183L33.1134 22.5H35.1059C35.2903 22.5011 35.4717 22.5465 35.6348 22.6324C35.798 22.7182 35.9381 22.842 36.0434 22.9933L38.4426 26.235C38.5292 26.3565 38.5901 26.4944 38.6216 26.6403C38.6531 26.7861 38.6546 26.9369 38.6259 27.0833H34.2759L31.5926 37.1458L31.4317 37.3717C31.4002 37.4122 31.3597 37.4448 31.3134 37.4671C31.2672 37.4893 31.2164 37.5006 31.1651 37.5C31.0817 37.5042 31 37.4761 30.9367 37.4217L30.7359 37.1408L28.0542 27.0833H23.6992C23.6665 26.9395 23.6634 26.7904 23.69 26.6453C23.7167 26.5002 23.7725 26.362 23.8542 26.2392Z" fill="#F95D5D"/>
</g>
<defs>
<clipPath id="clip0_354_11201">
<rect width="20" height="20" fill="white" transform="translate(21.1641 20)"/>
</clipPath>
</defs>
</svg>
