<svg width="25" height="25" viewBox="0 0 25 25" fill="none" xmlns="http://www.w3.org/2000/svg">
<path d="M10.333 10.9504C10.333 11.3284 10.604 11.6484 10.977 11.7104L14.018 12.2174C15.36 12.4404 16.333 13.5904 16.333 14.9504C16.333 16.6044 14.987 17.9504 13.333 17.9504V19.9504H11.333V17.9504C9.67903 17.9504 8.33303 16.6044 8.33303 14.9504H10.333C10.333 15.5014 10.782 15.9504 11.333 15.9504H13.333C13.885 15.9504 14.333 15.5014 14.333 14.9504C14.333 14.5724 14.062 14.2524 13.689 14.1904L10.647 13.6834C9.30603 13.4604 8.33203 12.3104 8.33203 10.9504C8.33203 9.29644 9.67803 7.95044 11.332 7.95044V5.95044H13.332V7.95044C14.986 7.95044 16.332 9.29644 16.332 10.9504H14.332C14.332 10.3994 13.884 9.95044 13.332 9.95044H11.332C10.781 9.95044 10.332 10.3994 10.332 10.9504H10.333ZM22.413 17.1254C22.535 18.7164 21.962 20.2914 20.818 21.4354C19.674 22.5784 18.097 23.1504 16.508 23.0304C15.468 24.2424 13.949 24.9504 12.332 24.9504C10.715 24.9504 9.19603 24.2424 8.15703 23.0304C6.56003 23.1504 4.99003 22.5784 3.84703 21.4354C2.70303 20.2914 2.13003 18.7174 2.25203 17.1254C1.04003 16.0864 0.332031 14.5674 0.332031 12.9504C0.332031 11.3334 1.04003 9.81444 2.25203 8.77544C2.13003 7.18344 2.70303 5.60844 3.84703 4.46544C4.99103 3.32244 6.56303 2.74844 8.15703 2.87044C9.19603 1.65844 10.715 0.950439 12.332 0.950439C13.949 0.950439 15.468 1.65844 16.508 2.87044C18.096 2.74744 19.674 3.32144 20.818 4.46544C21.962 5.61044 22.535 7.18444 22.413 8.77544C23.625 9.81444 24.333 11.3334 24.333 12.9504C24.333 14.5674 23.625 16.0864 22.413 17.1254ZM22.333 12.9504C22.333 11.7844 21.755 10.6994 20.787 10.0464L20.237 9.67644L20.364 9.02644C20.587 7.88144 20.228 6.70444 19.404 5.88044C18.58 5.05644 17.404 4.69844 16.257 4.92044L15.608 5.04644L15.238 4.49744C14.585 3.52944 13.499 2.95144 12.334 2.95144C11.169 2.95144 10.083 3.52944 9.43003 4.49744L9.06003 5.04644L8.41003 4.92044C7.26303 4.69744 6.08703 5.05644 5.26303 5.88044C4.43903 6.70444 4.08003 7.88144 4.30303 9.02744L4.42903 9.67744L3.88003 10.0474C2.91203 10.7004 2.33403 11.7864 2.33403 12.9514C2.33403 14.1164 2.91203 15.2024 3.88003 15.8554L4.42903 16.2254L4.30303 16.8754C4.08003 18.0214 4.43903 19.1984 5.26303 20.0224C6.08703 20.8454 7.26403 21.2044 8.41003 20.9824L9.06003 20.8564L9.43003 21.4054C10.083 22.3734 11.169 22.9514 12.334 22.9514C13.499 22.9514 14.585 22.3734 15.238 21.4054L15.608 20.8564L16.257 20.9824C17.405 21.2054 18.58 20.8464 19.404 20.0224C20.228 19.1974 20.587 18.0214 20.364 16.8764L20.237 16.2264L20.787 15.8564C21.755 15.2034 22.333 14.1174 22.333 12.9524V12.9504Z" fill="#F95D5D"/>
</svg>
