<svg width="16" height="16" viewBox="0 0 16 16" fill="none" xmlns="http://www.w3.org/2000/svg">
<g clip-path="url(#clip0_354_11875)">
<path d="M7.93536 10.6666C8.48736 10.6666 8.93536 11.1146 8.93536 11.6666C8.93536 12.2186 8.48736 12.6666 7.93536 12.6666C7.38336 12.6666 6.93536 12.2186 6.93536 11.6666C6.93536 11.1146 7.38336 10.6666 7.93536 10.6666ZM8.60202 9.33327C8.60202 8.95927 8.87402 8.51661 9.22069 8.32527C10.2207 7.77461 10.7587 6.64327 10.56 5.50994C10.3714 4.43461 9.48869 3.55127 8.41269 3.36261C7.62469 3.22661 6.82602 3.43727 6.22002 3.94527C5.61536 4.45394 5.26802 5.19794 5.26802 5.98727C5.26802 6.35594 5.56669 6.65394 5.93469 6.65394C6.30269 6.65394 6.60136 6.35594 6.60136 5.98727C6.60136 5.59261 6.77469 5.22061 7.07736 4.96594C7.38469 4.70861 7.77869 4.60461 8.18202 4.67594C8.70669 4.76794 9.15402 5.21594 9.24602 5.73994C9.34802 6.32061 9.08536 6.87661 8.57669 7.15661C7.80602 7.58127 7.26802 8.47594 7.26802 9.33261C7.26802 9.70127 7.56669 9.99927 7.93469 9.99927C8.30269 9.99927 8.60136 9.70127 8.60136 9.33261L8.60202 9.33327ZM15.9994 12.6666V8.22661C15.9994 3.90727 12.73 0.302606 8.55669 0.0186063C6.24002 -0.134727 3.97336 0.710606 2.33869 2.34727C0.704023 3.98461 -0.14131 6.25194 0.0193566 8.56927C0.31269 12.8053 4.05402 15.9999 8.72202 15.9999H12.6667C14.5047 15.9999 15.9994 14.5046 15.9994 12.6666ZM8.46669 1.34927C11.9434 1.58527 14.666 4.60594 14.666 8.22594V12.6659C14.666 13.7686 13.7687 14.6659 12.666 14.6659H8.72136C4.69802 14.6659 1.59736 12.0633 1.34869 8.47661C1.21469 6.54394 1.91869 4.65327 3.28136 3.28927C4.53602 2.03261 6.23802 1.33327 8.00936 1.33327C8.16136 1.33327 8.31402 1.33861 8.46602 1.34861L8.46669 1.34927Z" fill="black"/>
</g>
<defs>
<clipPath id="clip0_354_11875">
<rect width="16" height="16" fill="white"/>
</clipPath>
</defs>
</svg>
