<svg width="24" height="25" viewBox="0 0 24 25" fill="none" xmlns="http://www.w3.org/2000/svg">
<path d="M19 2.95041H16.461C15.7695 2.16222 14.8807 1.57235 13.8858 1.24141C12.8909 0.910482 11.8258 0.850422 10.8 1.06741C9.55068 1.32218 8.42128 1.98448 7.589 2.95041H5C3.67441 2.952 2.40356 3.47929 1.46622 4.41663C0.528882 5.35397 0.00158786 6.62481 0 7.95041L0 19.9504C0.00158786 21.276 0.528882 22.5469 1.46622 23.4842C2.40356 24.4215 3.67441 24.9488 5 24.9504H19C20.3256 24.9488 21.5964 24.4215 22.5338 23.4842C23.4711 22.5469 23.9984 21.276 24 19.9504V7.95041C23.9984 6.62481 23.4711 5.35397 22.5338 4.41663C21.5964 3.47929 20.3256 2.952 19 2.95041ZM12 2.95041C13.0609 2.95041 14.0783 3.37183 14.8284 4.12198C15.5786 4.87213 16 5.88954 16 6.95041C16 7.21562 15.8946 7.46998 15.7071 7.65751C15.5196 7.84505 15.2652 7.95041 15 7.95041H12.868L13.832 6.50541C13.9792 6.28475 14.0327 6.01465 13.9808 5.75454C13.9288 5.49443 13.7757 5.2656 13.555 5.11841C13.3343 4.97121 13.0642 4.9177 12.8041 4.96965C12.544 5.0216 12.3152 5.17475 12.168 5.39541L10.465 7.95041H9C8.73478 7.95041 8.48043 7.84505 8.29289 7.65751C8.10536 7.46998 8 7.21562 8 6.95041C8 5.88954 8.42143 4.87213 9.17157 4.12198C9.92172 3.37183 10.9391 2.95041 12 2.95041ZM22 19.9504C22 20.7461 21.6839 21.5091 21.1213 22.0717C20.5587 22.6343 19.7956 22.9504 19 22.9504H5C4.20435 22.9504 3.44129 22.6343 2.87868 22.0717C2.31607 21.5091 2 20.7461 2 19.9504V7.95041C2 7.15476 2.31607 6.3917 2.87868 5.82909C3.44129 5.26648 4.20435 4.95041 5 4.95041H6.393C6.1339 5.66019 6.0009 6.40981 6 7.16541C6.00079 7.90379 6.29447 8.61171 6.81658 9.13382C7.3387 9.65594 8.04662 9.94961 8.785 9.95041H15.215C15.932 9.957 16.6235 9.6845 17.1432 9.19052C17.6629 8.69655 17.9702 8.01982 18 7.30341C18.01 6.50585 17.8939 5.71171 17.656 4.95041H19C19.7956 4.95041 20.5587 5.26648 21.1213 5.82909C21.6839 6.3917 22 7.15476 22 7.95041V19.9504Z" fill="#F95D5D"/>
</svg>
