<svg width="23" height="22" viewBox="0 0 23 22" fill="none" xmlns="http://www.w3.org/2000/svg">
<g clip-path="url(#clip0_181_1199)">
<path d="M11.5 6.01562C8.75159 6.01562 6.51562 8.25163 6.51562 11C6.51562 13.7484 8.75159 15.9844 11.5 15.9844C12.0133 15.9844 12.5199 15.9065 13.0055 15.7528C13.458 15.6096 13.7086 15.1266 13.5654 14.6741C13.4222 14.2216 12.9392 13.9709 12.4868 14.1141C12.1692 14.2147 11.8372 14.2656 11.5 14.2656C9.69935 14.2656 8.23438 12.8007 8.23438 11C8.23438 9.19931 9.69935 7.73438 11.5 7.73438C13.3006 7.73438 14.7656 9.19931 14.7656 11C14.7656 11.3129 14.7216 11.6221 14.6348 11.9189C14.5015 12.3745 14.7628 12.8517 15.2184 12.985C15.674 13.1182 16.1512 12.8569 16.2845 12.4014C16.4171 11.9478 16.4844 11.4763 16.4844 11C16.4844 8.25163 14.2484 6.01562 11.5 6.01562Z" fill="black"/>
<path d="M19.9219 7.99223H19.4891C19.3753 7.99223 19.2721 7.92052 19.2274 7.81232L19.2197 7.79376C19.1734 7.6823 19.1956 7.55825 19.2761 7.47772L19.5821 7.1717C20.5873 6.16649 20.5873 4.53088 19.5821 3.52567L18.9745 2.91801C18.4875 2.43104 17.84 2.16287 17.1514 2.16287C16.4627 2.16287 15.8153 2.43104 15.3284 2.91801L15.0224 3.22399C14.9418 3.30455 14.8177 3.32664 14.7067 3.28054L14.6905 3.27383C14.5795 3.22798 14.5079 3.12482 14.5079 3.01099V2.57812C14.5079 1.15655 13.3513 0 11.9297 0H11.0704C9.64878 0 8.49223 1.15655 8.49223 2.57812V3.01099C8.49223 3.12482 8.42056 3.22798 8.31052 3.2734L8.29371 3.28036C8.18238 3.32668 8.0582 3.30455 7.97772 3.22403L7.6717 2.91801C7.18478 2.43104 6.53732 2.16287 5.84866 2.16287C5.16 2.16287 4.51259 2.43104 4.02563 2.91801L3.41796 3.52559C2.41275 4.53084 2.41275 6.1664 3.41801 7.17166L3.72399 7.47764C3.80451 7.5582 3.8266 7.68225 3.77903 7.79689L3.77383 7.80944C3.72803 7.92043 3.62477 7.99214 3.51095 7.99214H3.07812C1.65655 7.99214 0.5 9.14869 0.5 10.5703V11.4296C0.5 12.8512 1.65655 14.0078 3.07812 14.0078H3.51091C3.62477 14.0078 3.72794 14.0795 3.77267 14.1877L3.78032 14.2062C3.8266 14.3177 3.80447 14.4418 3.72395 14.5223L3.41796 14.8283C2.931 15.3153 2.66283 15.9627 2.66283 16.6513C2.66283 17.34 2.931 17.9874 3.41792 18.4743L4.02559 19.082C4.51255 19.569 5.16 19.8371 5.84862 19.8371C6.53732 19.8371 7.18473 19.569 7.67166 19.082L7.97764 18.776C8.05812 18.6954 8.18234 18.6734 8.29333 18.7195L8.30953 18.7262C8.42052 18.772 8.49219 18.8752 8.49219 18.989V19.4219C8.49219 20.8435 9.64873 22 11.0703 22H11.9297C13.3513 22 14.5078 20.8435 14.5078 19.4219V18.989C14.5078 18.8752 14.5795 18.772 14.6895 18.7266L14.7063 18.7196C14.8177 18.6734 14.9418 18.6955 15.0223 18.776L15.3283 19.082C15.8153 19.569 16.4627 19.8371 17.1514 19.8371C17.84 19.8371 18.4874 19.569 18.9744 19.082L19.5821 18.4743C20.069 17.9874 20.3372 17.34 20.3372 16.6513C20.3372 15.9627 20.069 15.3153 19.5821 14.8283L19.2761 14.5223C19.1955 14.4418 19.1734 14.3177 19.2197 14.2063L19.2262 14.1906C19.272 14.0796 19.3752 14.0079 19.4891 14.0079H19.9219C21.3435 14.0079 22.5 12.8513 22.5 11.4297V10.5704C22.5 9.14878 21.3435 7.99223 19.9219 7.99223ZM20.7812 11.4297C20.7812 11.9035 20.3957 12.2891 19.9219 12.2891H19.4891C18.6767 12.2891 17.95 12.7779 17.6376 13.5344L17.632 13.5479C17.3184 14.3041 17.4866 15.1635 18.0606 15.7376L18.3667 16.0437C18.529 16.206 18.6184 16.4218 18.6184 16.6513C18.6184 16.8809 18.529 17.0967 18.3667 17.259L17.759 17.8667C17.5967 18.029 17.3809 18.1184 17.1513 18.1184C16.9218 18.1184 16.706 18.029 16.5437 17.8667L16.2376 17.5606C15.6632 16.9863 14.8033 16.8183 14.0466 17.1325L14.0345 17.1376C13.2779 17.45 12.7891 18.1767 12.7891 18.989V19.4219C12.7891 19.8957 12.4035 20.2812 11.9297 20.2812H11.0703C10.5965 20.2812 10.2109 19.8957 10.2109 19.4219V18.989C10.2109 18.1767 9.72208 17.45 8.96463 17.1372L8.95303 17.1324C8.69994 17.0272 8.43538 16.9761 8.1737 16.9761C7.65331 16.9761 7.14456 17.1785 6.76235 17.5606L6.45633 17.8667C6.29399 18.029 6.07825 18.1184 5.84866 18.1184C5.61912 18.1184 5.40329 18.029 5.241 17.8667L4.63334 17.259C4.471 17.0967 4.38162 16.8809 4.38162 16.6513C4.38162 16.4218 4.471 16.206 4.63334 16.0437L4.93936 15.7376C5.51346 15.1635 5.68164 14.3041 5.36802 13.5479L5.36243 13.5344C5.04996 12.7779 4.32323 12.2891 3.51095 12.2891H3.07812C2.60427 12.2891 2.21875 11.9035 2.21875 11.4297V10.5703C2.21875 10.0965 2.60427 9.71094 3.07812 9.71094H3.51095C4.32327 9.71094 5.05 9.22213 5.36359 8.46282L5.36759 8.45307C5.68177 7.69665 5.51368 6.83676 4.93932 6.26235L4.63334 5.95637C4.29822 5.62126 4.29822 5.07607 4.63334 4.741L5.24096 4.13334C5.40334 3.97104 5.61912 3.88162 5.84866 3.88162C6.07825 3.88162 6.29403 3.971 6.45633 4.13334L6.76239 4.4394C7.33684 5.01372 8.19678 5.18182 8.95341 4.86746L8.96553 4.86243C9.72208 4.55005 10.2109 3.82332 10.2109 3.01099V2.57812C10.2109 2.10427 10.5965 1.71875 11.0703 1.71875H11.9297C12.4035 1.71875 12.7891 2.10427 12.7891 2.57812V3.01099C12.7891 3.82332 13.2779 4.55005 14.0354 4.86277L14.047 4.86759C14.8033 5.18169 15.6632 5.01364 16.2376 4.43932L16.5437 4.13325C16.706 3.97096 16.9218 3.88158 17.1513 3.88158C17.3809 3.88158 17.5967 3.971 17.759 4.13329L18.3667 4.74096C18.7018 5.07603 18.7018 5.62121 18.3667 5.95629L18.0606 6.26235C17.4863 6.83676 17.3182 7.69661 17.6311 8.44989L17.6376 8.46557C17.95 9.22213 18.6768 9.71094 19.4891 9.71094H19.9219C20.3957 9.71094 20.7812 10.0965 20.7812 10.5703V11.4297Z" fill="black"/>
</g>
<defs>
<clipPath id="clip0_181_1199">
<rect width="22" height="22" fill="white" transform="translate(0.5)"/>
</clipPath>
</defs>
</svg>
