<svg width="13" height="12" viewBox="0 0 13 12" fill="none" xmlns="http://www.w3.org/2000/svg">
<path d="M3.85717 2.86344L5.56912 0.647063C5.69141 0.484019 5.83662 0.364284 6.00476 0.287858C6.17289 0.211431 6.34867 0.173218 6.5321 0.173218C6.71552 0.173218 6.8913 0.211431 7.05944 0.287858C7.22758 0.364284 7.37279 0.484019 7.49507 0.647063L9.20703 2.86344L11.8055 3.7347C12.0705 3.81622 12.2794 3.96653 12.4322 4.18562C12.5851 4.40471 12.6615 4.64672 12.6615 4.91167C12.6615 5.03395 12.6437 5.15623 12.608 5.27852C12.5723 5.4008 12.5138 5.51799 12.4322 5.63008L10.7508 8.01459L10.812 10.5214C10.8222 10.878 10.705 11.1787 10.4604 11.4232C10.2159 11.6678 9.93054 11.7901 9.60445 11.7901C9.58407 11.7901 9.47198 11.7748 9.26817 11.7442L6.5321 10.9799L3.79603 11.7442C3.74507 11.7646 3.68903 11.7773 3.62789 11.7824C3.56675 11.7875 3.5107 11.7901 3.45975 11.7901C3.13366 11.7901 2.84834 11.6678 2.60377 11.4232C2.35921 11.1787 2.24202 10.878 2.25221 10.5214L2.31335 7.99931L0.647249 5.63008C0.565727 5.51799 0.507133 5.4008 0.471467 5.27852C0.435802 5.15623 0.417969 5.03395 0.417969 4.91167C0.417969 4.65691 0.491848 4.41999 0.639606 4.2009C0.787364 3.98181 0.993716 3.82641 1.25866 3.7347L3.85717 2.86344Z" fill="#C4C4C4"/>
</svg>
