<svg width="13" height="12" viewBox="0 0 13 12" fill="none" xmlns="http://www.w3.org/2000/svg">
<path d="M4.18334 2.86344L5.8953 0.647063C6.01758 0.484019 6.16279 0.364284 6.33093 0.287858C6.49907 0.211431 6.67485 0.173218 6.85827 0.173218C7.04169 0.173218 7.21748 0.211431 7.38561 0.287858C7.55375 0.364284 7.69896 0.484019 7.82125 0.647063L9.5332 2.86344L12.1317 3.7347C12.3967 3.81622 12.6056 3.96653 12.7584 4.18562C12.9113 4.40471 12.9877 4.64672 12.9877 4.91167C12.9877 5.03395 12.9699 5.15623 12.9342 5.27852C12.8985 5.4008 12.8399 5.51799 12.7584 5.63008L11.077 8.01459L11.1382 10.5214C11.1484 10.878 11.0312 11.1787 10.7866 11.4232C10.542 11.6678 10.2567 11.7901 9.93062 11.7901C9.91024 11.7901 9.79815 11.7748 9.59434 11.7442L6.85827 10.9799L4.1222 11.7442C4.07125 11.7646 4.0152 11.7773 3.95406 11.7824C3.89292 11.7875 3.83687 11.7901 3.78592 11.7901C3.45983 11.7901 3.17451 11.6678 2.92994 11.4232C2.68538 11.1787 2.56819 10.878 2.57838 10.5214L2.63952 7.99931L0.973421 5.63008C0.891899 5.51799 0.833305 5.4008 0.797639 5.27852C0.761974 5.15623 0.744141 5.03395 0.744141 4.91167C0.744141 4.65691 0.81802 4.41999 0.965778 4.2009C1.11354 3.98181 1.31989 3.82641 1.58483 3.7347L4.18334 2.86344Z" fill="#F95D5D"/>
</svg>
