<svg width="20" height="20" viewBox="0 0 20 20" fill="none" xmlns="http://www.w3.org/2000/svg">
<g clip-path="url(#clip0_349_9351)">
<path d="M19.1667 18.3333H2.5C2.27899 18.3333 2.06702 18.2455 1.91074 18.0893C1.75446 17.933 1.66667 17.721 1.66667 17.5V0.833333C1.66667 0.61232 1.57887 0.400358 1.42259 0.244078C1.26631 0.0877974 1.05435 0 0.833333 0C0.61232 0 0.400358 0.0877974 0.244078 0.244078C0.0877974 0.400358 0 0.61232 0 0.833333L0 17.5C0 18.163 0.263392 18.7989 0.732233 19.2678C1.20107 19.7366 1.83696 20 2.5 20H19.1667C19.3877 20 19.5996 19.9122 19.7559 19.7559C19.9122 19.5996 20 19.3877 20 19.1667C20 18.9457 19.9122 18.7337 19.7559 18.5774C19.5996 18.4211 19.3877 18.3333 19.1667 18.3333Z" fill="#F95D5D"/>
<path d="M12.5 16.6667C12.721 16.6667 12.9329 16.579 13.0892 16.4227C13.2455 16.2664 13.3333 16.0544 13.3333 15.8334V10.0001C13.3333 9.77907 13.2455 9.56711 13.0892 9.41083C12.9329 9.25455 12.721 9.16675 12.5 9.16675C12.2789 9.16675 12.067 9.25455 11.9107 9.41083C11.7544 9.56711 11.6666 9.77907 11.6666 10.0001V15.8334C11.6666 16.0544 11.7544 16.2664 11.9107 16.4227C12.067 16.579 12.2789 16.6667 12.5 16.6667Z" fill="#F95D5D"/>
<path d="M5.83333 16.6667C6.05435 16.6667 6.26631 16.579 6.42259 16.4227C6.57887 16.2664 6.66667 16.0544 6.66667 15.8334V10.0001C6.66667 9.77907 6.57887 9.56711 6.42259 9.41083C6.26631 9.25455 6.05435 9.16675 5.83333 9.16675C5.61232 9.16675 5.40036 9.25455 5.24408 9.41083C5.0878 9.56711 5 9.77907 5 10.0001V15.8334C5 16.0544 5.0878 16.2664 5.24408 16.4227C5.40036 16.579 5.61232 16.6667 5.83333 16.6667Z" fill="#F95D5D"/>
<path d="M15.8333 16.6667C16.0543 16.6667 16.2663 16.5789 16.4226 16.4226C16.5789 16.2663 16.6667 16.0543 16.6667 15.8333V5.83333C16.6667 5.61232 16.5789 5.40036 16.4226 5.24408C16.2663 5.0878 16.0543 5 15.8333 5C15.6123 5 15.4004 5.0878 15.2441 5.24408C15.0878 5.40036 15 5.61232 15 5.83333V15.8333C15 16.0543 15.0878 16.2663 15.2441 16.4226C15.4004 16.5789 15.6123 16.6667 15.8333 16.6667Z" fill="#F95D5D"/>
<path d="M9.16671 16.6667C9.38772 16.6667 9.59968 16.5789 9.75596 16.4226C9.91224 16.2663 10 16.0543 10 15.8333V5.83333C10 5.61232 9.91224 5.40036 9.75596 5.24408C9.59968 5.0878 9.38772 5 9.16671 5C8.94569 5 8.73373 5.0878 8.57745 5.24408C8.42117 5.40036 8.33337 5.61232 8.33337 5.83333V15.8333C8.33337 16.0543 8.42117 16.2663 8.57745 16.4226C8.73373 16.5789 8.94569 16.6667 9.16671 16.6667Z" fill="#F95D5D"/>
</g>
<defs>
<clipPath id="clip0_349_9351">
<rect width="20" height="20" fill="white"/>
</clipPath>
</defs>
</svg>
