<svg width="16" height="16" viewBox="0 0 16 16" fill="none" xmlns="http://www.w3.org/2000/svg">
<g clip-path="url(#clip0_354_11867)">
<path d="M11.2747 4.36533C10.814 4.01867 10.2327 3.91267 9.67733 4.07267L8.8 4.32667C8.496 4.41467 8.22467 4.57133 8 4.776C7.77533 4.57133 7.504 4.41467 7.2 4.32667L6.32267 4.07267C5.76733 3.91333 5.18667 4.01867 4.72533 4.36533C4.26467 4.712 4 5.24067 4 5.818V9.49067C4 10.3787 4.59667 11.1693 5.44933 11.4127L7.01467 11.862C7.33667 11.9547 7.66867 12.0013 8.00067 12.0013C8.33267 12.0013 8.66333 11.9547 8.986 11.862L10.5513 11.4133C11.4047 11.1693 12.0013 10.3787 12.0013 9.49067V5.818C12.0013 5.24133 11.7373 4.712 11.276 4.36533H11.2747ZM7.33333 10.566L5.816 10.1307C5.532 10.05 5.33333 9.786 5.33333 9.49067V5.818C5.33333 5.66467 5.40333 5.52333 5.52667 5.43133C5.612 5.36733 5.71267 5.334 5.816 5.334C5.86067 5.334 6.82933 5.60733 6.82933 5.60733C7.126 5.69333 7.334 5.96933 7.334 6.278V10.566H7.33333ZM10.6667 9.49067C10.6667 9.786 10.468 10.05 10.1833 10.1313L8.66667 10.566V6.278C8.66667 5.96933 8.87467 5.69333 9.17133 5.60733L10.0487 5.35333C10.196 5.31067 10.3507 5.33933 10.4733 5.43133C10.5967 5.52333 10.6667 5.66467 10.6667 5.818V9.49067ZM8 0C3.58867 0 0 3.58867 0 8C0 12.4113 3.58867 16 8 16C12.4113 16 16 12.4113 16 8C16 3.58867 12.4113 0 8 0ZM8 14.6667C4.324 14.6667 1.33333 11.676 1.33333 8C1.33333 4.324 4.324 1.33333 8 1.33333C11.676 1.33333 14.6667 4.324 14.6667 8C14.6667 11.676 11.676 14.6667 8 14.6667Z" fill="black"/>
</g>
<defs>
<clipPath id="clip0_354_11867">
<rect width="16" height="16" fill="white"/>
</clipPath>
</defs>
</svg>
