<svg width="18" height="17" viewBox="0 0 18 17" fill="none" xmlns="http://www.w3.org/2000/svg">
<path d="M6.49062 16.2367L5.09063 13.8789L2.43799 13.2894L2.69589 10.5631L0.890625 8.4999L2.69589 6.43675L2.43799 3.71043L5.09063 3.12096L6.49062 0.763062L8.99589 1.83148L11.5012 0.763062L12.9012 3.12096L15.5538 3.71043L15.2959 6.43675L17.1012 8.4999L15.2959 10.5631L15.5538 13.2894L12.9012 13.8789L11.5012 16.2367L8.99589 15.1683L6.49062 16.2367ZM7.11694 14.3578L8.99589 13.5473L10.9117 14.3578L11.9433 12.5894L13.9696 12.1104L13.7854 10.0473L15.1485 8.4999L13.7854 6.91569L13.9696 4.85253L11.9433 4.41043L10.8748 2.64201L8.99589 3.45253L7.0801 2.64201L6.04852 4.41043L4.0222 4.85253L4.20641 6.91569L2.84326 8.4999L4.20641 10.0473L4.0222 12.1473L6.04852 12.5894L7.11694 14.3578ZM8.2222 11.1157L12.3854 6.95254L11.3538 5.88411L8.2222 9.01569L6.63799 7.46832L5.60641 8.4999L8.2222 11.1157Z" fill="white"/>
</svg>
