<svg width="20" height="20" viewBox="0 0 20 20" fill="none" xmlns="http://www.w3.org/2000/svg">
<g clip-path="url(#clip0_176_3135)">
<path d="M18.7768 5.55352C18.2326 5.28143 17.591 5.33858 17.1048 5.70486C17.0734 5.7282 17.0436 5.75477 17.0162 5.78214L15.6018 7.2094C15.432 5.14458 13.7173 3.51123 11.6098 3.51123H4.36484C2.14546 3.51043 0.339844 5.31604 0.339844 7.53543V12.3654C0.339844 14.5848 2.14546 16.3904 4.36484 16.3904H11.6098C13.7262 16.3904 15.4481 14.7426 15.6043 12.6657L17.0178 14.0777C17.0452 14.1042 17.0734 14.1284 17.104 14.1517C17.3873 14.3642 17.7222 14.4721 18.0603 14.4721C18.3042 14.4721 18.5481 14.4166 18.7768 14.3023C19.3217 14.0302 19.6598 13.482 19.6598 12.8742V6.9832C19.6598 6.37381 19.3217 5.82561 18.7768 5.55352ZM11.6098 14.7804H4.36484C3.03337 14.7804 1.94984 13.6969 1.94984 12.3654V7.53543C1.94984 6.20396 3.03337 5.12043 4.36484 5.12043H11.6098C12.9413 5.12043 14.0248 6.20396 14.0248 7.53543V12.3654C14.0248 13.6969 12.9413 14.7804 11.6098 14.7804ZM15.6348 10.4197V9.4626L18.0498 7.02506L18.07 12.8516L15.6348 10.4189V10.4197Z" fill="#F95D5D"/>
</g>
<defs>
<clipPath id="clip0_176_3135">
<rect width="19.32" height="19.32" fill="white" transform="translate(0.339844 0.290405)"/>
</clipPath>
</defs>
</svg>
