<svg width="20" height="20" viewBox="0 0 20 20" fill="none" xmlns="http://www.w3.org/2000/svg">
<g clip-path="url(#clip0_109_2893)">
<path d="M18.7768 5.5783C18.2326 5.30621 17.591 5.36336 17.1048 5.72964C17.0734 5.75298 17.0436 5.77955 17.0162 5.80692L15.6018 7.23418C15.432 5.16936 13.7173 3.53601 11.6098 3.53601H4.36484C2.14546 3.53521 0.339844 5.34082 0.339844 7.56021V12.3902C0.339844 14.6096 2.14546 16.4152 4.36484 16.4152H11.6098C13.7262 16.4152 15.4481 14.7674 15.6043 12.6905L17.0178 14.1024C17.0452 14.129 17.0734 14.1532 17.104 14.1765C17.3873 14.389 17.7222 14.4969 18.0603 14.4969C18.3042 14.4969 18.5481 14.4413 18.7768 14.327C19.3217 14.0549 19.6598 13.5067 19.6598 12.899V7.00798C19.6598 6.39859 19.3217 5.85039 18.7768 5.5783ZM11.6098 14.8052H4.36484C3.03337 14.8052 1.94984 13.7217 1.94984 12.3902V7.56021C1.94984 6.22874 3.03337 5.14521 4.36484 5.14521H11.6098C12.9413 5.14521 14.0248 6.22874 14.0248 7.56021V12.3902C14.0248 13.7217 12.9413 14.8052 11.6098 14.8052ZM15.6348 10.4445V9.48738L18.0498 7.04984L18.07 12.8764L15.6348 10.4437V10.4445Z" fill="white"/>
</g>
<defs>
<clipPath id="clip0_109_2893">
<rect width="19.32" height="19.32" fill="white" transform="translate(0.339844 0.315186)"/>
</clipPath>
</defs>
</svg>
