<svg width="18" height="14" viewBox="0 0 18 14" fill="none" xmlns="http://www.w3.org/2000/svg">
<path d="M1.5 4C1.5 3.20435 1.81607 2.44129 2.37868 1.87868C2.94129 1.31607 3.70435 1 4.5 1H13.5C14.2956 1 15.0587 1.31607 15.6213 1.87868C16.1839 2.44129 16.5 3.20435 16.5 4V10C16.5 10.7956 16.1839 11.5587 15.6213 12.1213C15.0587 12.6839 14.2956 13 13.5 13H4.5C3.70435 13 2.94129 12.6839 2.37868 12.1213C1.81607 11.5587 1.5 10.7956 1.5 10V4Z" stroke="white" stroke-width="2" stroke-linecap="round" stroke-linejoin="round"/>
<path d="M7.5 4.75L11.25 7L7.5 9.25V4.75Z" stroke="white" stroke-width="2" stroke-linecap="round" stroke-linejoin="round"/>
</svg>
